<svg viewBox="0 0 144 144" xmlns="http://www.w3.org/2000/svg"><path d="M82.738 24.266c-.09.062-.64.117-1.234.129-1.914.039-6.137.27-7.258.398-.601.062-1.32.152-1.605.18-.282.023-.95.14-1.477.257-.527.114-1.219.27-1.539.332-.324.051-.836.18-1.156.258-.324.09-.903.192-1.285.22-.387.038-.758.112-.836.179-.063.062-.23.113-.371.113s-.426.055-.645.117c-.219.078-.82.192-1.336.281-.512.09-.96.207-1 .27-.039.055-.195.105-.348.105-.152 0-.539.075-.859.18-.887.281-2.441.602-2.559.54-.062-.04-.398.077-.73.269-.578.308-1.582.601-2.582.77-.23.038-.426.116-.426.179 0 .066-.191.117-.422.117-.23 0-.488.063-.566.14-.14.141-.36.247-2.441 1.106-.5.219-1.196.551-1.54.758-.336.203-.964.54-1.39.73-.422.208-.82.45-.871.555a.35.35 0 0 1-.282.18c-.093 0-.195.039-.218.09-.016.062-.489.32-1.028.601-.554.27-1.004.54-1.004.594 0 .05-.152.164-.347.242-.45.168-.73.348-1.399.875-.285.219-.773.54-1.066.707-.887.489-.95.524-1.773 1.157-.438.343-.836.613-.875.613-.141 0-1 .707-1.297 1.054-.075.09-.41.399-.758.68-.332.285-.68.594-.781.668a.622.622 0 0 1-.36.168c-.117 0-.207.078-.207.18 0 .09-.27.375-.59.605-.324.242-.808.64-1.093.899-.282.258-.692.601-.926.77-.215.167-1.23 1.132-2.246 2.132-1.016 1.016-1.864 1.836-1.903 1.836-.152 0-2.027 2.02-2.402 2.598a8.417 8.417 0 0 1-.832 1.066c-.219.203-.414.434-.414.488 0 .051-.129.23-.293.383-.555.54-1.633 1.863-1.633 2.004 0 .078-.039.14-.09.14-.062 0-.242.22-.425.477-.18.258-.473.657-.668.86-.204.218-.36.464-.36.554 0 .075-.101.18-.219.22-.214.073-1.28 1.538-1.476 2.026-.05.13-.14.23-.203.23-.051 0-.207.22-.324.49-.114.269-.45.745-.73 1.054s-.513.617-.513.695c0 .074-.117.281-.257.461-.141.18-.258.426-.258.54 0 .128-.371.964-.82 1.862-1.055 2.094-1.622 3.301-1.622 3.47 0 .077-.09.296-.191.5-.102.206-.156.487-.117.644.039.152.015.32-.063.37-.078.04-.117.141-.066.208.039.074-.012.23-.113.344-.297.347-.618 1.054-.54 1.183.036.078 0 .281-.105.477-.152.293-.46 1.875-.5 2.605 0 .102-.168.707-.371 1.336-.375 1.145-.375 1.156-.399 4.688-.015 3.816.012 4.511.258 4.804.09.106.153.246.14.297a.655.655 0 0 0 .04.309c.191.527.371 1.324.305 1.375-.035.039 0 .191.078.347.09.141.168.422.18.614.015.18.117.527.23.758.117.218.207.488.207.578 0 .105.387.937.875 1.875.473.941.937 2.03 1.039 2.418.09.382.23.757.32.832.078.066.22.363.309.644.219.656.566 1.36.773 1.578.075.09.153.258.153.348 0 .102.078.23.18.285.09.05.206.27.242.485.039.207.093.476.117.593.027.114.258.422.527.707.258.27.477.551.477.63.011.167.46.706.601.706.051 0 .36.293.668.653.309.359.746.734.965.824.488.203 1 .73.95.976-.024.09.167.27.41.399.246.129.632.383.847.578.219.203.488.41.594.488.101.063.433.32.742.54.36.28.695.421.977.421.234 0 .449.078.476.156.05.114.078.114.078.012.012-.152.961.258 1.258.55.102.09.258.145.36.106.117-.05.19 0 .19.13a.2.2 0 0 0 .196.202c.102 0 .293.118.422.27.14.14.336.246.426.23.258-.035.64.145.988.438.152.14.281.219.281.168s.22.062.477.246c.27.18.539.32.617.32s.399.282.719.63c.5.55 1.183.898 1.555.808.05-.012.27.14.488.347.23.204.539.372.707.372.168-.012.488.168.719.386.656.602 1.375.899 2.62 1.04.641.077 1.337.167 1.555.195a2.2 2.2 0 0 1 .692.203c.555.297 3.469.617 3.469.386 0-.066.191-.078.425-.05.22.039.668-.016.989-.13.32-.116.656-.206.746-.206.09 0 .293-.114.449-.27.539-.527.832-.629 1.707-.68a3.906 3.906 0 0 0 1.684-.449c.437-.218.82-.398.859-.398.039 0 .27-.219.527-.488.489-.528.567-.938.258-1.516-.105-.207-.195-.477-.195-.594 0-.113-.035-.304-.074-.41-.09-.242-1.157-.77-1.325-.668-.062.04-.18-.012-.27-.113a.685.685 0 0 0-.46-.195c-.156 0-.336-.063-.375-.13-.05-.074-.27-.214-.512-.304-.234-.106-.465-.297-.504-.438-.05-.14-.32-.347-.59-.464-.28-.114-.511-.254-.511-.32 0-.114-.13-.141-.707-.13-1.274.028-1.516 0-1.723-.191-.129-.117-.32-.207-.437-.207-.114 0-.243-.05-.282-.129-.039-.063-.207-.125-.36-.125-.167 0-.425-.094-.577-.207a.764.764 0 0 0-.617-.129c-.18.05-.309.027-.309-.05 0-.067-.09-.13-.191-.13-.106 0-.196-.05-.196-.129 0-.062-.164-.207-.37-.32-.602-.308-1.22-.937-1.376-1.387-.09-.285-.23-.425-.45-.449a1.124 1.124 0 0 1-.437-.168.444.444 0 0 0-.28-.117c-.079 0-.372-.14-.63-.32-.465-.32-.914-.32-.476 0 .129.09.191.219.129.27-.051.05-.09.027-.09-.063s-.117-.117-.309-.067c-.18.04-.398.028-.488-.023-.09-.05-.371-.129-.629-.145-.258-.023-.695-.164-.965-.293-.27-.14-.629-.257-.781-.257-.168 0-.297-.079-.297-.18 0-.102-.191-.332-.422-.512-.219-.195-.476-.386-.543-.453a2.673 2.673 0 0 0-.472-.215c-.18-.066-.657-.398-1.055-.746-.602-.539-.719-.707-.719-1.066 0-.309-.062-.426-.207-.426-.23 0-.988-.398-1.05-.55-.028-.052-.106-.09-.169-.09s-.41-.298-.77-.645c-.359-.36-.718-.64-.812-.64-.23 0-.972-.72-.972-.95 0-.117-.067-.207-.13-.207-.206 0-.902-.668-.902-.86 0-.09-.113-.23-.242-.32-.129-.078-.219-.234-.18-.324.04-.102-.039-.254-.167-.36-.141-.1-.192-.19-.141-.19.129 0-.527-1.169-.719-1.313a.437.437 0 0 0-.308-.012c-.09.04-.168 0-.168-.078 0-.074.066-.14.14-.14.196 0 .067-.63-.254-1.259-.144-.296-.27-.617-.27-.707 0-.101-.195-.386-.437-.64-.23-.258-.465-.617-.5-.824-.093-.45-.156-.68-.285-.977-.05-.113-.05-.36-.012-.539.051-.18.024-.32-.039-.32s-.191-.332-.27-.746a9.261 9.261 0 0 0-.218-.922 2.317 2.317 0 0 1-.101-.555c-.016-.191-.106-.438-.196-.54-.074-.089-.18-.655-.219-1.245-.074-1.156-.203-1.645-.433-1.645-.14 0-.09-2.465.09-3.597.039-.243.09-.797.113-1.22.027-.425.14-1.093.246-1.476.102-.386.152-.757.113-.808-.035-.067-.011-.246.067-.387.203-.465.5-1.273.68-1.89.09-.32.335-.883.527-1.258.207-.383.347-.758.332-.836-.012-.09.129-.32.324-.524.191-.207.344-.476.344-.605 0-.14.054-.242.117-.242s.14-.145.191-.297c.067-.27.555-.989 1.016-1.504.45-.5 1.223-1.645 1.156-1.719-.05-.039-.011-.078.078-.078.22 0 .567-.36.477-.488-.04-.067.14-.297.371-.528.242-.23.45-.515.45-.629 0-.117.745-1.004 1.655-1.953 2.083-2.172 2.07-2.156 2.07-2.312 0-.078.09-.168.192-.207.102-.051.192-.14.192-.203 0-.141 1.027-1.133 1.183-1.133.051 0 .102-.074.102-.164.011-.18.629-.914.707-.836.09.09 1.605-1.364 1.605-1.543 0-.09.067-.153.13-.153s.241-.101.37-.23c.668-.617 2.149-1.824 2.239-1.824.023 0 .37-.309.742-.696.386-.37.824-.73.976-.77.157-.05.45-.284.668-.526.219-.243.953-.82 1.645-1.286.695-.449 1.347-.898 1.453-.988.101-.09.219-.156.27-.14.039.011.292-.208.562-.489.285-.27.617-.5.773-.5.141 0 .5-.207.809-.453.309-.242.875-.523 1.258-.64.476-.141.847-.348 1.133-.657.488-.511 1-.82 1.41-.82.144 0 .527-.207.847-.465.325-.254.875-.59 1.235-.758.36-.164.707-.36.746-.433.05-.078.23-.145.41-.145.168 0 .41-.05.54-.113.425-.219 1.116-.387 1.925-.477.453-.05.887-.168.992-.257.09-.102.203-.18.242-.18.04 0 .375-.14.746-.309a9.344 9.344 0 0 1 1.414-.46c.41-.079 1.051-.259 1.45-.4.386-.128 1.504-.331 2.48-.437.965-.101 2.133-.27 2.594-.37.465-.102 1.297-.282 1.863-.41.567-.118 1.145-.27 1.285-.349.657-.347 2.106-.605 3.79-.668.808-.039 1.683-.128 1.925-.207.59-.18 7.168-.293 11.95-.203 1.527.024 1.937.063 2.296.27.309.168.606.219.989.168.695-.078 1.734.164 2.671.601.387.18.848.336 1.016.336.18 0 .387.09.477.192.09.101.293.191.46.191s.31.05.31.129c0 .066.05.129.128.129.063 0 .426.14.797.309s.82.347 1 .398c.18.05.398.203.488.332.09.145.285.246.414.246s.32.09.434.191c.105.102.27.196.375.196.101 0 .258.09.347.191.09.102.231.192.32.192.09 0 .231.09.333.207.09.101.27.168.398.14.14-.039.23 0 .23.117 0 .165 1.302 1.13 1.762 1.297.13.051.68.434 1.235.86.55.437 1.191.914 1.41 1.066.723.5.992.746.992.899 0 .09.219.32.473.515.566.438 1.71 1.59 1.71 1.735 0 .05.075.101.165.101.234 0 1.222 1.234 2.082 2.594.219.32.539.683.734.797.18.117.461.41.614.656.156.242.347.488.437.54.219.14.977 1.218.977 1.398 0 .078.23.398.515.707.281.308.512.628.512.707 0 .09.09.18.195.23.102.04.192.14.192.219 0 .09.14.336.308.554.153.22.383.563.5.782.102.207.371.578.59.824.219.242.438.55.477.707.05.14.336.668.64 1.156.309.5.567.973.567 1.051 0 .207.398.988.59 1.145.078.062.257.41.386.77.117.347.336.796.461.987.145.207.219.414.18.465-.035.063.105.438.324.86.203.41.371.824.371.914 0 .101.067.18.13.18.077 0 .128.113.128.269 0 .23.746 1.953 1.234 2.836.102.195.215.515.243.707.078.555.437 2.055.656 2.687.347 1.012.562 5.727.293 6.23-.063.126-.114.72-.114 1.321 0 1.117-.437 4.984-.644 5.664a8.737 8.737 0 0 0-.203 1.031c-.117.883-.555 2.246-.836 2.618-.14.168-.246.359-.246.425 0 .063-.113.36-.242.657-.13.293-.332.757-.438 1.011-.113.27-.27.489-.332.489-.078 0-.14.09-.14.195 0 .102-.055.191-.106.191-.063 0-.168.118-.23.246-.102.204-1.106 1.36-2.172 2.516-.141.156-.54.488-.899.746-.347.258-.847.64-1.09.86-.796.707-2.402 1.925-2.53 1.925-.079 0-.231.118-.36.258-.13.156-.324.23-.414.207-.09-.039-.164-.027-.164.04 0 .062-.207.202-.45.32-.246.113-.453.28-.453.37s-.152.231-.36.31c-.19.09-.69.448-1.116.808-.41.347-.86.683-.989.719-.128.039-.23.128-.23.195 0 .062-.102.113-.219.113-.246.016-.68.285-.68.438 0 .039-.167.23-.374.425-.293.293-.36.461-.344.91.011.489.09.63.68 1.196l.667.629h1.067c1.078 0 1.476.129 1.847.629.168.218 1.055.117 1.504-.164.157-.106.579-.258.95-.348.375-.09.812-.297.992-.465.18-.164.383-.293.449-.293.113 0 1.426-.976 1.977-1.465.117-.117.218-.18.218-.129 0 .04.192-.117.426-.32.215-.219.473-.398.55-.398s.27-.14.438-.32c.153-.169.602-.505.977-.735.383-.23.691-.488.691-.578s.258-.399.579-.692c.32-.296.578-.617.578-.722 0-.09.129-.27.27-.395.796-.644 1.784-1.633 1.784-1.773 0-.106.118-.246.258-.336s.258-.219.258-.27c0-.062.14-.23.32-.37s.45-.5.606-.786c.14-.293.308-.566.347-.601.051-.04.305-.415.563-.836.258-.426.719-1.079 1.027-1.454.309-.382.645-.925.746-1.218.09-.297.36-.899.59-1.348.23-.437.426-.875.426-.965 0-.078.18-.5.383-.914.219-.41.386-.937.386-1.14 0-.399.438-2.25.645-2.723.063-.145.164-1.117.242-2.16.063-1.04.18-1.965.246-2.055.371-.477.45-1.246.434-4.254-.012-1.68-.074-3.363-.14-3.722-.079-.36-.13-1.067-.114-1.555.023-1.336-.117-2.531-.398-3.367-.13-.41-.286-1-.336-1.32-.051-.325-.141-.669-.207-.786-.051-.101-.125-.426-.165-.707-.117-.926-.347-1.758-.578-2.094-.129-.18-.297-.629-.386-.976a8.18 8.18 0 0 0-.387-1.156c-.399-.899-.524-1.157-.64-1.348a6.75 6.75 0 0 1-.27-.578 5.383 5.383 0 0 0-.27-.578 4.49 4.49 0 0 1-.258-.516c-.437-.95-.578-1.219-.656-1.258-.062-.023-.101-.101-.101-.18 0-.152-.68-1.539-1.028-2.093-.129-.219-.242-.489-.242-.617-.016-.32-1.21-2.645-1.621-3.145-.398-.477-1.645-2.273-1.707-2.469-.09-.257-.848-1.207-1.594-1.976-.347-.348-.617-.719-.617-.836 0-.117-.371-.696-.836-1.297a51.146 51.146 0 0 1-1.18-1.606c-.18-.285-.386-.539-.437-.554-.063-.024-.113-.125-.113-.23 0-.102-.067-.18-.145-.18-.074 0-.976-.836-1.988-1.864-1.016-1.027-1.903-1.859-1.98-1.859-.063 0-.13-.055-.13-.117 0-.168-.808-.965-1-1.004-.195-.024-.59-.344-1.273-1.05-.23-.247-.422-.388-.422-.321 0 .062-.05.05-.105-.016-.051-.074-.293-.281-.54-.45-.242-.167-.667-.5-.937-.73-.258-.23-.527-.425-.601-.425-.141 0-1.274-.758-1.477-.977-.066-.09-.363-.219-.645-.308a3.72 3.72 0 0 1-.91-.473c-.218-.156-.476-.297-.578-.297-.105 0-.488-.207-.863-.45-.371-.257-1.067-.577-1.54-.718-.476-.156-.976-.348-1.132-.437-.152-.102-.59-.27-.988-.387-.399-.113-.758-.254-.797-.32-.063-.102-.938-.32-1.13-.282-.05.012-.308-.09-.565-.23-.27-.145-.579-.258-.68-.258-.117 0-.516-.078-.899-.18-.386-.105-1.222-.218-1.863-.27-1.027-.077-6.808-.14-8.863-.09-.426.013-.965-.015-1.223-.038-.242-.04-.527-.012-.629.05zm0 0"/><path d="M77.035 39.293c-.41.297-.77.527-.808.527-.247 0-1.336 1.594-1.336 1.953 0 .168-.09.438-.207.59-.164.246-.192.516-.13 1.352.04.578.067 1.437.067 1.914 0 1.016.27 1.719.938 2.426.629.668 1.863 1.172 2.195.914.09-.067.375-.157.644-.207.254-.051.473-.14.473-.203 0-.079.129-.13.297-.13.152 0 .516-.077.797-.179.55-.195.59-.285.95-1.813.077-.359.269-.746.425-.874.191-.165.281-.399.308-.899.04-.73.63-2.531.989-3.043.332-.476.27-.848-.23-1.402-.555-.602-1.762-1.168-2.66-1.23-.372-.028-.966-.09-1.325-.13-.602-.078-.692-.05-1.387.434zm-20.617 5.562c-.191.196-.371.22-1.504.247-.86.011-1.398.191-1.836.59-.09.09-.219.167-.281.167-.207 0-.54.68-.785 1.606-.41 1.566-.23 2.98.59 4.777.105.219.195.438.195.488 0 .04.164.336.383.63.285.425.465.566.734.566.422.011 1.578-.332 1.578-.477 0-.05.348-.05.774-.011.422.039.847.027.937-.024a.843.843 0 0 1 .383-.105c.527 0 .848-.82 1.055-2.633.101-.926.347-1.887.539-2.184.09-.14.168-.512.168-.836 0-.32.05-.64.113-.718.309-.32.27-.68-.113-1.118-.735-.847-2.48-1.414-2.93-.965zm42.39 8.454c-.152.066-.68.156-1.156.207-.476.039-1.425.218-2.105.386-.68.164-1.465.305-1.734.305-.27.016-1.004.129-1.645.27-.629.144-1.348.273-1.594.257-.242 0-.59.078-.77.168-.179.09-.718.207-1.195.243-.476.054-1 .167-1.156.273-.168.102-.68.254-1.156.344-.488.09-.875.207-.875.258s-.23.18-.524.296c-.628.258-1.734.371-4.87.528-.81.035-1.645.101-1.848.14-.438.09-4.434.114-4.524.024-.023-.04-.332-.012-.668.05-.332.067-1.27.145-2.082.169-2.594.105-3.133.168-3.93.437-.437.14-1 .27-1.285.281a6.14 6.14 0 0 0-1.078.18c-.32.09-.976.234-1.476.324-.489.09-.989.219-1.094.27-.371.18-2.016.652-2.195.617-.102-.027-.73.09-1.399.254-1.273.308-3.394.515-5.332.527-.758.012-1.273.078-1.476.192-.18.105-.528.183-.786.195-.257 0-.539.09-.628.191-.09.102-.23.18-.309.18a.811.811 0 0 0-.332.05c-.106.04-.684.169-1.285.286-1.274.254-2.762.809-3.649 1.375-.527.344-.785.41-1.8.5-1.297.102-1.875.219-1.875.383 0 .054-.204.324-.45.593-.472.528-.836 1.168-.836 1.5 0 .118-.09.364-.203.528-.101.168-.18.414-.168.539.012.129 0 .324-.05.426-.18.488-.192.875-.028 1.347.106.285.258.965.348 1.504.078.551.191 1 .246 1 .035 0 .152.196.242.414.09.23.246.59.336.809.09.207.191.601.242.86.04.269.13.488.192.488.078 0 .129.14.129.308 0 .168.09.477.195.68.101.195.332.695.512 1.094.168.41.359.746.425.746.18 0 .563.78.5 1.039-.129.5 3.75 4.11 5.203 4.855.758.387 1.618 1.067 2.157 1.707.297.336.718.723.937.824.23.114.45.27.489.332.039.067.18.13.296.157.13.011.27.09.309.152.14.195 1.207.902 1.695 1.133.243.113.59.293.77.398.18.102.45.192.617.192s.41.062.54.129c.167.09.269.09.32 0 .054-.078.195-.102.324-.067.14.04.601.016 1.039-.062.59-.102.86-.23 1.039-.461.144-.168.375-.309.527-.309.45 0 1.313.344 1.348.54.015.09.207.241.398.331.219.106.414.297.465.504.04.192.203.524.36.73.152.22.257.4.23.4-.04 0 .027.14.14.32.157.246.18.476.118.964-.051.36-.04.848.023 1.09.055.246.09 2.738.078 5.524-.011 2.789-.023 5.304-.023 5.59-.016 3.07.215 5.187.742 6.613.117.324.27.757.336.992.062.23.203.578.309.77.101.19.19.437.19.527 0 .281.411 1.09.669 1.32.129.117.23.258.23.324 0 .063.141.23.32.36.18.129.325.32.325.41 0 .101.05.18.101.18s.207.167.32.386c.13.219.321.383.427.383.101 0 .18.078.152.156-.05.27.285.77.824 1.285.281.27.55.489.59.489.039 0 .297.191.59.422.656.515.914.644 2.133 1.004.527.152 1.004.343 1.054.421.051.079.102.09.102.04 0-.051.27.05.59.23.437.246.758.32 1.246.308.375-.011.875.079 1.133.192.343.144.96.207 2.312.219 1.012.015 2.145.027 2.492.039.73.015 2.477-.293 2.582-.461.035-.051.254-.102.473-.102.23 0 .668-.144.977-.324.296-.18.656-.32.796-.32.13 0 .36-.051.528-.13.168-.062.539-.179.836-.257.293-.074.613-.203.703-.293.234-.219.836-.477 1.133-.477.129 0 .41-.14.617-.32.219-.18.437-.32.512-.32.066 0 .156-.09.207-.195.039-.102.14-.192.242-.192.09 0 .308-.152.488-.332.168-.18.836-.734 1.465-1.21 1.066-.81 3.277-2.942 3.277-3.161 0-.05.168-.242.371-.45.207-.19.477-.562.59-.808.13-.258.27-.46.336-.46.078 0 .168-.102.219-.231.258-.645 1.016-1.684 1.476-2.02.41-.308.59-.562.82-1.207.169-.46.4-.949.528-1.09.309-.375.54-.808.54-1.027 0-.09.105-.207.234-.234.203-.063.539-.614.921-1.579.438-1.078.657-1.695.954-2.699.203-.64.41-1.258.472-1.37.067-.13.117-.4.117-.606 0-.219.118-.578.258-.825.164-.269.309-.859.383-1.5.066-.578.168-1.117.234-1.207.153-.18.68-1.593.73-1.94.079-.462.22-1.978.27-2.93.028-.512.09-1.297.13-1.758.128-1.286.1-1.786-.13-2.762a22.474 22.474 0 0 0-.296-1.094 3.414 3.414 0 0 1-.114-.45c-.027-.14-.156-.78-.308-1.413a85.958 85.958 0 0 1-.348-1.477 2.552 2.552 0 0 0-.23-.578c-.09-.14-.297-.629-.461-1.09-.168-.465-.399-.953-.528-1.082-.117-.125-.195-.293-.156-.36.078-.112-.461-1-.602-1-.039 0-.156-.245-.257-.554-.09-.293-.27-.652-.399-.781-.297-.336-.297-.527.028-.848.14-.14.398-.578.578-.976.164-.387.511-.95.757-1.246.243-.297.45-.579.45-.645 0-.05.039-.215.062-.383a36.9 36.9 0 0 0 .207-1.504c.09-.668.203-1.285.281-1.375.27-.332.606-1.964.875-4.277.204-1.656.22-1.746.36-2.633.062-.426.09-.965.062-1.195-.039-.219.028-.68.13-1.027.179-.551.398-2.043.386-2.66-.016-.848-.156-1.169-.746-1.696-.332-.309-.707-.55-.82-.55a.545.545 0 0 1-.336-.118c-.332-.32-2.645-.5-3.25-.27zM83.997 74.89c.527.078 1.055.218 1.156.308.118.102.399.219.645.27.27.05.656.32 1.027.691.68.684 1.668 1.426 1.903 1.426.09 0 .164.078.164.184 0 .101.105.214.234.27.113.034.36.269.54.5.179.241.472.476.679.51.191.04.347.157.347.259 0 .101.075.246.168.296.395.243 3.391 3.723 3.672 4.266.09.18.242.422.336.524.254.308.848 1.914 1.102 2.957.129.527.297 1.195.375 1.476.074.281.14.707.129.95 0 .23.05.488.113.577.18.22.102 2.52-.102 2.88-.09.167-.18.511-.207.769-.101.898-.422 2.21-.707 2.789-.152.32-.242.668-.203.77.04.101.024.19-.039.19-.05 0-.18.247-.27.544-.19.652-.347 1.062-.59 1.55-.105.208-.179.454-.179.555 0 .102-.055.18-.129.18-.066 0-.129.09-.129.191 0 .27-.476 1.184-.668 1.313-.09.05-.437.5-.758 1-.824 1.234-2.171 2.672-3.12 3.3-.426.298-1.005.72-1.262.954-.27.242-.63.46-.809.512-.18.039-.32.117-.32.18 0 .179-1.004.538-1.274.448-.152-.039-.27-.023-.27.04 0 .168-1.448.566-2.234.617-.347.027-.976.101-1.386.18-.41.078-.875.101-1 .066-.145-.055-.258-.04-.258.023 0 .117-1.824.156-1.93.04-.035-.04-.5-.18-1.027-.298-.524-.128-1.219-.293-1.54-.37a6.962 6.962 0 0 0-.898-.169c-.18-.011-.593-.152-.925-.293-.336-.156-.645-.285-.68-.285-.348 0-2.379-1.875-2.379-2.195 0-.078-.152-.336-.348-.566-.55-.641-.742-.899-.78-1.079-.017-.078-.247-.68-.505-1.336-.484-1.246-.59-1.902-.758-5.062-.035-.781-.113-1.59-.164-1.773-.039-.192-.039-.82.024-1.387.14-1.488.218-2.774.27-4.262.027-.707.077-1.441.144-1.644.05-.196.035-.426-.028-.516-.078-.078-.14-.898-.14-1.813-.028-1.527-.195-2.644-.41-2.644-.055 0-.13-.219-.168-.488-.14-.86-.41-1.668-.645-1.926-.113-.13-.219-.297-.219-.375 0-.074-.164-.32-.382-.55-.207-.231-.387-.462-.387-.517 0-.062-.152-.242-.348-.41-.539-.46-.703-.82-.601-1.308.062-.375.14-.45.601-.578.297-.09.774-.168 1.055-.196.59-.05 2.121-.433 2.312-.59.079-.05.27-.129.45-.168.18-.035.757-.23 1.296-.449.848-.32 1.493-.41 2.07-.293.153.024.462.809.692 1.735.14.562.41 1.18.746 1.668.887 1.312 1.016 1.683 1.055 3.02.023.667.102 1.273.18 1.347.062.066.129.258.129.41 0 .465.14.695.511.887.68.347 1.555.593 1.836.504.348-.106.864-.555.864-.758 0-.078.32-.438.707-.797.46-.438.703-.774.703-.965 0-.168.09-.45.195-.656.203-.41.45-1.606.45-2.258 0-.258.128-.695.28-.977.247-.464.27-.683.247-2.222-.028-1.477 0-1.762.191-1.965.129-.145.309-.219.422-.18.117.024.644.114 1.156.192zm0 0"/></svg>