<svg viewBox="0 0 192 191" xmlns="http://www.w3.org/2000/svg"><path d="m110.32 32.184c-.12.086-.86.156-1.644.171-2.555.051-8.188.36-9.68.528-.805.086-1.762.207-2.14.238-.376.035-1.266.188-1.97.344-.702.152-1.628.355-2.054.441-.43.067-1.113.239-1.543.34-.426.121-1.2.258-1.71.29-.516.05-1.013.155-1.114.237-.086.086-.309.157-.496.157-.192 0-.567.066-.86.152-.289.102-1.093.254-1.78.375-.684.117-1.282.273-1.337.36-.05.066-.254.132-.46.132s-.72.106-1.15.242c-1.179.371-3.253.801-3.405.715-.086-.05-.532.102-.977.356-.773.41-2.11.8-3.445 1.023-.309.05-.563.153-.563.238 0 .086-.258.153-.566.153-.309 0-.653.086-.754.187-.188.188-.48.325-3.254 1.465-.668.293-1.594.734-2.055 1.008-.445.273-1.285.715-1.851.969-.563.273-1.094.597-1.164.734a.458.458 0 0 1 -.375.238c-.121 0-.258.051-.293.121-.016.082-.649.426-1.371.801-.735.356-1.336.715-1.336.781 0 .07-.203.223-.461.325-.598.222-.977.46-1.867 1.16-.375.289-1.028.715-1.422.937-1.18.645-1.266.696-2.364 1.532-.582.46-1.113.82-1.164.82-.187 0-1.336.934-1.73 1.394-.102.122-.547.528-1.012.903-.445.375-.906.785-1.043.886-.12.122-.344.223-.48.223-.153 0-.274.102-.274.238 0 .118-.36.493-.789.801-.426.324-1.078.852-1.453 1.192-.379.343-.926.8-1.234 1.023-.293.223-1.645 1.5-2.996 2.828-1.356 1.348-2.485 2.438-2.536 2.438-.207 0-2.707 2.675-3.203 3.441-.328.492-.824 1.125-1.113 1.414-.293.274-.55.578-.55.649 0 .066-.169.304-.391.511-.739.715-2.176 2.47-2.176 2.657 0 .101-.05.187-.121.187-.086 0-.324.29-.567.629-.238.344-.632.871-.89 1.144-.274.29-.477.614-.477.731 0 .102-.14.238-.293.289-.293.102-1.71 2.047-1.969 2.691-.07.172-.187.309-.273.309-.07 0-.277.29-.43.648-.152.356-.597.989-.976 1.395-.375.41-.684.82-.684.922s-.156.375-.344.613c-.187.238-.343.563-.343.715 0 .172-.496 1.277-1.094 2.473-1.406 2.777-2.16 4.379-2.16 4.597 0 .102-.117.395-.258.664-.137.274-.203.649-.152.852.05.207.015.43-.086.496-.102.05-.153.188-.086.273.05.102-.016.305-.153.461-.394.457-.824 1.395-.718 1.567.05.101 0 .375-.141.629-.203.394-.613 2.488-.668 3.46 0 .137-.223.938-.496 1.77-.496 1.516-.496 1.535-.531 6.219-.016 5.062.02 5.98.343 6.375.122.137.207.324.188.39a.955.955 0 0 0 .05.41c.259.7.5 1.755.415 1.821-.051.05 0 .258.101.461.121.187.223.562.239.82.02.239.156.696.308 1.004.156.29.274.649.274.766 0 .137.515 1.246 1.168 2.488.632 1.242 1.25 2.692 1.386 3.203.118.512.309 1.004.426 1.11.106.082.293.476.414.851.29.867.754 1.805 1.028 2.094.101.121.203.34.203.46 0 .138.105.306.242.376.117.066.273.355.324.648.05.27.121.63.152.782.036.156.344.562.704.937.343.36.632.734.632.836.02.223.618.937.809.937.066 0 .477.391.89.868.41.476.993.972 1.282 1.09.652.273 1.336.972 1.27 1.296-.036.118.222.356.546.528s.84.511 1.133.765c.29.274.648.547.785.649.137.086.582.426.996.715.477.375.922.562 1.301.562.309 0 .598.102.633.207.07.153.101.153.101.016.02-.203 1.286.34 1.68.734.137.117.344.188.48.133.153-.066.258 0 .258.172 0 .152.118.273.254.273.137 0 .395.153.567.356.187.187.445.324.566.308.34-.05.856.188 1.317.578.207.188.378.29.378.223s.29.086.633.324c.36.239.719.426.82.426.106 0 .532.375.962.836.667.73 1.574 1.191 2.074 1.07.066-.015.36.188.648.461.309.274.719.496.942.496.222-.02.652.22.96.512.876.8 1.833 1.192 3.493 1.379.86.102 1.78.223 2.074.254.289.035.703.152.926.273.734.391 4.625.817 4.625.512 0-.086.254-.101.562-.07.293.054.89-.016 1.32-.168.426-.153.872-.274.993-.274.12 0 .394-.152.601-.359.719-.695 1.114-.832 2.278-.902.87-.051 1.453-.203 2.242-.594.582-.293 1.097-.531 1.148-.531s.36-.29.703-.645c.649-.7.754-1.246.34-2.012-.137-.273-.254-.629-.254-.785a1.94 1.94 0 0 0 -.105-.543c-.117-.324-1.54-1.023-1.762-.886-.086.05-.242-.016-.36-.153-.12-.137-.394-.258-.616-.258-.207 0-.446-.086-.497-.168-.07-.105-.359-.293-.687-.41-.309-.136-.617-.39-.668-.578-.066-.187-.426-.46-.785-.613-.38-.156-.688-.344-.688-.426 0-.156-.172-.187-.941-.172-1.695.035-2.02 0-2.297-.258-.168-.152-.426-.27-.582-.27-.152 0-.324-.07-.375-.171-.05-.086-.273-.172-.48-.172-.223 0-.567-.117-.77-.27-.242-.171-.547-.238-.824-.171-.239.07-.41.035-.41-.067 0-.086-.121-.172-.258-.172s-.254-.066-.254-.171c0-.082-.223-.27-.5-.426-.805-.406-1.625-1.242-1.832-1.84-.117-.375-.309-.563-.598-.594-.222-.035-.48-.137-.582-.222a.616.616 0 0 0 -.379-.153c-.101 0-.496-.187-.84-.426-.613-.425-1.214-.425-.632 0 .172.118.257.29.172.356-.067.07-.122.035-.122-.086 0-.117-.152-.152-.41-.082-.238.05-.531.031-.648-.035-.121-.07-.5-.172-.84-.188-.344-.035-.926-.222-1.285-.39-.36-.188-.84-.344-1.047-.344-.223 0-.395-.102-.395-.238 0-.137-.254-.442-.562-.68-.293-.258-.633-.512-.719-.598a4.13 4.13 0 0 0 -.637-.289c-.238-.086-.87-.527-1.402-.988-.805-.715-.96-.938-.96-1.414 0-.41-.087-.563-.274-.563-.309 0-1.317-.527-1.403-.734-.035-.066-.136-.117-.222-.117s-.551-.39-1.028-.852c-.48-.476-.96-.851-1.082-.851-.308 0-1.3-.957-1.3-1.262 0-.152-.086-.273-.172-.273-.274 0-1.2-.887-1.2-1.141 0-.121-.152-.309-.324-.426-.172-.101-.293-.308-.238-.426.05-.136-.055-.34-.223-.476-.191-.137-.257-.258-.191-.258.172 0-.7-1.55-.957-1.738a.564.564 0 0 0 -.41-.016c-.121.05-.223 0-.223-.102a.19.19 0 0 1 .188-.187c.257 0 .086-.836-.344-1.672-.188-.39-.36-.816-.36-.937 0-.133-.257-.508-.582-.852-.308-.34-.617-.816-.668-1.09-.12-.594-.207-.902-.375-1.293-.07-.156-.07-.476-.02-.715.071-.242.036-.425-.05-.425s-.258-.446-.36-.989c-.1-.53-.238-1.093-.292-1.23a3.206 3.206 0 0 1 -.137-.73c-.016-.258-.137-.579-.254-.715-.105-.122-.242-.872-.293-1.653-.101-1.535-.273-2.183-.582-2.183-.187 0-.12-3.27.121-4.77.051-.324.117-1.055.153-1.617s.187-1.45.324-1.961c.137-.512.207-1.004.156-1.074-.05-.086-.02-.325.086-.512.273-.613.668-1.684.906-2.504.121-.426.446-1.176.703-1.668.274-.512.461-1.008.446-1.11-.016-.116.172-.425.43-.698.253-.27.46-.63.46-.801 0-.188.067-.324.153-.324s.191-.184.257-.391c.086-.356.739-1.313 1.356-1.992.598-.664 1.625-2.18 1.539-2.285-.066-.051-.016-.102.102-.102.293 0 .753-.477.636-.648-.05-.082.188-.391.496-.696.325-.308.598-.683.598-.836 0-.152.996-1.328 2.211-2.59 2.773-2.878 2.758-2.863 2.758-3.066 0-.102.12-.223.258-.273.136-.07.253-.188.253-.274 0-.187 1.372-1.5 1.579-1.5.066 0 .136-.101.136-.219.016-.238.84-1.21.942-1.109.12.121 2.14-1.805 2.14-2.043 0-.121.086-.207.172-.207s.324-.137.496-.305c.891-.82 2.86-2.421 2.98-2.421.036 0 .497-.407.993-.918.516-.497 1.098-.973 1.305-1.024.203-.066.597-.375.89-.7.29-.323 1.266-1.089 2.192-1.702.925-.594 1.797-1.192 1.933-1.313.137-.117.293-.203.36-.187.054.02.394-.27.754-.645.378-.36.824-.668 1.027-.668.191 0 .668-.27 1.082-.593.41-.325 1.164-.7 1.676-.852.636-.188 1.133-.461 1.508-.871.652-.68 1.335-1.09 1.882-1.09.192 0 .703-.273 1.133-.613a9.41 9.41 0 0 1 1.645-1.004c.48-.223.941-.477.992-.582.07-.102.308-.188.547-.188.222 0 .55-.066.722-.152.563-.29 1.489-.512 2.567-.629.601-.07 1.183-.223 1.32-.34.121-.137.274-.238.324-.238s.496-.188.993-.41c.5-.223 1.355-.496 1.886-.614.547-.101 1.403-.34 1.934-.527.515-.172 2.004-.445 3.308-.582 1.282-.137 2.84-.355 3.457-.492.618-.137 1.731-.375 2.485-.547.754-.152 1.523-.355 1.71-.46.876-.458 2.813-.802 5.055-.884 1.079-.05 2.243-.172 2.57-.273.786-.238 9.555-.39 15.927-.274 2.039.036 2.586.086 3.066.36.41.219.805.289 1.32.219.926-.102 2.313.222 3.563.8.512.239 1.129.446 1.351.446.243 0 .516.117.633.254.121.136.395.257.617.257s.414.067.414.168a.17.17 0 0 0 .168.172c.086 0 .567.188 1.063.41.496.22 1.098.457 1.336.528.242.066.531.273.652.441.121.188.375.324.547.324s.43.121.582.254c.137.137.36.258.496.258.137 0 .344.117.465.254.117.137.309.258.426.258.12 0 .308.117.445.273.121.133.36.219.531.188.192-.055.309 0 .309.152 0 .219 1.73 1.5 2.348 1.719.171.07.906.582 1.644 1.144a60.93 60.93 0 0 0 1.883 1.414c.96.664 1.32.989 1.32 1.192 0 .117.29.426.633.68.754.581 2.277 2.113 2.277 2.3 0 .07.106.137.223.137.309 0 1.629 1.637 2.777 3.441.29.426.72.903.973 1.059.242.152.617.543.824.867s.461.649.582.715c.293.188 1.301 1.621 1.301 1.86 0 .1.309.527.688.937.375.406.683.832.683.937 0 .118.121.239.258.305.137.05.258.188.258.29 0 .12.187.444.41.734.203.289.512.75.668 1.039.137.273.496.765.785 1.09.293.324.586.734.637.937.066.187.445.887.855 1.531.41.668.754 1.297.754 1.399 0 .273.531 1.312.79 1.515.1.086.34.547.511 1.024.156.46.445 1.054.617 1.312.188.274.29.543.238.613-.05.086.137.579.43 1.141.274.547.496 1.09.496 1.211 0 .137.086.238.172.238.102 0 .172.153.172.36 0 .304.992 2.59 1.645 3.761.136.258.289.684.324.938.101.734.582 2.726.875 3.562.46 1.348.754 7.598.39 8.262-.082.172-.152.957-.152 1.758 0 1.48-.582 6.61-.855 7.512-.086.273-.207.886-.274 1.363-.156 1.176-.738 2.984-1.113 3.476-.192.223-.328.477-.328.563s-.153.477-.325.867c-.171.395-.445 1.008-.582 1.348-.156.36-.359.648-.445.648-.101 0-.187.117-.187.254s-.07.258-.137.258c-.086 0-.223.152-.309.324-.136.27-1.472 1.805-2.894 3.336-.192.207-.719.649-1.2.988-.464.344-1.132.856-1.456 1.145-1.063.937-3.204 2.555-3.375 2.555-.102 0-.309.152-.477.34-.172.207-.43.308-.55.273-.118-.05-.223-.035-.223.05 0 .087-.274.274-.598.426-.328.153-.602.375-.602.497 0 .117-.203.304-.476.406-.258.12-.926.597-1.492 1.074-.547.461-1.149.902-1.32.953-.169.05-.305.172-.305.258s-.141.152-.293.152c-.325.016-.907.375-.907.578 0 .051-.222.309-.5.563-.39.394-.476.613-.46 1.21.015.65.12.837.906 1.587l.89.832h1.422c1.442 0 1.973.172 2.469.836.223.289 1.402.152 2.004-.223.203-.137.77-.34 1.265-.457.497-.121 1.079-.394 1.32-.613.24-.223.512-.395.598-.395.157 0 1.903-1.293 2.641-1.941.152-.152.29-.238.29-.172 0 .05.257-.152.566-.426.289-.289.632-.527.734-.527.105 0 .36-.188.582-.426.207-.223.805-.664 1.305-.973.511-.304.921-.644.921-.765 0-.117.344-.528.774-.918.426-.395.77-.82.77-.957 0-.117.171-.356.359-.528 1.062-.851 2.383-2.164 2.383-2.351 0-.137.152-.324.34-.442.187-.12.343-.289.343-.359 0-.086.188-.305.43-.492.238-.188.598-.664.805-1.04.187-.394.41-.75.46-.8.07-.05.41-.547.754-1.11s.957-1.429 1.372-1.925c.41-.512.855-1.227.992-1.617.12-.39.48-1.192.789-1.79.308-.577.562-1.16.562-1.277 0-.101.242-.664.516-1.21.289-.547.512-1.243.512-1.516 0-.528.586-2.98.859-3.614.086-.187.223-1.48.324-2.863.086-1.379.239-2.605.324-2.726.497-.63.602-1.653.582-5.637-.015-2.234-.101-4.465-.187-4.941-.102-.477-.172-1.415-.152-2.063.03-1.773-.157-3.355-.532-4.465-.171-.543-.379-1.328-.445-1.754-.07-.425-.187-.886-.273-1.039-.07-.136-.172-.562-.223-.937-.156-1.227-.465-2.336-.773-2.778-.172-.238-.395-.836-.512-1.296-.121-.477-.344-1.157-.516-1.532-.531-1.191-.703-1.535-.855-1.789-.086-.137-.239-.496-.36-.765-.12-.293-.273-.633-.359-.77s-.242-.441-.344-.68c-.582-1.261-.77-1.617-.87-1.672-.087-.03-.141-.132-.141-.238 0-.203-.907-2.043-1.368-2.777-.172-.29-.328-.645-.328-.817-.015-.425-1.61-3.511-2.156-4.175-.531-.63-2.191-3.016-2.277-3.27-.121-.34-1.133-1.601-2.125-2.625-.461-.46-.82-.953-.82-1.105 0-.157-.5-.922-1.114-1.723-.617-.8-1.32-1.754-1.578-2.129-.238-.375-.512-.715-.582-.734-.086-.032-.152-.168-.152-.305s-.086-.238-.192-.238c-.101 0-1.3-1.11-2.652-2.473-1.356-1.363-2.535-2.469-2.637-2.469-.086 0-.172-.07-.172-.152 0-.223-1.078-1.281-1.336-1.332-.258-.031-.789-.457-1.695-1.395-.309-.324-.566-.511-.566-.425 0 .082-.07.066-.137-.02-.07-.101-.395-.375-.719-.594-.328-.222-.89-.668-1.25-.972-.344-.309-.703-.563-.805-.563-.191 0-1.699-1.004-1.972-1.293-.086-.12-.477-.293-.856-.41a4.842 4.842 0 0 1 -1.215-.633c-.293-.203-.632-.39-.773-.39-.137 0-.648-.274-1.145-.598-.496-.34-1.421-.766-2.054-.953-.637-.203-1.305-.461-1.508-.578-.207-.137-.79-.36-1.32-.512-.532-.152-1.012-.34-1.063-.426-.086-.136-1.25-.426-1.508-.375-.066.016-.41-.117-.754-.304-.359-.188-.77-.344-.906-.344-.152 0-.683-.102-1.2-.238-.51-.137-1.624-.29-2.483-.356-1.368-.105-9.075-.187-11.817-.121a15.197 15.197 0 0 1 -1.629-.05c-.324-.052-.699-.016-.836.066zm0 0"/><path d="m102.715 52.121c-.55.39-1.028.7-1.078.7-.328 0-1.782 2.113-1.782 2.59 0 .218-.12.577-.277.78-.223.325-.254.684-.168 1.79.05.769.082 1.91.082 2.539 0 1.347.363 2.285 1.254 3.222.836.883 2.48 1.547 2.926 1.207.121-.086.496-.203.86-.273.34-.067.632-.188.632-.27 0-.101.172-.172.395-.172.203 0 .683-.101 1.058-.238.738-.254.79-.375 1.27-2.402.101-.477.36-.989.566-1.16.254-.22.375-.528.41-1.192.051-.972.84-3.355 1.317-4.039.445-.629.363-1.125-.305-1.855-.738-.801-2.348-1.551-3.547-1.637a61.559 61.559 0 0 1 -1.766-.168c-.804-.105-.921-.07-1.847.578zm-27.492 7.375c-.254.258-.496.293-2.004.324-1.145.02-1.867.258-2.45.785-.117.122-.289.223-.374.223-.274 0-.72.902-1.047 2.129-.547 2.078-.305 3.953.789 6.34.136.289.258.578.258.644 0 .051.222.446.511.836.38.563.617.75.977.75.566.016 2.11-.441 2.11-.629 0-.07.46-.07 1.027-.02.562.052 1.128.036 1.25-.034.12-.067.343-.133.511-.133.703 0 1.133-1.094 1.406-3.496.137-1.227.461-2.504.72-2.895.12-.187.222-.683.222-1.11 0-.425.07-.85.156-.952.41-.426.36-.903-.156-1.48-.977-1.126-3.305-1.876-3.906-1.282zm56.523 11.215c-.207.082-.91.203-1.543.27-.633.05-1.902.289-2.808.511-.907.223-1.954.41-2.313.41-.36.016-1.336.168-2.191.356-.84.187-1.797.36-2.125.344-.325 0-.786.101-1.028.218-.238.121-.957.274-1.593.325-.633.07-1.336.222-1.54.359-.222.137-.91.34-1.543.46-.648.118-1.164.27-1.164.34 0 .067-.308.239-.703.391-.84.34-2.312.496-6.492.7-1.078.05-2.191.136-2.465.187-.582.121-5.91.152-6.027.035-.035-.05-.445-.02-.89.067-.446.086-1.696.187-2.778.222-3.457.137-4.18.223-5.238.578-.582.188-1.336.36-1.715.375a8.28 8.28 0 0 0 -1.438.239c-.43.12-1.3.308-1.968.425-.653.122-1.32.29-1.457.36-.497.238-2.688.867-2.93.816-.137-.031-.977.121-1.867.34-1.696.41-4.52.684-7.106.7-1.011.019-1.699.1-1.972.257-.239.137-.7.238-1.043.254-.344 0-.72.121-.84.258-.121.133-.309.238-.41.238-.106-.02-.309.016-.446.067s-.91.222-1.715.374c-1.695.34-3.68 1.075-4.863 1.825-.703.46-1.043.543-2.398.664-1.73.136-2.5.289-2.5.511 0 .067-.274.426-.598.782-.637.699-1.113 1.55-1.113 1.996 0 .152-.121.476-.278.7-.136.218-.238.542-.222.714.02.168 0 .426-.067.562-.238.645-.257 1.157-.035 1.79.137.374.344 1.277.465 1.992.102.734.254 1.328.324 1.328.051 0 .203.258.325.547.12.304.324.78.445 1.074.12.27.258.8.324 1.14.055.356.172.649.258.649.105 0 .172.187.172.406 0 .223.12.633.258.903.136.257.445.921.683 1.449.223.547.48.988.567.988.238 0 .753 1.04.667 1.383-.171.664 5 5.45 6.938 6.437 1.008.512 2.156 1.414 2.875 2.266.395.445.96.957 1.25 1.094.309.152.602.355.652.441.051.086.239.172.395.203.172.02.36.121.41.207.188.254 1.61 1.192 2.262 1.496.324.157.789.395 1.027.532.238.136.598.254.82.254s.551.085.723.171c.223.118.36.118.426 0 .07-.101.258-.136.43-.086.187.051.804.016 1.386-.085.79-.137 1.149-.305 1.387-.614.187-.222.496-.41.703-.41.598 0 1.746.461 1.797.719.02.117.273.324.531.441.293.137.551.39.617.664.051.258.274.7.48.973.204.289.345.527.31.527-.051 0 .035.188.187.426.207.324.238.629.152 1.277-.066.477-.05 1.125.035 1.45.07.324.122 3.629.106 7.328-.02 3.695-.035 7.035-.035 7.41-.02 4.07.289 6.883.992 8.773.156.426.36 1.008.445 1.313.086.308.274.766.41 1.023.137.254.258.578.258.7 0 .375.547 1.445.89 1.753.173.153.31.34.31.426s.187.305.43.477c.237.172.425.426.425.547 0 .136.07.238.137.238.07 0 .273.219.43.512.171.289.429.507.566.507s.238.106.203.208c-.067.355.379 1.019 1.098 1.703.375.359.734.648.789.648.05 0 .39.254.785.563.875.68 1.219.851 2.844 1.328.703.203 1.335.46 1.406.562.066.102.136.117.136.051 0-.07.36.066.786.305.582.324 1.011.425 1.664.41.496-.016 1.164.101 1.507.258.461.183 1.282.27 3.083.289 1.351.015 2.859.03 3.32.05.976.016 3.308-.394 3.445-.613.05-.07.34-.137.633-.137.309 0 .89-.187 1.3-.425.395-.239.876-.426 1.063-.426.172 0 .48-.07.703-.172.223-.086.72-.238 1.114-.34.394-.101.82-.273.941-.39.309-.293 1.113-.633 1.508-.633.172 0 .547-.188.82-.426.293-.238.582-.426.688-.426.086 0 .203-.117.273-.254.05-.136.188-.258.324-.258.121 0 .41-.203.653-.44.222-.24 1.113-.974 1.953-1.602 1.422-1.075 4.367-3.903 4.367-4.192 0-.07.223-.324.496-.598.274-.253.633-.75.79-1.074.167-.34.359-.613.444-.613.102 0 .223-.137.29-.305.343-.851 1.351-2.234 1.968-2.676.551-.41.79-.75 1.098-1.601.223-.613.531-1.262.703-1.45.41-.492.719-1.074.719-1.363 0-.117.137-.27.308-.304.274-.086.72-.82 1.23-2.098.587-1.43.876-2.246 1.27-3.578.274-.852.547-1.668.633-1.82.086-.172.156-.532.156-.801 0-.293.153-.77.34-1.094.223-.355.414-1.14.516-1.992.086-.766.223-1.48.309-1.602.203-.238.906-2.113.976-2.574.102-.613.29-2.621.36-3.883a74.19 74.19 0 0 1 .171-2.336c.168-1.703.137-2.367-.172-3.66-.171-.668-.343-1.312-.394-1.449a4.54 4.54 0 0 1 -.156-.598 34.501 34.501 0 0 0 -.41-1.875c-.204-.851-.41-1.718-.461-1.957-.051-.238-.207-.582-.309-.77-.121-.187-.395-.831-.617-1.445-.223-.613-.531-1.261-.703-1.433-.153-.168-.254-.39-.203-.477.101-.152-.618-1.328-.805-1.328-.055 0-.207-.324-.344-.734-.121-.39-.36-.867-.531-1.04-.395-.44-.395-.695.035-1.124.188-.188.531-.766.77-1.293.222-.512.683-1.262 1.011-1.653.325-.39.598-.765.598-.851 0-.07.05-.29.086-.512.035-.203.172-1.11.273-1.992.121-.887.274-1.707.38-1.824.359-.446.804-2.606 1.163-5.676.274-2.195.29-2.316.48-3.492.087-.563.118-1.278.087-1.582-.055-.293.03-.906.168-1.364.242-.734.53-2.71.515-3.527-.015-1.125-.207-1.55-.992-2.25-.445-.41-.941-.734-1.098-.734-.152 0-.359-.067-.445-.153-.445-.425-3.527-.664-4.332-.355zm-19.75 28.621c.703.106 1.406.293 1.543.41.152.137.531.29.856.36.359.066.875.425 1.37.918.907.902 2.227 1.89 2.536 1.89.12 0 .222.106.222.238 0 .137.137.293.309.36.152.05.48.36.719.664.238.324.633.633.906.683.258.051.465.204.465.34 0 .137.101.325.223.39.53.325 4.52 4.942 4.898 5.657.117.238.324.563.445.7.34.41 1.13 2.538 1.473 3.917.172.7.394 1.586.496 1.961s.188.938.172 1.262c0 .305.066.648.152.766.242.289.137 3.34-.136 3.816-.122.223-.239.684-.274 1.023-.137 1.192-.566 2.93-.941 3.696-.207.426-.325.887-.274 1.023s.031.254-.05.254c-.07 0-.243.324-.364.719-.254.867-.46 1.414-.785 2.059-.137.273-.242.597-.242.734s-.067.238-.168.238c-.086 0-.172.121-.172.254 0 .36-.637 1.57-.89 1.738-.122.07-.583.664-1.012 1.332-1.098 1.633-2.895 3.543-4.16 4.38-.567.39-1.336.952-1.68 1.257-.36.324-.84.613-1.078.684-.243.05-.43.152-.43.238 0 .238-1.336.715-1.695.598-.207-.055-.36-.036-.36.05 0 .22-1.937.75-2.98.817-.465.035-1.3.137-1.852.238-.547.102-1.164.137-1.336.086-.187-.07-.34-.05-.34.035 0 .153-2.433.203-2.57.051-.05-.05-.668-.238-1.37-.395l-2.056-.492c-.43-.101-.96-.203-1.199-.222-.238-.016-.789-.204-1.234-.391-.445-.203-.856-.375-.906-.375-.461 0-3.168-2.488-3.168-2.914 0-.102-.207-.441-.465-.75-.735-.852-.992-1.191-1.043-1.43-.016-.101-.324-.902-.668-1.773-.653-1.653-.79-2.52-1.012-6.711-.05-1.043-.152-2.113-.223-2.352-.05-.258-.05-1.093.036-1.84.187-1.976.293-3.683.359-5.66.035-.933.102-1.906.187-2.18.07-.253.055-.562-.03-.68-.106-.105-.192-1.194-.192-2.401-.031-2.028-.254-3.512-.547-3.512-.066 0-.172-.29-.223-.649-.187-1.14-.547-2.214-.855-2.554-.156-.172-.293-.39-.293-.492 0-.106-.223-.426-.512-.735-.273-.308-.516-.613-.516-.68 0-.085-.203-.324-.46-.546-.72-.614-.942-1.09-.805-1.739.086-.492.187-.597.805-.765.394-.121 1.027-.223 1.402-.258.789-.067 2.828-.578 3.086-.781.101-.07.36-.172.597-.223s1.012-.309 1.731-.598c1.129-.425 1.988-.543 2.758-.39.203.035.617 1.074.926 2.3.187.75.546 1.567.992 2.215 1.18 1.739 1.351 2.23 1.402 4.004.035.887.14 1.688.242 1.79.086.085.172.34.172.542 0 .614.188.922.684 1.176.906.461 2.074.785 2.449.668.46-.137 1.148-.734 1.148-1.008 0-.101.426-.578.942-1.055.617-.582.941-1.023.941-1.277 0-.222.121-.597.258-.87.273-.544.598-2.13.598-3 0-.34.172-.919.379-1.294.324-.613.359-.902.324-2.95-.035-1.956 0-2.331.258-2.605.171-.187.41-.289.566-.238.152.035.856.152 1.54.254zm0 0"/></svg>