<svg viewBox="0 0 72 72" xmlns="http://www.w3.org/2000/svg"><path d="M41.371 12.133c-.047.031-.324.058-.617.062-.961.02-3.07.137-3.629.2-.305.03-.66.078-.805.09a9.15 9.15 0 0 0-.738.132c-.262.055-.61.133-.77.164-.16.024-.417.09-.578.13-.21.054-.425.089-.644.109-.192.02-.38.054-.414.09a.324.324 0 0 1-.188.054c-.07 0-.215.027-.32.059-.11.043-.414.097-.668.14-.258.047-.484.106-.5.137-.023.027-.098.055-.176.055s-.27.035-.43.086c-.445.14-1.222.304-1.277.273-.035-.023-.199.035-.367.133-.29.156-.793.3-1.293.387-.113.015-.21.058-.21.09s-.095.054-.212.054c-.113 0-.246.035-.285.074-.066.067-.176.121-1.219.551-.25.11-.597.274-.77.379-.167.102-.48.27-.695.367-.21.102-.41.223-.433.274a.178.178 0 0 1-.145.09c-.043 0-.093.019-.11.046-.003.032-.241.16-.51.301-.278.137-.5.27-.5.297 0 .023-.079.082-.177.121-.226.082-.367.172-.699.438-.14.109-.387.27-.531.351a5.005 5.005 0 0 0-.887.578c-.222.176-.418.309-.437.309-.07 0-.5.355-.649.527-.039.043-.207.2-.379.34-.168.14-.343.297-.394.336a.296.296 0 0 1-.18.082c-.055 0-.101.04-.101.09 0 .047-.137.187-.293.305-.164.12-.407.32-.551.445-.14.129-.344.305-.461.387-.11.082-.617.566-1.125 1.066-.504.508-.93.918-.95.918-.077 0-1.015 1.008-1.199 1.297a4.277 4.277 0 0 1-.417.535c-.11.102-.208.219-.208.242 0 .028-.062.117-.148.196-.277.265-.812.93-.812 1 0 .039-.024.07-.047.07-.032 0-.121.11-.211.238-.09.129-.239.328-.336.43-.102.11-.18.23-.18.277 0 .04-.05.09-.11.11-.109.039-.64.77-.738 1.015-.023.063-.07.113-.101.113-.027 0-.102.11-.16.243a2.357 2.357 0 0 1-.367.527c-.141.156-.258.312-.258.348 0 .039-.055.144-.13.234-.066.09-.124.21-.124.27 0 .062-.188.48-.414.93-.524 1.046-.809 1.652-.809 1.734a.89.89 0 0 1-.094.25c-.054.105-.082.246-.058.32.02.078.004.164-.031.187-.04.02-.059.07-.036.102.02.039-.003.117-.054.176-.149.172-.313.527-.274.59.02.039 0 .14-.05.238-.079.144-.231.937-.25 1.305 0 .05-.083.351-.188.664-.184.574-.184.578-.2 2.343-.003 1.91.009 2.258.13 2.407.047.05.078.12.07.144a.389.389 0 0 0 .02.156c.097.262.187.66.156.688-.02.02 0 .098.035.172.047.07.086.215.09.308.008.09.058.262.117.38a.91.91 0 0 1 .105.288c0 .055.192.47.434.938.238.469.469 1.015.52 1.207.046.195.117.383.164.418.035.031.109.18.152.32.11.328.285.684.387.793.039.043.078.125.078.172a.17.17 0 0 0 .09.145c.043.023.101.132.12.242.02.101.044.234.06.293.011.058.124.21.261.355.129.133.238.274.238.317.004.082.23.351.301.351.027 0 .18.149.336.328.152.18.371.364.48.41.243.102.5.368.473.489-.012.043.086.132.207.199.121.062.317.191.426.289.11.102.242.203.293.242.055.035.219.16.375.274.18.14.344.21.488.21.114 0 .223.036.235.079.027.054.039.054.039.004.008-.079.484.128.633.277.05.043.125.07.18.05.054-.027.093 0 .093.063 0 .059.047.106.098.106.05 0 .148.054.21.132.07.075.169.122.211.118.13-.02.325.07.497.218.078.07.14.11.14.082 0-.027.11.032.238.122.133.09.27.16.31.16.038 0 .198.144.358.316.25.274.59.45.778.406.027-.007.133.07.242.172.117.102.273.188.355.188.082-.008.243.082.36.191.328.3.687.45 1.308.52l.778.097c.11.012.265.055.347.102.278.148 1.735.308 1.735.191 0-.031.097-.039.21-.023.11.02.337-.008.497-.067.16-.054.328-.101.37-.101.048 0 .15-.059.227-.133.27-.266.418-.316.856-.34.324-.023.543-.078.84-.226.219-.11.41-.2.43-.2s.136-.109.261-.246c.246-.261.285-.468.133-.757a.846.846 0 0 1-.098-.293.72.72 0 0 0-.039-.207c-.047-.122-.578-.387-.664-.333-.031.02-.09-.007-.133-.058a.362.362 0 0 0-.23-.098c-.078 0-.168-.031-.188-.062-.023-.04-.136-.11-.257-.157-.114-.05-.23-.148-.25-.214-.024-.075-.16-.176-.297-.235-.137-.054-.254-.129-.254-.16 0-.058-.067-.07-.356-.062-.632.011-.754 0-.859-.098-.063-.059-.16-.102-.219-.102s-.12-.027-.14-.066c-.02-.031-.102-.063-.18-.063a.557.557 0 0 1-.29-.105.382.382 0 0 0-.308-.062c-.09.023-.156.015-.156-.028 0-.031-.043-.062-.094-.062s-.097-.028-.097-.063-.082-.105-.184-.164c-.305-.152-.613-.469-.687-.691-.047-.14-.118-.211-.227-.227a.545.545 0 0 1-.219-.082.238.238 0 0 0-.14-.058c-.04 0-.188-.07-.317-.16-.23-.16-.453-.16-.238 0 .066.046.098.109.066.136-.023.024-.043.012-.043-.035 0-.043-.058-.055-.156-.031-.09.02-.2.015-.242-.012a.928.928 0 0 0-.317-.07 1.856 1.856 0 0 1-.484-.149c-.133-.07-.312-.129-.39-.129-.083 0-.145-.039-.145-.09s-.098-.167-.215-.257c-.11-.094-.234-.192-.27-.223a1.316 1.316 0 0 0-.238-.11c-.09-.03-.328-.199-.523-.374-.305-.27-.363-.352-.363-.532 0-.152-.032-.21-.102-.21-.113 0-.492-.2-.523-.278-.016-.023-.055-.047-.086-.047s-.207-.144-.383-.32c-.18-.18-.363-.32-.406-.32-.118 0-.489-.36-.489-.477 0-.055-.035-.102-.066-.102-.102 0-.45-.332-.45-.43 0-.046-.054-.116-.12-.16-.063-.038-.11-.117-.09-.16.02-.054-.02-.128-.082-.18-.075-.05-.098-.097-.075-.097.067 0-.261-.586-.359-.656a.205.205 0 0 0-.152-.004c-.047.02-.082 0-.082-.04 0-.038.031-.07.07-.07.098 0 .031-.316-.129-.628-.07-.149-.137-.313-.137-.356 0-.05-.097-.191-.218-.32-.114-.129-.23-.309-.25-.41a1.89 1.89 0 0 0-.14-.489.562.562 0 0 1-.005-.27c.024-.089.012-.163-.02-.163-.035 0-.097-.164-.136-.371-.04-.2-.09-.41-.11-.461a1.12 1.12 0 0 1-.05-.278.527.527 0 0 0-.098-.269c-.039-.043-.09-.328-.11-.625-.038-.574-.1-.82-.218-.82-.07 0-.043-1.235.047-1.797.02-.121.043-.399.058-.614.02-.246.059-.496.122-.738.05-.191.078-.379.058-.402-.02-.035-.008-.125.031-.192.102-.234.25-.636.34-.945.043-.16.168-.445.262-.633.105-.191.176-.379.168-.414-.008-.047.066-.164.164-.265.094-.102.172-.235.172-.301 0-.07.023-.121.058-.121.032 0 .07-.07.094-.149.031-.132.278-.492.508-.75.227-.254.61-.824.578-.863-.027-.02-.004-.039.04-.039.109 0 .28-.18.237-.242-.02-.031.07-.149.188-.262.121-.117.223-.258.223-.316 0-.059.37-.5.828-.977 1.039-1.086 1.035-1.078 1.035-1.156 0-.04.043-.082.094-.102.054-.027.097-.07.097-.105 0-.07.516-.567.59-.567.027 0 .05-.035.05-.082.009-.09.317-.453.356-.418.047.047.805-.68.805-.77 0-.042.031-.077.063-.077s.12-.047.187-.113c.332-.31 1.07-.915 1.117-.915.012 0 .188-.152.371-.343.192-.188.414-.368.489-.387.078-.023.226-.14.336-.266.109-.12.472-.41.82-.64.348-.223.676-.45.726-.492.051-.047.11-.079.133-.075.024.008.149-.101.285-.242.141-.137.305-.25.383-.25.07 0 .25-.105.406-.226a2.33 2.33 0 0 1 .63-.32c.238-.071.425-.173.566-.329.246-.258.5-.41.707-.41.07 0 .262-.102.422-.23.16-.13.437-.297.617-.38.18-.085.355-.18.371-.218.027-.04.117-.07.207-.07a.737.737 0 0 0 .27-.06c.21-.108.558-.19.964-.237.223-.028.442-.082.493-.13.046-.05.105-.09.125-.09.015 0 .183-.07.37-.151.231-.098.466-.176.708-.23.203-.044.523-.134.726-.2.192-.067.75-.168 1.239-.223a14.41 14.41 0 0 0 1.296-.183c.23-.051.649-.141.93-.207.285-.055.574-.133.645-.172.328-.176 1.054-.301 1.894-.332.403-.024.84-.067.961-.106.297-.09 3.586-.148 5.977-.101.765.011.968.03 1.148.132.152.086.3.11.496.086.344-.039.863.082 1.332.301.196.09.426.168.512.168.09 0 .191.043.238.098.063.058.145.09.23.094.083 0 .153.027.153.066 0 .031.027.062.066.062.032 0 .211.07.395.153a4.3 4.3 0 0 0 .504.199c.09.027.195.106.242.168a.28.28 0 0 0 .207.121c.063 0 .16.047.219.098.05.05.133.097.183.097s.13.043.176.098c.043.05.114.094.16.094.043 0 .118.047.168.105.051.051.125.078.2.067.07-.02.113 0 .113.058 0 .086.648.567.879.649.066.027.344.218.617.433.277.215.598.453.707.532.36.25.496.37.496.449 0 .047.11.16.238.258.282.218.852.796.852.867 0 .023.039.05.086.05.113 0 .61.618 1.039 1.297.11.16.27.34.367.399.09.058.23.207.309.328.074.121.172.242.215.27.113.07.492.609.492.699 0 .039.113.199.254.351.14.157.257.317.257.356 0 .047.047.09.098.117.05.02.098.07.098.11 0 .042.066.163.152.273.078.11.192.285.25.394.05.102.188.285.297.41.11.122.215.278.238.352.024.07.164.336.32.578.153.254.282.488.282.528 0 .105.2.496.297.574.039.031.129.203.191.383.059.175.168.398.23.496.07.101.11.207.09.23-.02.031.055.219.16.43.106.203.188.41.188.457 0 .05.031.09.066.09s.063.058.063.132c0 .118.375.977.617 1.422.051.094.11.254.121.352.04.277.219 1.027.328 1.344.172.507.282 2.863.149 3.113-.035.066-.059.363-.059.664 0 .559-.219 2.492-.32 2.832-.047.168-.082.34-.106.512-.054.445-.273 1.125-.414 1.312-.074.082-.125.18-.125.211s-.054.18-.12.328c-.067.149-.169.38-.22.508-.058.133-.136.242-.167.242-.04 0-.07.047-.07.098s-.024.094-.052.094c-.03 0-.082.058-.117.125-.05.101-.55.68-1.086 1.258-.066.078-.27.246-.445.37a8.668 8.668 0 0 0-.547.434c-.398.352-1.203.961-1.265.961-.04 0-.118.059-.18.13-.067.077-.16.116-.207.1-.043-.015-.082-.011-.082.02 0 .035-.102.106-.227.16-.12.059-.222.14-.222.188 0 .043-.079.117-.18.156-.098.043-.348.223-.559.402-.207.176-.433.34-.496.36s-.117.062-.117.097c0 .032-.05.055-.11.055-.12.008-.335.145-.335.223 0 .02-.086.113-.188.21-.148.15-.183.231-.176.458.008.242.047.312.34.597l.336.313h.535c.536 0 .739.066.922.312.086.114.528.059.754-.082.074-.05.29-.129.473-.171.187-.047.406-.149.496-.231s.191-.148.226-.148c.055 0 .711-.489.985-.73.058-.06.113-.095.113-.067 0 .02.094-.059.211-.16.11-.11.234-.2.277-.2.04 0 .133-.07.215-.16a2.9 2.9 0 0 1 .492-.367c.192-.117.344-.242.344-.29 0-.042.13-.198.29-.347.16-.144.288-.308.288-.36 0-.042.063-.132.137-.198.395-.32.89-.813.89-.887 0-.05.06-.121.13-.164.07-.047.128-.11.128-.137 0-.031.07-.117.16-.183a1.56 1.56 0 0 0 .301-.395 2.07 2.07 0 0 1 .176-.3c.024-.02.153-.208.281-.419.13-.21.36-.539.516-.726.152-.192.32-.461.371-.61.047-.148.18-.449.293-.675.117-.22.215-.434.215-.48 0-.04.09-.25.191-.458.11-.203.196-.469.196-.57 0-.2.215-1.125.32-1.36.031-.074.082-.562.121-1.082.031-.52.09-.98.121-1.027.188-.238.227-.621.219-2.125-.008-.844-.04-1.684-.07-1.863a4.256 4.256 0 0 1-.059-.778c.016-.668-.059-1.265-.2-1.683a6.267 6.267 0 0 1-.163-.66 1.737 1.737 0 0 0-.106-.395 1.674 1.674 0 0 1-.082-.351c-.058-.461-.176-.88-.289-1.047-.066-.09-.148-.317-.191-.489a4.375 4.375 0 0 0-.196-.578c-.199-.449-.261-.578-.32-.675a2.603 2.603 0 0 1-.133-.286 2.449 2.449 0 0 0-.136-.289 3.964 3.964 0 0 1-.13-.258c-.218-.476-.288-.613-.327-.628a.099.099 0 0 1-.051-.09c0-.078-.34-.774-.516-1.047-.062-.113-.12-.246-.12-.309-.005-.16-.602-1.324-.81-1.574-.199-.238-.82-1.137-.855-1.234-.043-.13-.422-.606-.793-.989-.176-.175-.309-.359-.309-.418s-.187-.347-.417-.648a23.584 23.584 0 0 1-.59-.805c-.094-.14-.196-.27-.223-.273-.031-.016-.055-.067-.055-.117 0-.051-.03-.09-.07-.09s-.488-.418-.996-.934c-.508-.511-.953-.93-.992-.93-.032 0-.063-.023-.063-.054 0-.086-.406-.485-.5-.504-.097-.012-.297-.172-.636-.527-.118-.121-.211-.192-.211-.16s-.028.027-.055-.004c-.024-.04-.145-.145-.266-.227s-.336-.25-.468-.367c-.13-.113-.266-.211-.301-.211-.075 0-.64-.38-.742-.488-.032-.043-.18-.11-.32-.153a1.819 1.819 0 0 1-.458-.238c-.11-.078-.238-.148-.289-.148s-.242-.102-.43-.227-.53-.29-.77-.356a4.026 4.026 0 0 1-.565-.222c-.075-.051-.297-.133-.497-.192-.195-.054-.379-.128-.394-.16-.031-.05-.469-.16-.567-.14-.023.007-.156-.047-.28-.118-.138-.07-.294-.128-.345-.128-.054 0-.253-.036-.449-.09-.191-.051-.61-.11-.93-.133-.511-.04-3.406-.07-4.433-.047-.203.008-.406 0-.61-.02-.12-.015-.261-.003-.312.028zm0 0"/><path d="M38.52 19.648c-.208.145-.387.262-.407.262-.12 0-.668.797-.668.977a.589.589 0 0 1-.101.297c-.086.12-.098.253-.067.671.02.29.032.723.032.957 0 .508.136.86.472 1.215.313.336.93.586 1.098.457a1.11 1.11 0 0 1 .32-.105c.13-.024.239-.067.239-.102 0-.039.062-.062.144-.062.078 0 .258-.04.402-.09.274-.098.293-.14.473-.906.04-.18.133-.371.211-.438.098-.082.145-.199.156-.449.02-.367.313-1.266.492-1.523.168-.235.137-.422-.113-.7-.277-.3-.883-.582-1.328-.617a17.427 17.427 0 0 1-.664-.062c-.3-.04-.348-.028-.691.218zM28.21 22.43c-.097.093-.187.11-.753.12-.43.005-.7.095-.918.298-.047.043-.11.082-.14.082-.106 0-.27.34-.391.8-.207.786-.117 1.493.293 2.391.05.11.097.219.097.246 0 .02.082.164.192.313.14.215.23.28.367.28.211.009.79-.163.79-.233 0-.028.175-.028.386-.008.21.02.422.011.469-.012a.412.412 0 0 1 .191-.05c.266 0 .426-.41.527-1.317.051-.465.172-.945.27-1.094.043-.07.082-.258.082-.418s.027-.32.058-.36c.157-.16.137-.34-.054-.558-.367-.422-1.242-.707-1.465-.48zm21.196 4.226c-.078.032-.343.074-.578.102-.238.02-.715.11-1.055.191-.34.086-.734.156-.867.156-.133.004-.5.063-.824.133-.312.07-.672.137-.797.13a.984.984 0 0 0-.383.085c-.09.043-.359.102-.597.121-.239.024-.5.082-.578.133-.086.05-.34.129-.579.176-.246.043-.437.101-.437.129 0 .023-.113.09-.262.144-.316.13-.867.188-2.433.266-.407.02-.825.05-.926.07-.219.047-2.215.059-2.262.012-.012-.02-.168-.004-.332.027-.168.032-.637.07-1.043.082-1.297.051-1.566.082-1.965.219-.218.07-.5.137-.64.14a2.865 2.865 0 0 0-.543.09 7.694 7.694 0 0 1-.739.16c-.242.048-.492.11-.543.137-.187.09-1.011.329-1.101.305-.05-.008-.363.047-.7.133-.632.152-1.695.254-2.663.262-.38.007-.637.039-.739.097-.09.051-.265.09-.39.094-.13 0-.27.047-.317.098-.043.05-.117.09-.152.09a.4.4 0 0 0-.168.023c-.05.02-.34.086-.645.144-.632.13-1.378.403-1.824.688-.262.172-.39.207-.898.25-.649.05-.938.11-.938.191 0 .028-.101.16-.226.297-.235.262-.414.586-.414.75 0 .059-.047.18-.106.266a.52.52 0 0 0-.082.27.47.47 0 0 1-.023.21.919.919 0 0 0-.016.676c.05.14.129.48.172.75.039.277.098.5.125.5.02 0 .078.098.121.207.047.113.121.293.168.403.043.105.094.304.121.433.02.133.063.242.098.242.039 0 .062.07.062.153 0 .086.043.238.098.343.05.094.168.348.258.547.082.203.18.371.21.371.09 0 .282.391.25.52-.066.25 1.876 2.055 2.602 2.43.38.191.809.53 1.078.851.149.168.36.36.47.414.116.055.226.133.241.164.024.035.09.067.149.078.066.004.136.043.156.079.07.093.602.449.848.562.12.059.293.148.382.2.094.05.227.097.313.097.082 0 .203.031.266.062.086.047.136.047.164 0 .023-.035.093-.05.16-.03.07.019.3.007.52-.032.296-.05.429-.117.519-.23.07-.087.187-.157.262-.157.226 0 .656.176.675.27.008.047.106.12.2.168.109.05.207.148.23.25.023.097.106.261.18.367.078.11.129.2.117.2-.02 0 .012.07.07.16.078.12.09.238.059.48-.028.18-.02.425.012.547.027.12.046 1.367.039 2.761s-.012 2.653-.012 2.793c-.008 1.54.11 2.598.371 3.309.059.16.137.379.168.496.031.113.102.289.152.387.051.093.098.215.098.261 0 .141.207.543.332.66.066.06.117.13.117.165 0 .03.07.113.16.175.09.067.16.16.16.207 0 .051.028.09.055.09.024 0 .102.086.156.192.067.109.164.195.215.195s.09.039.078.074c-.027.137.141.387.41.645.141.133.274.242.294.242.023 0 .148.098.296.21.329.259.457.325 1.067.505.262.078.5.172.527.21.024.04.05.048.05.02 0-.027.138.028.294.117.223.122.383.16.625.153.187-.008.437.039.566.097.172.07.48.102 1.157.106.507.008 1.074.016 1.246.023.367.004 1.238-.148 1.289-.234.02-.023.129-.05.238-.05.117 0 .336-.071.488-.161.149-.09.328-.16.399-.16.066 0 .18-.024.265-.067.082-.03.27-.085.414-.125.149-.039.309-.105.356-.148.113-.11.414-.238.562-.238.067 0 .207-.07.313-.16.105-.09.215-.16.254-.16.031 0 .078-.047.101-.098.02-.051.07-.098.125-.098.043 0 .153-.074.243-.164.082-.09.417-.367.73-.605.535-.403 1.64-1.47 1.64-1.579 0-.027.083-.12.188-.226a1.71 1.71 0 0 0 .293-.402c.066-.133.137-.23.168-.23.04 0 .082-.056.11-.118.128-.32.507-.844.738-1.008.207-.156.293-.285.41-.605.086-.23.2-.473.265-.547.153-.184.27-.403.27-.512 0-.047.05-.105.113-.117.106-.031.27-.309.465-.79.215-.538.324-.847.473-1.347.105-.324.207-.629.238-.687a.845.845 0 0 0 .059-.305c0-.106.058-.285.129-.41.082-.133.156-.43.191-.75.031-.29.086-.559.117-.606.078-.09.34-.797.367-.968.04-.23.106-.989.133-1.465.012-.258.047-.649.063-.88.066-.644.054-.894-.063-1.382a8.565 8.565 0 0 0-.148-.543 2.37 2.37 0 0 1-.059-.227c-.012-.07-.074-.39-.152-.707-.078-.32-.153-.648-.172-.738a1.32 1.32 0 0 0-.117-.289 4.296 4.296 0 0 1-.23-.547c-.087-.23-.2-.472-.266-.539-.059-.062-.094-.148-.075-.18.04-.058-.23-.5-.304-.5-.02 0-.074-.12-.125-.277-.047-.148-.137-.328-.203-.39-.145-.168-.145-.266.015-.422.07-.075.2-.29.29-.493.1-.218.226-.43.378-.62.121-.15.223-.29.223-.321 0-.027.02-.11.035-.195.012-.075.063-.418.102-.75.043-.336.101-.64.14-.688.137-.164.305-.98.438-2.137.101-.832.11-.875.18-1.316a2.86 2.86 0 0 0 .03-.601c-.019-.106.016-.336.067-.512.09-.278.2-1.02.191-1.328-.007-.426-.078-.586-.37-.848-.169-.156-.356-.277-.415-.277a.256.256 0 0 1-.164-.059c-.168-.16-1.324-.25-1.625-.133zM42 37.446c.262.038.523.109.578.152.059.05.2.109.32.136.133.028.329.16.512.348.344.34.836.711.953.711.043 0 .082.039.082.09 0 .05.051.11.118.137.058.02.18.132.269.25.09.12.238.238.34.257.098.02.172.078.172.125 0 .055.039.125.086.149.199.125 1.695 1.863 1.836 2.133.043.09.12.21.168.265.129.153.421.957.55 1.477.067.261.149.597.188.738.039.14.07.356.062.477 0 .113.028.242.059.289.09.105.05 1.257-.05 1.437-.048.082-.09.254-.102.387-.051.45-.215 1.101-.356 1.39-.074.165-.12.336-.101.387.02.051.011.098-.02.098-.027 0-.09.121-.133.27a4.504 4.504 0 0 1-.297.777.823.823 0 0 0-.09.277c0 .047-.023.09-.066.09-.031 0-.062.043-.062.094 0 .133-.239.59-.332.656-.047.023-.223.25-.383.5-.41.617-1.082 1.336-1.559 1.652-.21.149-.5.36-.633.477-.132.121-.312.23-.402.254-.09.02-.16.058-.16.09 0 .09-.5.27-.637.222-.074-.015-.133-.008-.133.024 0 .082-.726.281-1.117.304-.176.016-.488.055-.695.09-.207.043-.438.055-.5.035-.07-.027-.13-.02-.13.012 0 .059-.91.078-.964.02-.02-.02-.25-.09-.512-.149-.265-.062-.613-.148-.773-.187a5 5 0 0 0-.445-.082c-.09-.008-.297-.075-.465-.149s-.32-.14-.34-.14c-.176 0-1.188-.938-1.188-1.098 0-.04-.078-.168-.175-.281-.274-.325-.371-.453-.391-.543-.008-.035-.121-.34-.25-.668-.246-.621-.297-.95-.383-2.531-.015-.391-.054-.793-.082-.883a3.632 3.632 0 0 1 .016-.696 35.5 35.5 0 0 0 .133-2.132c.015-.352.039-.72.07-.82.027-.098.02-.212-.012-.259-.039-.039-.07-.449-.07-.906-.012-.765-.098-1.324-.207-1.324-.024 0-.063-.105-.082-.242-.07-.43-.207-.836-.324-.965-.055-.063-.106-.145-.106-.184s-.082-.164-.195-.277c-.102-.117-.192-.23-.192-.258 0-.031-.074-.12-.171-.207-.274-.23-.356-.41-.305-.652.031-.188.074-.227.305-.29a3.43 3.43 0 0 1 .523-.097c.297-.027 1.063-.215 1.16-.293a.693.693 0 0 1 .223-.086c.09-.02.379-.117.648-.222.426-.16.746-.207 1.035-.149.075.012.23.402.348.867.07.282.203.59.371.832.442.657.508.844.528 1.512.011.332.05.637.09.676.03.031.062.125.062.203 0 .234.07.348.258.445.34.172.777.293.918.25.175-.05.43-.277.43-.379 0-.039.163-.218.355-.398.23-.219.351-.387.351-.48 0-.086.047-.227.098-.329.102-.207.223-.804.223-1.132 0-.13.066-.348.144-.489.121-.23.133-.34.121-1.11-.011-.741 0-.878.094-.983.066-.07.156-.11.215-.09.058.011.32.058.578.097zm0 0"/></svg>