<svg xmlns="http://www.w3.org/2000/svg" viewBox="0 0 512 512"><path d="M294.184 86.277c-.32.227-2.286.41-4.387.457-6.805.137-21.832.957-25.805 1.414-2.144.23-4.703.551-5.707.641-1.008.09-3.383.504-5.254.914-1.87.41-4.34.957-5.48 1.188-1.14.183-2.969.64-4.11.914-1.144.32-3.199.683-4.57.777-1.367.137-2.695.41-2.969.637-.226.23-.82.41-1.324.41-.5 0-1.508.183-2.281.414-.777.273-2.926.684-4.75 1.004-1.828.32-3.426.73-3.563.957-.136.183-.687.367-1.234.367-.547 0-1.918.274-3.059.64-3.152 1.005-8.68 2.145-9.09 1.919-.23-.137-1.417.273-2.605.957-2.055 1.097-5.617 2.148-9.18 2.742-.82.137-1.507.41-1.507.64 0 .227-.684.41-1.508.41-.82 0-1.735.227-2.008.5-.504.505-1.277.872-8.68 3.93-1.781.778-4.246 1.965-5.48 2.696-1.188.73-3.426 1.918-4.934 2.601-1.504.73-2.922 1.602-3.105 1.965-.18.367-.637.64-1.004.64-.32 0-.684.137-.778.321-.042.227-1.734 1.14-3.652 2.145-1.965.96-3.562 1.918-3.562 2.101 0 .184-.547.594-1.235.867-1.597.594-2.601 1.235-4.976 3.106-1.004.777-2.742 1.918-3.793 2.511-3.149 1.739-3.38 1.876-6.301 4.114-1.555 1.23-2.969 2.191-3.106 2.191-.503 0-3.562 2.512-4.613 3.746-.273.317-1.46 1.414-2.695 2.418-1.188 1.008-2.422 2.102-2.785 2.375-.32.32-.914.594-1.281.594-.41 0-.731.273-.731.64 0 .32-.957 1.325-2.102 2.15-1.14.866-2.875 2.28-3.878 3.194-1.008.914-2.47 2.149-3.29 2.743-.777.593-4.386 4.02-7.992 7.582-3.61 3.605-6.625 6.53-6.761 6.53-.547 0-7.215 7.169-8.54 9.224-.87 1.324-2.195 3.015-2.968 3.792-.778.73-1.465 1.551-1.465 1.735 0 .183-.457.824-1.05 1.37-1.962 1.919-5.798 6.622-5.798 7.126 0 .273-.14.504-.32.504-.23 0-.867.773-1.508 1.687-.64.914-1.691 2.332-2.375 3.063-.73.773-1.281 1.644-1.281 1.96 0 .278-.363.641-.774.778-.777.274-4.57 5.48-5.253 7.219-.184.453-.504.82-.73.82-.184 0-.731.778-1.142 1.735-.414.96-1.601 2.652-2.605 3.746-1.004 1.097-1.828 2.191-1.828 2.468 0 .274-.41 1.004-.91 1.641-.504.64-.914 1.508-.914 1.922 0 .453-1.325 3.422-2.926 6.621-3.742 7.445-5.754 11.738-5.754 12.332 0 .273-.32 1.05-.684 1.781-.367.73-.547 1.735-.41 2.282.137.55.043 1.144-.23 1.328-.274.136-.41.5-.227.73.137.274-.047.82-.414 1.23-1.047 1.235-2.191 3.747-1.918 4.204.137.273 0 1.004-.363 1.691-.547 1.05-1.645 6.668-1.781 9.27 0 .367-.594 2.511-1.325 4.75-1.324 4.066-1.324 4.113-1.418 16.672-.043 13.566.047 16.03.914 17.082.32.363.547.867.504 1.05-.046.227 0 .73.137 1.094.684 1.875 1.324 4.707 1.094 4.89-.137.137 0 .684.277 1.231.317.504.594 1.508.637 2.195.047.637.414 1.872.824 2.692.41.777.73 1.738.73 2.058 0 .364 1.372 3.333 3.106 6.668 1.691 3.332 3.332 7.215 3.7 8.586.32 1.372.82 2.696 1.14 2.97.273.226.777 1.276 1.098 2.28.777 2.332 2.007 4.844 2.738 5.622.277.316.55.91.55 1.23 0 .367.274.824.637 1.008.32.18.735.957.871 1.734.137.73.317 1.688.41 2.102.09.41.915 1.508 1.872 2.511.914.957 1.691 1.965 1.691 2.239.047.593 1.645 2.511 2.145 2.511.183 0 1.28 1.051 2.375 2.329 1.097 1.277 2.652 2.605 3.425 2.921 1.739.73 3.563 2.606 3.383 3.473-.094.32.594.961 1.461 1.414.867.457 2.238 1.371 3.012 2.059.777.73 1.738 1.46 2.101 1.734.368.227 1.555 1.14 2.649 1.918 1.281 1.004 2.469 1.508 3.473 1.508.824 0 1.597.273 1.691.547.18.41.273.41.273.047.047-.547 3.426.914 4.477 1.964.363.32.914.5 1.277.364.41-.184.684 0 .684.457 0 .41.32.73.687.73.364 0 1.051.41 1.508.961.5.5 1.188.867 1.508.82.91-.136 2.281.504 3.516 1.555.547.5 1.004.778 1.004.594 0-.184.777.227 1.691.867.957.64 1.918 1.14 2.191 1.14.274 0 1.414 1.005 2.559 2.24 1.781 1.964 4.2 3.198 5.527 2.878.18-.047.957.5 1.735 1.23.82.735 1.918 1.329 2.511 1.329.594-.047 1.735.593 2.559 1.367 2.328 2.148 4.887 3.199 9.316 3.699 2.286.277 4.75.594 5.528.687.777.09 1.87.41 2.465.73 1.964 1.052 12.332 2.192 12.332 1.372 0-.23.683-.277 1.507-.184.778.137 2.375-.046 3.516-.457 1.145-.41 2.332-.73 2.649-.73.32 0 1.05-.41 1.601-.961 1.918-1.871 2.969-2.238 6.074-2.418 2.328-.137 3.883-.55 5.98-1.602 1.555-.773 2.927-1.414 3.063-1.414.137 0 .957-.777 1.871-1.734 1.739-1.875 2.012-3.336.914-5.39-.363-.731-.683-1.692-.683-2.102 0-.41-.137-1.098-.274-1.461-.32-.867-4.113-2.742-4.707-2.375-.226.137-.636-.047-.957-.41-.32-.367-1.05-.688-1.644-.688-.551 0-1.188-.226-1.324-.457-.184-.273-.961-.773-1.829-1.094-.82-.367-1.644-1.05-1.78-1.554-.184-.5-1.141-1.235-2.102-1.645-1.004-.41-1.828-.914-1.828-1.14 0-.41-.458-.504-2.512-.457-4.52.09-5.387 0-6.117-.684-.457-.414-1.145-.73-1.555-.73-.41 0-.867-.184-1.004-.457-.137-.231-.73-.458-1.281-.458-.594 0-1.504-.32-2.055-.73-.637-.457-1.46-.64-2.191-.457-.641.18-1.098.09-1.098-.184 0-.23-.316-.457-.684-.457-.367 0-.683-.183-.683-.457 0-.226-.594-.73-1.324-1.14-2.149-1.098-4.34-3.336-4.891-4.934-.316-1.004-.82-1.508-1.598-1.598-.593-.093-1.277-.367-1.55-.593-.23-.23-.688-.41-1.008-.41-.274 0-1.325-.504-2.239-1.145-1.64-1.14-3.242-1.14-1.687 0 .457.32.684.777.457.96-.184.185-.32.09-.32-.23s-.41-.41-1.098-.226c-.637.137-1.414.09-1.734-.094-.32-.18-1.325-.453-2.239-.5-.914-.094-2.464-.594-3.425-1.05-.957-.505-2.239-.915-2.786-.915-.593 0-1.05-.273-1.05-.64 0-.364-.684-1.188-1.508-1.825-.778-.687-1.688-1.37-1.918-1.601-.274-.18-1.05-.547-1.692-.774-.636-.23-2.328-1.418-3.742-2.648-2.148-1.922-2.558-2.516-2.558-3.793 0-1.098-.23-1.508-.73-1.508-.825 0-3.52-1.414-3.747-1.965-.09-.18-.367-.316-.594-.316-.226 0-1.46-1.05-2.742-2.285-1.277-1.277-2.555-2.285-2.875-2.285-.824 0-3.472-2.555-3.472-3.38 0-.41-.227-.73-.458-.73-.73 0-3.195-2.375-3.195-3.058 0-.32-.41-.825-.867-1.145-.457-.273-.777-.82-.64-1.14.136-.368-.137-.914-.594-1.278-.504-.367-.684-.687-.504-.687.457 0-1.871-4.157-2.555-4.657a1.5 1.5 0 0 0-1.098-.046c-.32.136-.593 0-.593-.274 0-.273.226-.504.504-.504.683 0 .226-2.238-.915-4.476-.503-1.051-.96-2.192-.96-2.512 0-.363-.684-1.371-1.551-2.281-.825-.914-1.645-2.196-1.782-2.926-.32-1.598-.55-2.418-1.007-3.469-.18-.414-.18-1.281-.043-1.918.183-.64.09-1.144-.137-1.144-.23 0-.688-1.188-.961-2.649-.273-1.414-.64-2.922-.777-3.289-.137-.363-.317-1.23-.364-1.965-.046-.683-.367-1.55-.687-1.918-.274-.316-.637-2.328-.774-4.43-.273-4.109-.73-5.843-1.554-5.843-.504 0-.32-8.77.32-12.79.137-.866.32-2.831.41-4.339.094-1.508.504-3.883.867-5.254.368-1.367.551-2.695.415-2.875-.137-.23-.047-.867.226-1.371.73-1.644 1.781-4.523 2.422-6.715.32-1.14 1.187-3.152 1.871-4.476.73-1.371 1.234-2.696 1.188-2.97-.047-.32.457-1.14 1.14-1.87.688-.73 1.235-1.692 1.235-2.149 0-.5.183-.867.41-.867.23 0 .504-.5.687-1.05.227-.958 1.965-3.516 3.606-5.344 1.601-1.782 4.34-5.844 4.113-6.121-.184-.137-.047-.274.273-.274.778 0 2.008-1.277 1.692-1.734-.14-.227.5-1.051 1.324-1.871.867-.825 1.598-1.828 1.598-2.239 0-.414 2.648-3.562 5.89-6.945 7.399-7.719 7.356-7.672 7.356-8.219 0-.273.32-.593.683-.73.368-.184.684-.504.684-.73 0-.505 3.656-4.02 4.203-4.02.184 0 .367-.274.367-.594.043-.64 2.239-3.242 2.512-2.969.32.32 5.707-4.843 5.707-5.48 0-.32.23-.55.457-.55.23 0 .867-.364 1.324-.821 2.375-2.192 7.63-6.489 7.95-6.489.09 0 1.324-1.093 2.648-2.464 1.371-1.325 2.922-2.602 3.473-2.739.546-.183 1.597-1.007 2.375-1.875.773-.867 3.378-2.922 5.843-4.566 2.47-1.598 4.797-3.2 5.16-3.516.368-.32.778-.55.961-.504.137.047 1.051-.73 2.008-1.734 1.008-.96 2.196-1.781 2.742-1.781.504 0 1.782-.73 2.88-1.602 1.093-.867 3.105-1.87 4.472-2.281 1.691-.504 3.016-1.234 4.02-2.328 1.738-1.828 3.562-2.926 5.027-2.926.5 0 1.87-.73 3.012-1.644 1.144-.915 3.105-2.102 4.386-2.696 1.278-.594 2.512-1.277 2.649-1.55.183-.274.82-.504 1.46-.504.594 0 1.462-.184 1.919-.41 1.507-.778 3.972-1.372 6.851-1.692 1.598-.18 3.153-.594 3.516-.91.32-.367.73-.64.867-.64.14 0 1.328-.505 2.652-1.098 1.325-.594 3.606-1.325 5.024-1.645 1.46-.273 3.746-.914 5.16-1.414 1.371-.457 5.344-1.188 8.816-1.555 3.426-.363 7.582-.957 9.227-1.324 1.64-.363 4.613-1.004 6.621-1.46 2.008-.411 4.066-.958 4.566-1.235 2.332-1.23 7.493-2.145 13.473-2.375 2.879-.137 5.984-.457 6.852-.73 2.101-.637 25.488-1.052 42.476-.731 5.438.094 6.899.23 8.176.96 1.098.594 2.148.778 3.52.594 2.464-.273 6.164.594 9.5 2.145 1.367.64 3.011 1.188 3.605 1.188.64 0 1.371.32 1.691.687.32.363 1.051.684 1.645.684.594 0 1.094.183 1.094.457a.46.46 0 0 0 .457.457c.23 0 1.507.504 2.832 1.097 1.324.594 2.925 1.23 3.562 1.414.64.184 1.418.73 1.738 1.188.317.504 1.004.867 1.461.867.457 0 1.141.32 1.551.688.367.363.961.683 1.324.683.368 0 .914.32 1.235.684.32.367.824.687 1.14.687.32 0 .825.32 1.188.73.32.364.96.594 1.418.5.5-.136.82 0 .82.415 0 .594 4.613 4.02 6.258 4.613.457.18 2.422 1.55 4.387 3.059a138.778 138.778 0 0 0 5.023 3.789c2.559 1.781 3.516 2.652 3.516 3.199 0 .32.777 1.14 1.691 1.828 2.008 1.55 6.074 5.66 6.074 6.164 0 .184.274.367.594.367.82 0 4.34 4.383 7.399 9.223.777 1.144 1.918 2.422 2.601 2.832.64.414 1.645 1.465 2.195 2.332.547.867 1.231 1.734 1.551 1.918.778.5 3.473 4.34 3.473 4.977 0 .273.82 1.418 1.828 2.511 1.004 1.098 1.824 2.239 1.824 2.512 0 .32.32.64.688.824.363.137.683.504.683.778 0 .32.504 1.187 1.098 1.96.547.778 1.367 2.012 1.781 2.79.364.73 1.325 2.054 2.102 2.921.773.868 1.55 1.965 1.687 2.512.184.504 1.188 2.375 2.286 4.11 1.093 1.78 2.007 3.472 2.007 3.746 0 .73 1.418 3.52 2.102 4.066.273.227.914 1.461 1.371 2.738.41 1.235 1.187 2.832 1.644 3.52.5.73.778 1.46.637 1.644-.137.227.367 1.551 1.145 3.059.73 1.46 1.324 2.922 1.324 3.242 0 .367.227.64.457.64.273 0 .457.41.457.958 0 .824 2.648 6.945 4.383 10.094.367.687.777 1.828.867 2.511.277 1.965 1.555 7.309 2.332 9.547 1.23 3.61 2.008 20.371 1.05 22.153-.23.457-.413 2.558-.413 4.703 0 3.976-1.551 17.722-2.281 20.144-.23.73-.551 2.375-.73 3.652-.415 3.153-1.966 7.993-2.97 9.317-.504.594-.87 1.281-.87 1.508 0 .23-.41 1.281-.868 2.332-.457 1.047-1.187 2.691-1.55 3.605-.41.961-.962 1.738-1.188 1.738-.274 0-.504.317-.504.684 0 .363-.184.684-.363.684-.23 0-.594.414-.825.867-.363.734-3.925 4.844-7.718 8.953-.5.547-1.918 1.734-3.196 2.648-1.234.914-3.015 2.286-3.883 3.063-2.832 2.512-8.543 6.851-9 6.851-.273 0-.82.41-1.277.91-.457.551-1.14.825-1.46.735-.321-.14-.595-.094-.595.137 0 .226-.73.73-1.597 1.14-.871.41-1.602 1.004-1.602 1.325 0 .32-.547.82-1.277 1.097-.684.317-2.465 1.598-3.973 2.875-1.46 1.235-3.062 2.422-3.52 2.559-.452.137-.82.457-.82.683 0 .23-.367.414-.777.414-.867.043-2.418 1.004-2.418 1.551 0 .137-.594.825-1.328 1.508-1.047 1.05-1.277 1.645-1.23 3.242.042 1.735.32 2.239 2.417 4.25l2.375 2.235h3.793c3.836 0 5.254.457 6.579 2.238.593.777 3.742.414 5.343-.594.547-.363 2.055-.91 3.38-1.23 1.323-.32 2.878-1.051 3.515-1.645.64-.594 1.37-1.05 1.597-1.05.415 0 5.07-3.473 7.036-5.208.41-.41.777-.64.777-.457 0 .137.684-.41 1.508-1.14.773-.778 1.687-1.418 1.96-1.418.278 0 .962-.5 1.555-1.14.547-.595 2.149-1.782 3.473-2.606 1.367-.82 2.465-1.735 2.465-2.055 0-.32.914-1.414 2.055-2.465 1.14-1.05 2.054-2.191 2.054-2.558 0-.32.457-.957.961-1.415 2.832-2.285 6.348-5.8 6.348-6.304 0-.363.41-.867.914-1.188.504-.32.914-.777.914-.957 0-.23.5-.824 1.14-1.328.641-.5 1.598-1.781 2.15-2.785.5-1.05 1.093-2.008 1.23-2.145.183-.136 1.097-1.46 2.011-2.968.914-1.508 2.559-3.836 3.653-5.164 1.097-1.368 2.285-3.286 2.648-4.336.32-1.051 1.281-3.2 2.102-4.797.824-1.555 1.507-3.106 1.507-3.426 0-.273.641-1.781 1.372-3.242.777-1.461 1.37-3.336 1.37-4.067 0-1.414 1.551-7.992 2.282-9.683.23-.5.594-3.973.867-7.672.23-3.7.64-6.988.871-7.309 1.324-1.687 1.598-4.43 1.55-15.117-.046-5.984-.273-11.965-.5-13.246-.276-1.277-.456-3.789-.413-5.523.094-4.75-.41-9-1.414-11.97-.457-1.46-1.004-3.562-1.188-4.702-.183-1.14-.504-2.375-.73-2.785-.184-.368-.457-1.508-.594-2.512-.414-3.29-1.234-6.258-2.055-7.445-.457-.641-1.05-2.239-1.37-3.473-.321-1.277-.915-3.106-1.372-4.11-1.414-3.199-1.87-4.113-2.285-4.796-.227-.368-.637-1.325-.957-2.055-.32-.777-.73-1.691-.96-2.055-.228-.367-.638-1.187-.915-1.828-1.55-3.379-2.055-4.34-2.328-4.476-.227-.09-.363-.364-.363-.641 0-.547-2.422-5.48-3.657-7.441-.457-.778-.867-1.739-.867-2.196-.047-1.14-4.293-9.406-5.754-11.187-1.418-1.692-5.847-8.086-6.074-8.77-.32-.914-3.016-4.293-5.664-7.035-1.234-1.234-2.191-2.559-2.191-2.969 0-.41-1.325-2.464-2.97-4.613-1.644-2.144-3.519-4.703-4.202-5.707-.64-1.008-1.371-1.918-1.555-1.965-.227-.094-.41-.457-.41-.824 0-.363-.227-.637-.5-.637-.277 0-3.473-2.969-7.082-6.625-3.606-3.652-6.758-6.62-7.031-6.62-.23 0-.457-.184-.457-.411 0-.594-2.88-3.426-3.563-3.563-.687-.093-2.102-1.234-4.523-3.746-.82-.867-1.508-1.37-1.508-1.14 0 .226-.184.18-.363-.047-.184-.274-1.051-1.004-1.918-1.598-.872-.594-2.375-1.781-3.336-2.605-.914-.82-1.872-1.508-2.145-1.508-.504 0-4.523-2.695-5.254-3.469-.23-.32-1.277-.777-2.285-1.097-1.004-.32-2.465-1.098-3.242-1.692-.778-.547-1.688-1.047-2.055-1.047-.367 0-1.734-.734-3.058-1.601-1.329-.914-3.793-2.055-5.485-2.555-1.687-.55-3.469-1.234-4.015-1.555-.551-.367-2.102-.96-3.52-1.37-1.414-.41-2.695-.915-2.832-1.141-.227-.368-3.332-1.141-4.02-1.004-.18.043-1.093-.32-2.007-.825-.961-.5-2.055-.914-2.422-.914-.41 0-1.824-.273-3.196-.636-1.37-.367-4.34-.778-6.625-.961-3.652-.274-24.207-.5-31.511-.32-1.508.046-3.426-.043-4.34-.137-.867-.137-1.875-.043-2.238.183zm0 0"/><path d="M273.902 139.715c-1.46 1.05-2.738 1.87-2.875 1.87-.867 0-4.75 5.665-4.75 6.946 0 .594-.32 1.551-.73 2.102-.594.867-.688 1.824-.457 4.793.137 2.054.226 5.117.226 6.804 0 3.61.961 6.122 3.336 8.633 2.239 2.375 6.621 4.157 7.809 3.242.32-.226 1.324-.546 2.285-.73.914-.18 1.688-.5 1.688-.73 0-.274.457-.458 1.05-.458.551 0 1.829-.273 2.832-.636 1.965-.688 2.102-1.008 3.383-6.442.274-1.277.957-2.648 1.504-3.105.688-.594 1.008-1.414 1.098-3.195.137-2.606 2.238-9 3.515-10.829 1.188-1.687.961-3.011-.82-4.976-1.965-2.149-6.258-4.156-9.453-4.387-1.328-.09-3.426-.316-4.707-.453-2.145-.277-2.465-.184-4.934 1.55zm-73.304 19.777c-.684.684-1.325.778-5.344.867-3.059.047-4.977.684-6.531 2.102-.32.32-.778.594-1.004.594-.73 0-1.918 2.422-2.785 5.707-1.465 5.574-.825 10.597 2.097 16.992.367.777.688 1.555.688 1.734 0 .137.594 1.188 1.37 2.239 1.005 1.507 1.645 2.011 2.602 2.011 1.508.043 5.618-1.187 5.618-1.691 0-.184 1.234-.184 2.742-.047 1.508.14 3.012.094 3.332-.09a3.19 3.19 0 0 1 1.37-.363c1.872 0 3.017-2.926 3.747-9.363.363-3.29 1.234-6.715 1.918-7.766.32-.504.594-1.828.594-2.969 0-1.14.183-2.285.41-2.558 1.098-1.141.96-2.422-.41-3.973-2.602-3.016-8.817-5.023-10.414-3.426zm150.722 30.055c-.547.226-2.422.547-4.11.73-1.69.137-5.07.774-7.491 1.368-2.418.593-5.207 1.097-6.164 1.097-.961.047-3.563.457-5.848.961-2.238.5-4.797.957-5.664.91-.867 0-2.102.278-2.738.594-.64.32-2.559.73-4.25.871-1.688.18-3.563.594-4.11.957-.593.367-2.422.914-4.11 1.235-1.737.32-3.105.73-3.105.914 0 .18-.824.636-1.875 1.05-2.238.91-6.164 1.325-17.308 1.871-2.879.137-5.848.364-6.578.504-1.551.317-15.758.41-16.078.09-.09-.137-1.188-.047-2.375.184-1.188.226-4.52.5-7.399.594-9.226.363-11.144.593-13.976 1.55-1.551.504-3.563.961-4.567 1.004-.96.047-2.695.32-3.836.64-1.14.321-3.472.825-5.254 1.142-1.734.32-3.515.777-3.882.96-1.325.641-7.168 2.329-7.809 2.192-.367-.09-2.602.32-4.98.914-4.52 1.098-12.055 1.828-18.954 1.875-2.695.043-4.52.273-5.25.684-.64.363-1.875.64-2.789.683-.914 0-1.918.32-2.238.688-.316.363-.82.636-1.094.636-.273-.043-.824.047-1.187.184-.367.137-2.422.594-4.57 1.004-4.52.914-9.817 2.879-12.97 4.887-1.874 1.234-2.784 1.464-6.394 1.78-4.613.368-6.668.778-6.668 1.372 0 .183-.73 1.144-1.597 2.101-1.692 1.872-2.97 4.157-2.97 5.344 0 .41-.32 1.278-.734 1.871-.363.594-.636 1.465-.593 1.922.047.453 0 1.14-.18 1.504-.64 1.738-.688 3.11-.094 4.797.367 1.004.914 3.426 1.235 5.344.273 1.965.683 3.562.867 3.562.137 0 .547.688.867 1.461.32.824.867 2.102 1.188 2.879.32.73.687 2.145.87 3.059.137.96.454 1.738.684 1.738.274 0 .457.5.457 1.094 0 .593.32 1.691.684 2.422.367.683 1.187 2.464 1.828 3.882.594 1.461 1.277 2.649 1.508 2.649.636 0 2.008 2.785 1.781 3.699-.457 1.781 13.336 14.617 18.496 17.266 2.695 1.37 5.754 3.789 7.676 6.074 1.047 1.187 2.555 2.558 3.332 2.922.824.41 1.598.96 1.734 1.187.137.23.64.457 1.051.547.457.047.961.32 1.098.55.504.684 4.293 3.196 6.027 4.02.867.41 2.102 1.051 2.742 1.414.64.368 1.598.688 2.192.688.593 0 1.46.227 1.918.457.593.316.96.316 1.14 0 .184-.277.688-.367 1.145-.23.5.136 2.144.046 3.699-.227 2.102-.367 3.059-.824 3.7-1.645.503-.593 1.323-1.097 1.87-1.097 1.602 0 4.66 1.234 4.797 1.918.047.32.73.867 1.418 1.187.774.367 1.461 1.051 1.64 1.781.141.688.735 1.875 1.282 2.606.547.773.914 1.414.82 1.414-.136 0 .094.504.504 1.14.547.872.64 1.692.41 3.426-.183 1.282-.136 3.016.094 3.883.18.867.317 9.73.274 19.64-.047 9.911-.094 18.864-.094 19.868-.043 10.918.777 18.453 2.648 23.524.414 1.14.961 2.695 1.188 3.515.23.82.734 2.055 1.097 2.742.368.684.684 1.551.684 1.871 0 1.004 1.465 3.883 2.375 4.704.457.414.824.914.824 1.144 0 .227.504.82 1.14 1.277.642.457 1.145 1.141 1.145 1.461 0 .368.18.641.364.641.183 0 .73.594 1.14 1.371.457.774 1.145 1.367 1.508 1.367.367 0 .64.278.55.551-.183.957 1.005 2.738 2.923 4.566 1.004.957 1.965 1.735 2.101 1.735.137 0 1.051.687 2.102 1.508 2.328 1.828 3.242 2.285 7.582 3.562 1.871.547 3.562 1.235 3.742 1.508.184.273.367.32.367.137 0-.184.957.183 2.102.82 1.55.871 2.695 1.144 4.43 1.098 1.324-.047 3.105.273 4.02.683 1.23.504 3.425.735 8.218.778 3.61.046 7.629.093 8.863.136 2.602.047 8.813-1.05 9.18-1.644.137-.18.914-.364 1.691-.364.82 0 2.375-.503 3.469-1.14 1.05-.64 2.328-1.145 2.832-1.145.457 0 1.277-.183 1.871-.457.594-.226 1.922-.636 2.969-.914 1.05-.273 2.195-.73 2.515-1.047.82-.777 2.97-1.691 4.02-1.691.453 0 1.46-.504 2.191-1.14.778-.641 1.551-1.145 1.825-1.145.23 0 .55-.32.734-.684.137-.367.5-.683.867-.683.32 0 1.094-.551 1.735-1.188.593-.64 2.968-2.605 5.207-4.297 3.789-2.875 11.644-10.457 11.644-11.234 0-.184.594-.867 1.328-1.598.73-.687 1.688-2.012 2.098-2.879.457-.914.96-1.644 1.187-1.644.278 0 .594-.364.778-.82.914-2.286 3.61-5.985 5.254-7.172 1.46-1.094 2.101-2.008 2.922-4.293.593-1.645 1.418-3.38 1.875-3.883 1.093-1.324 1.918-2.875 1.918-3.653 0-.32.363-.73.82-.824.73-.226 1.918-2.191 3.289-5.617 1.55-3.836 2.328-6.027 3.379-9.59.73-2.285 1.46-4.476 1.691-4.887.227-.457.41-1.418.41-2.148 0-.777.41-2.055.914-2.922.594-.96 1.094-3.062 1.372-5.344.226-2.054.593-3.972.82-4.293.547-.64 2.422-5.664 2.605-6.898.274-1.645.774-7.031.957-10.414.094-1.824.32-4.613.457-6.258.457-4.566.368-6.348-.457-9.816-.457-1.782-.914-3.52-1.05-3.883-.137-.367-.32-1.098-.41-1.602a103.6 103.6 0 0 0-1.098-5.023 380.35 380.35 0 0 1-1.23-5.25c-.137-.64-.552-1.555-.825-2.055-.32-.504-1.05-2.238-1.644-3.883-.594-1.644-1.415-3.382-1.872-3.836-.41-.457-.687-1.05-.546-1.28.273-.41-1.645-3.563-2.149-3.563-.137 0-.547-.867-.914-1.965-.32-1.05-.957-2.328-1.414-2.785-1.05-1.188-1.05-1.871.09-3.016.504-.5 1.418-2.055 2.055-3.469.593-1.37 1.828-3.379 2.695-4.43.867-1.05 1.597-2.058 1.597-2.285 0-.183.137-.777.23-1.37.09-.547.458-2.97.731-5.344.32-2.375.73-4.567 1.004-4.887.961-1.188 2.149-6.988 3.106-15.207.73-5.895.777-6.215 1.281-9.363.227-1.508.316-3.426.227-4.25-.137-.778.09-2.418.457-3.653.64-1.965 1.414-7.261 1.37-9.457-.046-3.011-.55-4.156-2.648-6.027-1.187-1.098-2.515-1.965-2.925-1.965-.41 0-.958-.18-1.188-.41-1.188-1.14-9.406-1.781-11.555-.957zm-52.66 76.73c1.871.274 3.742.778 4.11 1.094.41.367 1.418.777 2.285.961.957.184 2.328 1.14 3.652 2.465 2.422 2.422 5.938 5.07 6.762 5.07.316 0 .594.274.594.64 0 .364.363.778.82.958.41.14 1.277.96 1.918 1.781.64.871 1.691 1.692 2.422 1.828.683.137 1.23.547 1.23.914s.277.867.594 1.051c1.418.867 12.058 13.246 13.066 15.164.317.637.867 1.508 1.188 1.871.91 1.098 3.012 6.805 3.926 10.504.457 1.875 1.05 4.25 1.324 5.254.273 1.004.504 2.512.457 3.379 0 .824.183 1.738.41 2.055.64.777.367 8.953-.363 10.234-.32.594-.64 1.824-.73 2.738-.368 3.2-1.509 7.856-2.512 9.91-.551 1.145-.872 2.375-.731 2.743.137.363.09.683-.14.683-.18 0-.637.867-.958 1.918-.683 2.332-1.234 3.793-2.101 5.528-.367.73-.64 1.597-.64 1.964 0 .364-.18.641-.458.641-.226 0-.457.316-.457.684 0 .96-1.687 4.203-2.375 4.66-.316.18-1.55 1.781-2.691 3.562-2.926 4.383-7.719 9.5-11.102 11.739-1.504 1.05-3.562 2.554-4.473 3.378-.96.868-2.238 1.645-2.878 1.829-.641.136-1.141.41-1.141.636 0 .64-3.563 1.918-4.523 1.598-.547-.137-.957-.09-.957.14 0 .594-5.165 2.008-7.95 2.192-1.234.09-3.472.363-4.933.637-1.461.277-3.106.367-3.563.23-.5-.183-.914-.137-.914.09 0 .414-6.484.55-6.848.137-.14-.137-1.78-.637-3.656-1.051-1.87-.453-4.34-1.047-5.48-1.324-1.14-.274-2.559-.547-3.196-.594-.64-.043-2.101-.547-3.289-1.05-1.187-.548-2.285-1.005-2.421-1.005-1.235 0-8.45-6.668-8.45-7.808 0-.274-.547-1.188-1.234-2.012-1.965-2.281-2.649-3.195-2.785-3.836-.047-.273-.867-2.418-1.781-4.75-1.735-4.43-2.102-6.758-2.696-17.996-.137-2.785-.41-5.66-.594-6.3-.136-.688-.136-2.923.094-4.934.5-5.297.774-9.868.957-15.164.09-2.512.274-5.114.504-5.844.18-.688.137-1.508-.094-1.828-.273-.274-.5-3.2-.5-6.442-.093-5.433-.687-9.406-1.46-9.406-.184 0-.458-.777-.594-1.738-.504-3.059-1.465-5.938-2.285-6.852-.41-.457-.778-1.05-.778-1.324s-.594-1.14-1.37-1.961c-.731-.824-1.368-1.645-1.368-1.828 0-.23-.55-.867-1.234-1.461-1.918-1.645-2.512-2.926-2.149-4.66.23-1.324.504-1.598 2.149-2.055 1.05-.32 2.738-.594 3.746-.684 2.101-.183 7.535-1.554 8.218-2.101.274-.184.961-.457 1.602-.594.637-.137 2.691-.824 4.61-1.601 3.015-1.141 5.3-1.461 7.355-1.051.547.094 1.644 2.879 2.465 6.168.504 2.008 1.46 4.203 2.648 5.937 3.152 4.66 3.61 5.985 3.746 10.735.094 2.375.367 4.52.64 4.793.227.23.458.914.458 1.464 0 1.641.504 2.465 1.828 3.149 2.418 1.234 5.523 2.101 6.531 1.781 1.23-.363 3.059-1.96 3.059-2.695 0-.274 1.14-1.55 2.512-2.828 1.644-1.555 2.511-2.742 2.511-3.426 0-.594.32-1.602.688-2.332.73-1.461 1.597-5.707 1.597-8.04 0-.91.457-2.464 1.004-3.468.867-1.644.961-2.422.867-7.902-.09-5.254 0-6.258.688-6.989.453-.503 1.094-.777 1.504-.64.414.094 2.285.414 4.113.687zm0 0"/></svg>