<svg height="96" width="96" xmlns="http://www.w3.org/2000/svg"><path d="M72 56c-4.813 0-9.12 2.137-12.054 5.501L39.643 51.35c.23-1.081.357-2.201.357-3.35s-.127-2.269-.357-3.349l20.303-10.152C62.879 37.864 67.187 40 72 40c8.836 0 16-7.164 16-16S80.836 8 72 8s-16 7.164-16 16c0 1.149.127 2.269.357 3.349L36.054 37.501C33.121 34.136 28.814 32 24 32c-8.836 0-16 7.164-16 16s7.164 16 16 16c4.814 0 9.12-2.137 12.054-5.501l20.304 10.152C56.127 69.731 56 70.851 56 72c0 8.836 7.164 16 16 16s16-7.164 16-16-7.164-16-16-16zm0-40a8 8 0 1 1 0 16 8 8 0 0 1 0-16zM24 56a8 8 0 1 1 0-16 8 8 0 0 1 0 16zm48 24a8 8 0 1 1 0-16 8 8 0 0 1 0 16z"/></svg>