<svg version="1" xmlns="http://www.w3.org/2000/svg" viewBox="0 0 150 150"><path d="M86.188 25.277c-.094.067-.672.121-1.286.133-1.996.04-6.398.281-7.562.414-.63.067-1.375.16-1.672.188-.293.027-.988.148-1.54.27-.546.12-1.269.28-1.605.347-.332.05-.867.187-1.203.266a8.04 8.04 0 0 1-1.34.23c-.398.04-.789.117-.867.184-.066.07-.242.12-.39.12-.145 0-.442.055-.668.122-.227.082-.856.203-1.39.293-.536.093-1.005.215-1.044.281-.043.055-.203.11-.363.11-.16 0-.563.078-.895.187-.925.293-2.543.629-2.664.562-.066-.043-.414.078-.761.282-.602.32-1.649.629-2.692.8-.238.04-.441.122-.441.188s-.2.121-.442.121c-.238 0-.508.066-.59.148-.144.145-.37.254-2.539 1.149-.523.226-1.246.574-1.605.789-.352.215-1.004.562-1.445.766-.442.21-.86.464-.91.574a.37.37 0 0 1-.297.187c-.094 0-.2.04-.227.094-.012.066-.508.332-1.07.629-.575.281-1.043.562-1.043.613 0 .055-.16.176-.364.254-.468.176-.761.363-1.457.91-.293.23-.804.563-1.109.739-.926.507-.992.546-1.848 1.203-.457.363-.87.64-.91.64-.148 0-1.043.739-1.351 1.098-.082.094-.43.418-.79.71-.347.294-.71.618-.816.696a.651.651 0 0 1-.375.176c-.12 0-.215.078-.215.188 0 .093-.28.386-.613.628-.336.254-.844.668-1.14.934-.294.27-.72.629-.962.805-.226.172-1.285 1.175-2.343 2.222-1.055 1.055-1.938 1.91-1.98 1.91-.16 0-2.114 2.102-2.5 2.704-.255.39-.645.882-.872 1.113-.226.21-.426.453-.426.508 0 .05-.136.238-.308.402-.578.559-1.7 1.938-1.7 2.086 0 .078-.042.148-.093.148-.067 0-.254.227-.442.493-.187.27-.496.683-.695.898-.215.227-.375.48-.375.574 0 .082-.11.188-.23.227-.227.082-1.336 1.605-1.535 2.117-.055.133-.149.238-.215.238-.055 0-.215.23-.336.508-.121.281-.469.777-.762 1.098-.297.324-.535.644-.535.722 0 .082-.121.297-.27.485-.144.187-.265.441-.265.562 0 .133-.39 1-.856 1.938-1.097 2.183-1.687 3.441-1.687 3.613 0 .082-.094.309-.2.524-.109.214-.164.507-.12.668.038.16.011.335-.067.386-.082.043-.121.149-.07.215.043.082-.012.242-.117.363-.31.36-.645 1.098-.563 1.23.04.079 0 .294-.11.497-.16.305-.48 1.953-.519 2.715 0 .105-.176.734-.39 1.39-.387 1.192-.387 1.204-.415 4.883-.011 3.977.016 4.7.27 5.008.094.105.16.254.144.305-.011.07 0 .215.043.324.2.547.387 1.375.32 1.43-.038.039 0 .203.079.363.094.144.176.441.187.64.016.188.121.547.243.79.12.226.214.507.214.601 0 .11.403.977.91 1.953.497.977.977 2.117 1.083 2.516.093.402.242.793.336.871.078.066.226.375.32.668.226.684.59 1.418.805 1.648.078.094.16.266.16.36 0 .11.078.242.187.297.094.05.215.277.254.507.04.215.094.493.121.614.024.12.266.441.547.738.27.281.496.574.496.656.012.172.48.735.63.735.054 0 .374.308.694.683.32.375.778.762 1.004.856.508.215 1.043.761.989 1.015-.028.094.175.282.43.414.253.137.655.403.882.606.227.21.508.426.617.508.106.066.453.332.774.562.375.293.722.442 1.02.442.238 0 .468.078.491.16.055.12.082.12.082.011.012-.16 1.004.27 1.313.575.105.093.266.148.375.109.117-.055.2 0 .2.133 0 .12.093.215.198.215.11 0 .309.12.442.28.148.15.347.255.441.243.27-.043.672.145 1.031.453.16.149.297.227.297.176 0-.055.227.066.492.254.282.187.563.332.645.332.078 0 .414.297.75.656.52.574 1.23.938 1.617.844.055-.016.281.148.508.36.242.214.563.39.738.39.172-.016.508.172.746.398.684.63 1.434.938 2.73 1.086l1.622.2c.227.027.547.12.723.214.574.309 3.613.645 3.613.403 0-.067.2-.082.441-.055.227.04.696-.012 1.028-.133.336-.12.683-.215.777-.215.094 0 .309-.12.469-.28.562-.548.87-.657 1.781-.708.68-.043 1.137-.16 1.75-.469.457-.226.86-.414.898-.414.04 0 .282-.23.547-.511.508-.547.59-.977.27-1.579-.11-.214-.203-.496-.203-.613 0-.12-.04-.324-.078-.43-.094-.253-1.204-.804-1.38-.695-.066.04-.187-.015-.28-.12a.73.73 0 0 0-.481-.2c-.16 0-.348-.067-.39-.137-.051-.078-.282-.226-.536-.32-.238-.106-.48-.309-.52-.453-.054-.149-.335-.364-.617-.485-.292-.117-.535-.265-.535-.332 0-.12-.133-.148-.734-.132-1.324.023-1.578 0-1.793-.204-.133-.12-.336-.214-.457-.214s-.254-.051-.293-.133c-.04-.067-.215-.133-.375-.133-.176 0-.441-.094-.602-.215-.187-.133-.43-.187-.644-.133-.188.051-.32.028-.32-.054 0-.067-.094-.133-.2-.133-.109 0-.203-.055-.203-.133 0-.07-.172-.215-.386-.336-.63-.32-1.27-.977-1.43-1.445-.094-.293-.242-.442-.469-.47-.176-.026-.375-.105-.457-.17a.458.458 0 0 0-.293-.122c-.082 0-.387-.148-.656-.336-.48-.336-.95-.336-.496 0 .136.094.203.227.136.281-.054.055-.093.028-.093-.066s-.121-.121-.325-.067c-.187.04-.414.028-.507-.027-.094-.055-.387-.133-.657-.148-.265-.028-.722-.172-1.004-.309-.28-.144-.652-.266-.816-.266-.172 0-.305-.082-.305-.187 0-.106-.203-.348-.441-.535-.23-.2-.496-.403-.563-.469a2.94 2.94 0 0 0-.496-.227c-.187-.066-.683-.414-1.097-.777-.63-.562-.75-.734-.75-1.11 0-.32-.067-.44-.215-.44-.238 0-1.027-.415-1.094-.579-.027-.05-.11-.094-.176-.094-.066 0-.43-.304-.8-.667-.375-.375-.75-.668-.844-.668-.242 0-1.02-.75-1.02-.993 0-.117-.066-.21-.133-.21-.214 0-.937-.696-.937-.899 0-.094-.117-.242-.254-.332-.133-.082-.226-.242-.187-.336.043-.11-.04-.27-.172-.375-.149-.105-.203-.2-.149-.2.133 0-.547-1.218-.75-1.366a.427.427 0 0 0-.32-.012c-.094.039-.172 0-.172-.082 0-.078.067-.145.145-.145.203 0 .066-.656-.266-1.312-.148-.309-.281-.645-.281-.738 0-.106-.203-.399-.457-.668-.239-.266-.48-.641-.52-.856-.094-.469-.16-.71-.297-1.016-.05-.12-.05-.374-.011-.562.054-.188.027-.336-.04-.336-.07 0-.203-.348-.28-.777-.083-.414-.188-.856-.231-.961a2.48 2.48 0 0 1-.106-.578c-.011-.2-.105-.453-.199-.559-.082-.094-.187-.684-.23-1.3-.078-1.204-.211-1.712-.453-1.712-.149 0-.094-2.57.093-3.746.04-.254.094-.832.121-1.273a9.306 9.306 0 0 1 .254-1.54c.106-.398.16-.788.121-.84-.043-.07-.015-.257.067-.401.215-.485.52-1.325.707-1.97.094-.331.347-.921.55-1.312.215-.398.36-.789.348-.867-.015-.094.133-.336.336-.55.2-.212.36-.493.36-.63 0-.144.054-.253.12-.253.067 0 .15-.145.2-.305.066-.281.578-1.031 1.058-1.567.47-.523 1.27-1.714 1.204-1.793-.055-.042-.012-.082.082-.082.226 0 .586-.375.492-.507-.04-.067.148-.309.39-.547.254-.242.47-.535.47-.657 0-.12.773-1.042 1.726-2.035 2.164-2.261 2.152-2.246 2.152-2.41 0-.078.094-.172.2-.21.109-.055.202-.15.202-.216 0-.148 1.07-1.18 1.23-1.18.056 0 .106-.077.106-.171.016-.188.657-.95.739-.871.093.093 1.672-1.418 1.672-1.606 0-.093.066-.16.132-.16.067 0 .254-.105.391-.242.695-.64 2.234-1.898 2.328-1.898.024 0 .387-.32.774-.723.402-.387.859-.762 1.02-.805.16-.05.468-.293.694-.547.227-.254.989-.855 1.711-1.34.723-.464 1.407-.933 1.512-1.027.11-.094.23-.16.281-.148.043.011.309-.215.59-.508.293-.281.64-.524.8-.524.15 0 .524-.214.845-.468.324-.254.91-.547 1.312-.668.496-.149.883-.36 1.176-.684.512-.535 1.047-.855 1.473-.855.148 0 .55-.215.882-.48.336-.27.91-.618 1.286-.79.375-.176.738-.375.777-.457.055-.078.242-.144.426-.144.175 0 .43-.055.562-.122.442-.23 1.164-.402 2.008-.496.469-.054.926-.175 1.031-.27.094-.105.215-.187.254-.187.04 0 .387-.144.778-.32a9.542 9.542 0 0 1 1.472-.48c.426-.083 1.094-.27 1.512-.415.398-.132 1.562-.347 2.582-.457 1.004-.105 2.219-.28 2.703-.386.48-.106 1.352-.293 1.938-.43.59-.117 1.19-.281 1.34-.36.683-.363 2.195-.628 3.945-.695.843-.043 1.754-.136 2.007-.215.618-.187 7.47-.308 12.446-.214 1.594.027 2.02.066 2.394.28.32.177.63.227 1.032.177.722-.082 1.804.172 2.78.629.403.187.888.347 1.06.347.187 0 .402.094.496.2a.73.73 0 0 0 .48.199c.176 0 .32.054.32.136 0 .067.055.133.137.133.066 0 .441.149.828.32.387.176.856.364 1.043.415.188.054.414.214.508.347a.588.588 0 0 0 .43.254c.132 0 .336.094.453.203.11.106.281.2.39.2.106 0 .266.093.36.203.094.105.242.199.336.199.093 0 .242.094.347.215a.49.49 0 0 0 .414.144c.149-.039.243 0 .243.121 0 .176 1.351 1.18 1.832 1.352.132.055.71.457 1.285.898.574.453 1.246.95 1.472 1.11.75.523 1.032.777 1.032.937 0 .094.226.336.492.535.59.453 1.781 1.66 1.781 1.805 0 .055.078.11.172.11.242 0 1.273 1.285 2.168 2.703.23.332.562.707.766.828.187.12.48.43.64.683.16.254.36.508.453.563.23.144 1.02 1.27 1.02 1.457 0 .082.238.414.535.734.293.324.535.656.535.738 0 .094.094.188.2.243.109.039.203.144.203.226 0 .094.144.348.32.574.16.227.402.59.52.817.109.215.39.601.617.855.226.254.453.578.496.739.05.144.347.695.668 1.203.32.523.59 1.015.59 1.097 0 .215.414 1.032.613 1.192.082.066.27.426.402.8.121.364.348.833.48 1.032.149.215.231.43.188.48-.039.067.11.457.336.899.215.425.387.855.387.949 0 .105.066.187.136.187.079 0 .133.121.133.282 0 .242.778 2.035 1.285 2.957.106.199.227.535.254.734.078.578.453 2.14.68 2.797.363 1.059.59 5.969.309 6.492-.067.133-.121.75-.121 1.379 0 1.164-.454 5.191-.668 5.898a9.14 9.14 0 0 0-.215 1.07c-.118.927-.575 2.345-.868 2.731-.148.176-.253.375-.253.442 0 .066-.121.375-.254.683-.137.309-.352.79-.457 1.055-.121.281-.282.512-.348.512-.082 0-.148.093-.148.199 0 .105-.051.2-.106.2-.066 0-.176.12-.242.253-.106.215-1.149 1.422-2.262 2.625-.144.16-.562.508-.933.773-.364.27-.887.672-1.141.899-.828.734-2.5 2.008-2.633 2.008-.082 0-.242.12-.375.265-.137.16-.336.243-.43.215-.093-.039-.175-.027-.175.04 0 .07-.211.214-.465.335-.258.121-.469.293-.469.387 0 .094-.16.242-.375.324-.203.094-.723.465-1.164.84-.43.363-.898.71-1.031.75-.133.043-.242.133-.242.203 0 .066-.106.117-.227.117-.254.016-.707.297-.707.457 0 .04-.176.242-.39.442-.31.308-.376.48-.36.949.012.508.094.656.707 1.246l.695.656h1.114c1.12 0 1.539.133 1.925.653.176.23 1.098.12 1.567-.172.16-.106.601-.27.988-.364.39-.093.844-.304 1.031-.48.188-.172.403-.309.47-.309.12 0 1.483-1.015 2.058-1.523.12-.121.23-.188.23-.133 0 .04.2-.121.442-.336.226-.226.492-.414.574-.414.082 0 .281-.148.453-.336.164-.172.629-.523 1.02-.762.402-.242.722-.507.722-.601 0-.094.266-.418.602-.723.336-.308.601-.644.601-.75 0-.094.133-.281.281-.414.829-.672 1.86-1.699 1.86-1.847 0-.106.12-.254.27-.348.144-.094.265-.227.265-.281 0-.067.148-.243.336-.387.187-.149.469-.524.629-.817.148-.308.32-.59.36-.628.054-.043.323-.43.59-.871.269-.442.75-1.126 1.07-1.512.32-.403.667-.965.777-1.27.093-.308.375-.937.613-1.406.242-.457.441-.91.441-1.004 0-.082.188-.523.403-.95.226-.429.402-.976.402-1.19 0-.415.453-2.344.668-2.836.066-.149.176-1.165.254-2.25.066-1.082.187-2.047.254-2.141.39-.496.469-1.297.457-4.43-.016-1.754-.082-3.504-.149-3.879-.078-.375-.132-1.113-.12-1.62.027-1.391-.122-2.638-.415-3.505a12.725 12.725 0 0 1-.347-1.379c-.055-.336-.149-.695-.215-.816-.051-.105-.133-.441-.172-.734-.121-.965-.363-1.836-.602-2.184-.136-.187-.308-.656-.402-1.016a8.506 8.506 0 0 0-.402-1.203c-.414-.937-.547-1.207-.668-1.406-.067-.105-.188-.387-.282-.602a5.445 5.445 0 0 0-.28-.601 5.6 5.6 0 0 1-.27-.535c-.453-.992-.602-1.274-.68-1.313-.066-.027-.11-.105-.11-.187 0-.16-.706-1.606-1.07-2.18-.132-.23-.254-.512-.254-.644-.011-.333-1.257-2.754-1.683-3.278-.418-.496-1.715-2.367-1.781-2.57-.094-.266-.883-1.258-1.66-2.059-.36-.363-.641-.75-.641-.87 0-.122-.39-.723-.871-1.352a51.142 51.142 0 0 1-1.23-1.672c-.188-.293-.403-.563-.458-.574-.066-.028-.117-.137-.117-.243 0-.105-.066-.187-.148-.187-.082 0-1.016-.871-2.075-1.942-1.058-1.07-1.98-1.937-2.062-1.937-.067 0-.133-.055-.133-.121 0-.176-.844-1.004-1.043-1.043-.2-.027-.617-.363-1.324-1.098-.242-.254-.442-.402-.442-.336 0 .067-.054.055-.109-.011-.05-.082-.305-.297-.559-.47-.253-.175-.699-.523-.976-.765-.27-.238-.55-.441-.629-.441-.148 0-1.328-.79-1.54-1.016-.07-.094-.374-.226-.67-.32a3.715 3.715 0 0 1-.95-.496c-.227-.16-.496-.309-.602-.309-.105 0-.508-.21-.898-.469-.387-.265-1.11-.601-1.606-.746-.492-.16-1.015-.363-1.175-.457-.16-.105-.618-.281-1.032-.402-.414-.117-.789-.266-.828-.332-.066-.11-.976-.336-1.18-.297-.05.016-.32-.094-.585-.238-.282-.149-.606-.27-.711-.27-.121 0-.535-.078-.938-.187-.398-.106-1.27-.227-1.937-.282-1.07-.078-7.094-.144-9.235-.093a11.012 11.012 0 0 1-1.27-.04c-.257-.038-.55-.011-.656.055zm0 0"/><path d="M80.246 40.934c-.43.304-.805.546-.844.546-.254 0-1.39 1.66-1.39 2.036 0 .172-.094.453-.215.613-.176.254-.2.535-.133 1.406.04.602.066 1.5.066 1.992 0 1.059.282 1.793.977 2.532.656.695 1.941 1.218 2.29.949.093-.067.386-.16.667-.215.266-.05.496-.145.496-.215 0-.078.133-.133.305-.133.164 0 .535-.078.832-.187.574-.2.613-.293.988-1.887.082-.375.281-.773.442-.91.203-.172.296-.414.324-.934.039-.765.652-2.636 1.027-3.172.348-.496.281-.882-.238-1.46-.578-.63-1.836-1.215-2.77-1.286-.39-.023-1.004-.093-1.379-.132-.629-.079-.722-.055-1.445.457zM58.77 46.727c-.204.199-.387.226-1.567.253-.894.012-1.457.2-1.914.618-.094.093-.227.172-.293.172-.215 0-.562.71-.816 1.671-.43 1.633-.242 3.106.613 4.98.11.227.203.454.203.509 0 .039.172.347.402.656.293.441.48.586.762.586.442.016 1.645-.348 1.645-.492 0-.055.363-.055.804-.016.442.04.883.027.977-.027a.97.97 0 0 1 .402-.106c.547 0 .883-.855 1.094-2.742.11-.965.363-1.969.563-2.277.093-.145.175-.535.175-.867 0-.336.055-.672.121-.75.32-.336.282-.711-.12-1.165-.762-.882-2.583-1.472-3.051-1.003zm44.156 8.804c-.16.067-.711.16-1.203.215-.496.04-1.485.227-2.196.399-.71.175-1.527.324-1.804.324-.282.011-1.047.133-1.715.281-.656.145-1.406.281-1.66.266-.254 0-.614.082-.801.175-.188.094-.75.211-1.246.254-.496.051-1.043.172-1.203.282-.176.105-.711.265-1.203.359-.512.094-.91.215-.91.27 0 .05-.243.187-.551.304-.657.27-1.805.39-5.07.55-.844.04-1.716.106-1.927.15-.457.093-4.617.117-4.71.023-.028-.04-.348-.012-.696.054-.347.067-1.324.149-2.168.176-2.703.106-3.265.172-4.093.453-.457.149-1.047.282-1.34.293a6.37 6.37 0 0 0-1.125.188c-.332.094-1.016.242-1.54.336-.507.094-1.027.226-1.136.281-.387.188-2.102.684-2.29.64-.105-.023-.76.094-1.456.27-1.324.32-3.531.535-5.555.547-.789.016-1.324.082-1.535.203-.188.106-.55.188-.816.2-.27 0-.563.093-.657.203-.093.105-.242.187-.32.187a.843.843 0 0 0-.352.05c-.105.04-.707.177-1.336.298-1.324.265-2.878.84-3.8 1.43-.547.363-.817.43-1.871.523-1.352.105-1.957.226-1.957.398 0 .055-.211.336-.47.617-.491.547-.866 1.22-.866 1.567 0 .121-.094.375-.215.547-.106.176-.188.43-.176.562.016.133 0 .336-.05.442-.188.507-.204.91-.028 1.406.105.293.266 1.004.36 1.566.081.575.202 1.043.257 1.043.04 0 .16.2.254.426.094.242.254.617.348.844.093.215.199.629.254.898.039.281.132.508.199.508.082 0 .133.148.133.32 0 .176.093.496.203.711.105.2.347.723.535 1.137.172.426.375.777.441.777.188 0 .59.817.52 1.082-.133.524 3.91 4.282 5.422 5.059.789.402 1.683 1.11 2.246 1.777.308.352.75.75.976.86.243.12.47.281.508.347.043.067.188.133.309.16.136.012.281.094.32.16.148.2 1.258.938 1.77 1.176.254.122.613.31.8.418.188.106.47.2.645.2.172 0 .426.066.559.132.175.094.28.094.335 0 .055-.078.2-.105.336-.066.145.04.63.016 1.082-.066.618-.106.899-.243 1.086-.48.145-.177.387-.325.547-.325.469 0 1.367.363 1.406.562.012.094.215.254.415.348.226.11.43.309.48.524.043.199.215.546.375.761.16.227.27.414.242.414-.039 0 .028.149.149.336.16.254.187.496.117 1.004-.051.375-.04.883.027 1.137.055.254.094 2.851.082 5.754-.015 2.902-.027 5.527-.027 5.82-.012 3.2.226 5.406.777 6.89.117.337.281.79.348 1.032.066.242.215.602.32.805.106.199.2.453.2.547 0 .293.43 1.136.695 1.378.136.122.242.266.242.336 0 .067.148.239.336.371.187.137.332.336.332.43 0 .106.055.188.11.188.05 0 .214.175.331.402.137.227.336.402.442.402.109 0 .187.079.164.16-.055.282.293.801.855 1.336.293.282.574.508.613.508.043 0 .31.203.618.442.683.535.949.672 2.222 1.047.547.16 1.043.359 1.094.441.055.078.11.094.11.039s.28.055.613.242c.457.254.793.332 1.3.32.387-.015.91.079 1.176.2.364.148 1.004.215 2.41.226 1.055.016 2.235.028 2.594.043.766.012 2.582-.308 2.692-.484.039-.05.265-.106.496-.106.238 0 .695-.148 1.015-.335.309-.188.684-.333.828-.333.137 0 .375-.054.551-.136.172-.067.563-.184.867-.266.309-.082.645-.215.739-.308.238-.227.867-.497 1.175-.497.133 0 .43-.144.645-.332.227-.187.453-.336.535-.336.067 0 .16-.093.211-.199.043-.11.149-.203.258-.203.094 0 .32-.16.508-.348.172-.187.867-.761 1.523-1.257 1.113-.84 3.414-3.063 3.414-3.29 0-.054.172-.253.387-.468.215-.203.496-.59.617-.844.133-.27.281-.48.348-.48.078 0 .172-.11.226-.243.266-.668 1.059-1.753 1.54-2.101.43-.32.613-.59.855-1.258.176-.48.414-.988.55-1.137.321-.386.56-.843.56-1.07 0-.094.109-.215.241-.242.215-.067.563-.64.965-1.645.453-1.125.68-1.765.989-2.808.214-.672.43-1.313.496-1.434.066-.133.12-.414.12-.629 0-.226.122-.601.266-.855.176-.281.325-.899.403-1.567.066-.601.175-1.164.242-1.257.16-.188.707-1.66.762-2.02.082-.484.226-2.063.28-3.05.028-.536.095-1.352.134-1.837.132-1.336.11-1.86-.133-2.875a22.5 22.5 0 0 0-.309-1.136c-.039-.11-.093-.32-.12-.47-.028-.148-.161-.816-.321-1.472-.16-.668-.32-1.351-.36-1.539a2.766 2.766 0 0 0-.242-.601c-.093-.149-.308-.657-.48-1.137-.176-.48-.418-.992-.55-1.125-.122-.133-.2-.309-.161-.375.082-.121-.48-1.043-.629-1.043-.04 0-.16-.254-.266-.574-.093-.309-.28-.684-.418-.817-.304-.347-.304-.55.028-.883.148-.148.414-.601.601-1.02a6.79 6.79 0 0 1 .79-1.296c.257-.309.468-.602.468-.668 0-.055.043-.227.07-.402.024-.16.133-.871.211-1.567.094-.695.215-1.336.297-1.43.281-.347.63-2.046.91-4.456.211-1.727.227-1.82.375-2.743.067-.441.094-1.004.067-1.246-.043-.226.027-.707.133-1.07.187-.574.414-2.125.402-2.77-.016-.882-.16-1.218-.777-1.765-.348-.32-.735-.574-.856-.574a.573.573 0 0 1-.347-.121c-.348-.336-2.758-.524-3.387-.282zm-15.43 22.48c.55.079 1.098.227 1.207.321.121.106.414.227.668.281.281.055.684.336 1.07.723.711.707 1.739 1.484 1.98 1.484.095 0 .177.082.177.188 0 .105.105.226.238.281.121.04.375.281.562.523.188.254.497.493.711.536.2.039.36.16.36.265 0 .11.082.254.176.309.414.254 3.53 3.879 3.824 4.441.094.188.254.442.347.551.27.32.883 1.992 1.153 3.074.133.551.308 1.246.386 1.54.082.296.149.738.137.992 0 .242.051.507.117.601.188.227.11 2.621-.105 2.996-.094.176-.188.535-.215.805-.105.937-.441 2.3-.734 2.902-.16.336-.254.696-.215.805.039.105.027.2-.04.2-.054 0-.187.253-.28.562-.204.683-.364 1.109-.618 1.62-.105.212-.187.466-.187.575 0 .105-.05.187-.133.187-.066 0-.133.094-.133.2 0 .28-.496 1.23-.695 1.367-.094.05-.457.52-.79 1.043-.859 1.285-2.26 2.781-3.253 3.437-.441.309-1.043.75-1.313.993-.28.253-.652.48-.84.535-.187.039-.335.117-.335.187 0 .188-1.043.559-1.325.465-.16-.04-.28-.023-.28.043 0 .172-1.513.586-2.329.64-.363.028-1.016.11-1.445.188-.43.082-.91.11-1.043.067-.149-.051-.27-.04-.27.027 0 .12-1.898.16-2.008.039-.039-.04-.52-.188-1.07-.305-.547-.136-1.27-.308-1.605-.39-.332-.079-.75-.16-.934-.172-.187-.016-.617-.16-.965-.309-.347-.16-.668-.293-.71-.293-.36 0-2.473-1.957-2.473-2.289 0-.082-.164-.348-.364-.59-.574-.668-.777-.937-.816-1.125-.012-.078-.254-.707-.52-1.39-.511-1.297-.617-1.98-.793-5.274-.039-.816-.117-1.656-.171-1.844-.04-.203-.04-.859.027-1.445.144-1.555.226-2.89.281-4.445.028-.735.078-1.496.145-1.711.054-.2.043-.442-.024-.535-.082-.082-.148-.938-.148-1.887-.028-1.594-.203-2.758-.43-2.758-.05 0-.133-.226-.172-.508-.148-.894-.43-1.738-.672-2.007-.117-.133-.226-.305-.226-.387 0-.082-.172-.336-.403-.574-.21-.243-.398-.485-.398-.536 0-.066-.16-.253-.363-.43-.563-.48-.735-.855-.63-1.362.067-.391.15-.47.63-.602a6.66 6.66 0 0 1 1.097-.203c.618-.055 2.207-.453 2.41-.613.079-.055.282-.137.47-.176.187-.04.788-.242 1.35-.469.884-.332 1.552-.426 2.153-.309.16.028.48.844.723 1.809.148.59.43 1.23.777 1.738.922 1.367 1.055 1.754 1.098 3.145.023.695.105 1.324.187 1.406.067.066.133.266.133.426 0 .484.145.722.535.926.707.359 1.618.613 1.914.52.36-.106.895-.575.895-.79 0-.078.336-.453.738-.828.48-.457.735-.805.735-1.004 0-.176.093-.469.199-.684.215-.425.469-1.671.469-2.355 0-.266.136-.723.296-1.016.254-.48.282-.71.254-2.316-.027-1.54 0-1.832.2-2.047.132-.144.32-.226.441-.187.121.027.668.12 1.203.203zm0 0"/></svg>
