<svg version="1" xmlns="http://www.w3.org/2000/svg" viewBox="0 0 1121 1121"><path d="M644.1 188.9c-.7.5-5 .9-9.6 1-14.9.3-47.8 2.1-56.5 3.1-4.7.5-10.3 1.2-12.5 1.4-2.2.2-7.4 1.1-11.5 2-4.1.9-9.5 2.1-12 2.6-2.5.4-6.5 1.4-9 2-2.5.7-7 1.5-10 1.7-3 .3-5.9.9-6.5 1.4-.5.5-1.8.9-2.9.9-1.1 0-3.3.4-5 .9-1.7.6-6.4 1.5-10.4 2.2-4 .7-7.5 1.6-7.8 2.1-.3.4-1.5.8-2.7.8-1.2 0-4.2.6-6.7 1.4-6.9 2.2-19 4.7-19.9 4.2-.5-.3-3.1.6-5.7 2.1-4.5 2.4-12.3 4.7-20.1 6-1.8.3-3.3.9-3.3 1.4 0 .5-1.5.9-3.3.9-1.8 0-3.8.5-4.4 1.1-1.1 1.1-2.8 1.9-19 8.6-3.9 1.7-9.3 4.3-12 5.9-2.6 1.6-7.5 4.2-10.8 5.7-3.3 1.6-6.4 3.5-6.8 4.3-.4.8-1.4 1.4-2.2 1.4-.7 0-1.5.3-1.7.7-.1.5-3.8 2.5-8 4.7-4.3 2.1-7.8 4.2-7.8 4.6 0 .4-1.2 1.3-2.7 1.9-3.5 1.3-5.7 2.7-10.9 6.8-2.2 1.7-6 4.2-8.3 5.5-6.9 3.8-7.4 4.1-13.8 9-3.4 2.7-6.5 4.8-6.8 4.8-1.1 0-7.8 5.5-10.1 8.2-.6.7-3.2 3.1-5.9 5.3-2.6 2.2-5.3 4.6-6.1 5.2-.7.7-2 1.3-2.8 1.3-.9 0-1.6.6-1.6 1.4 0 .7-2.1 2.9-4.6 4.7-2.5 1.9-6.3 5-8.5 7s-5.4 4.7-7.2 6c-1.7 1.3-9.6 8.8-17.5 16.6-7.9 7.9-14.5 14.3-14.8 14.3-1.2 0-15.8 15.7-18.7 20.2-1.9 2.9-4.8 6.6-6.5 8.3-1.7 1.6-3.2 3.4-3.2 3.8 0 .4-1 1.8-2.3 3-4.3 4.2-12.7 14.5-12.7 15.6 0 .6-.3 1.1-.7 1.1-.5 0-1.9 1.7-3.3 3.7s-3.7 5.1-5.2 6.7c-1.6 1.7-2.8 3.6-2.8 4.3 0 .6-.8 1.4-1.7 1.7-1.7.6-10 12-11.5 15.8-.4 1-1.1 1.8-1.6 1.8-.4 0-1.6 1.7-2.5 3.8-.9 2.1-3.5 5.8-5.7 8.2-2.2 2.4-4 4.8-4 5.4 0 .6-.9 2.2-2 3.6s-2 3.3-2 4.2c0 1-2.9 7.5-6.4 14.5-8.2 16.3-12.6 25.7-12.6 27 0 .6-.7 2.3-1.5 3.9s-1.2 3.8-.9 5c.3 1.2.1 2.5-.5 2.9-.6.3-.9 1.1-.5 1.6.3.6-.1 1.8-.9 2.7-2.3 2.7-4.8 8.2-4.2 9.2.3.6 0 2.2-.8 3.7-1.2 2.3-3.6 14.6-3.9 20.3 0 .8-1.3 5.5-2.9 10.4-2.9 8.9-2.9 9-3.1 36.5-.1 29.7.1 35.1 2 37.4.7.8 1.2 1.9 1.1 2.3-.1.5 0 1.6.3 2.4 1.5 4.1 2.9 10.3 2.4 10.7-.3.3 0 1.5.6 2.7.7 1.1 1.3 3.3 1.4 4.8.1 1.4.9 4.1 1.8 5.9.9 1.7 1.6 3.8 1.6 4.5 0 .8 3 7.3 6.8 14.6 3.7 7.3 7.3 15.8 8.1 18.8.7 3 1.8 5.9 2.5 6.5.6.5 1.7 2.8 2.4 5 1.7 5.1 4.4 10.6 6 12.3.6.7 1.2 2 1.2 2.7 0 .8.6 1.8 1.4 2.2.7.4 1.6 2.1 1.9 3.8.3 1.6.7 3.7.9 4.6.2.9 2 3.3 4.1 5.5 2 2.1 3.7 4.3 3.7 4.9.1 1.3 3.6 5.5 4.7 5.5.4 0 2.8 2.3 5.2 5.1 2.4 2.8 5.8 5.7 7.5 6.4 3.8 1.6 7.8 5.7 7.4 7.6-.2.7 1.3 2.1 3.2 3.1 1.9 1 4.9 3 6.6 4.5 1.7 1.6 3.8 3.2 4.6 3.8.8.5 3.4 2.5 5.8 4.2 2.8 2.2 5.4 3.3 7.6 3.3 1.8 0 3.5.6 3.7 1.2.4.9.6.9.6.1.1-1.2 7.5 2 9.8 4.3.8.7 2 1.1 2.8.8.9-.4 1.5 0 1.5 1 0 .9.7 1.6 1.5 1.6s2.3.9 3.3 2.1c1.1 1.1 2.6 1.9 3.3 1.8 2-.3 5 1.1 7.7 3.4 1.2 1.1 2.2 1.7 2.2 1.3 0-.4 1.7.5 3.7 1.9 2.1 1.4 4.2 2.5 4.8 2.5.6 0 3.1 2.2 5.6 4.9 3.9 4.3 9.2 7 12.1 6.3.4-.1 2.1 1.1 3.8 2.7 1.8 1.6 4.2 2.9 5.5 2.9 1.3-.1 3.8 1.3 5.6 3 5.1 4.7 10.7 7 20.4 8.1 5 .6 10.4 1.3 12.1 1.5 1.7.2 4.1.9 5.4 1.6 4.3 2.3 27 4.8 27 3 0-.5 1.5-.6 3.3-.4 1.7.3 5.2-.1 7.7-1s5.1-1.6 5.8-1.6c.7 0 2.3-.9 3.5-2.1 4.2-4.1 6.5-4.9 13.3-5.3 5.1-.3 8.5-1.2 13.1-3.5 3.4-1.7 6.4-3.1 6.7-3.1.3 0 2.1-1.7 4.1-3.8 3.8-4.1 4.4-7.3 2-11.8-.8-1.6-1.5-3.7-1.5-4.6 0-.9-.3-2.4-.6-3.2-.7-1.9-9-6-10.3-5.2-.5.3-1.4-.1-2.1-.9-.7-.8-2.3-1.5-3.6-1.5-1.2 0-2.6-.5-2.9-1-.4-.6-2.1-1.7-4-2.4-1.8-.8-3.6-2.3-3.9-3.4-.4-1.1-2.5-2.7-4.6-3.6-2.2-.9-4-2-4-2.5 0-.9-1-1.1-5.5-1-9.9.2-11.8 0-13.4-1.5-1-.9-2.5-1.6-3.4-1.6-.9 0-1.9-.4-2.2-1-.3-.5-1.6-1-2.8-1-1.3 0-3.3-.7-4.5-1.6-1.4-1-3.2-1.4-4.8-1-1.4.4-2.4.2-2.4-.4 0-.5-.7-1-1.5-1s-1.5-.4-1.5-1c0-.5-1.3-1.6-2.9-2.5-4.7-2.4-9.5-7.3-10.7-10.8-.7-2.2-1.8-3.3-3.5-3.5-1.3-.2-2.8-.8-3.4-1.3-.5-.5-1.5-.9-2.2-.9-.6 0-2.9-1.1-4.9-2.5-3.6-2.5-7.1-2.5-3.7 0 1 .7 1.5 1.7 1 2.1-.4.4-.7.2-.7-.5s-.9-.9-2.4-.5c-1.4.3-3.1.2-3.8-.2-.7-.4-2.9-1-4.9-1.1-2-.2-5.4-1.3-7.5-2.3-2.1-1.1-4.9-2-6.1-2-1.3 0-2.3-.6-2.3-1.4 0-.8-1.5-2.6-3.3-4-1.7-1.5-3.7-3-4.2-3.5-.6-.4-2.3-1.2-3.7-1.7-1.4-.5-5.1-3.1-8.2-5.8-4.7-4.2-5.6-5.5-5.6-8.3 0-2.4-.5-3.3-1.6-3.3-1.8 0-7.7-3.1-8.2-4.3-.2-.4-.8-.7-1.3-.7s-3.2-2.3-6-5c-2.8-2.8-5.6-5-6.3-5-1.8 0-7.6-5.6-7.6-7.4 0-.9-.5-1.6-1-1.6-1.6 0-7-5.2-7-6.7 0-.7-.9-1.8-1.9-2.5-1-.6-1.7-1.8-1.4-2.5.3-.8-.3-2-1.3-2.8-1.1-.8-1.5-1.5-1.1-1.5 1 0-4.1-9.1-5.6-10.2-.6-.3-1.6-.4-2.4-.1-.7.3-1.3 0-1.3-.6s.5-1.1 1.1-1.1c1.5 0 .5-4.9-2-9.8-1.1-2.3-2.1-4.8-2.1-5.5 0-.8-1.5-3-3.4-5-1.8-2-3.6-4.8-3.9-6.4-.7-3.5-1.2-5.3-2.2-7.6-.4-.9-.4-2.8-.1-4.2.4-1.4.2-2.5-.3-2.5s-1.5-2.6-2.1-5.8c-.6-3.1-1.4-6.4-1.7-7.2-.3-.8-.7-2.7-.8-4.3-.1-1.5-.8-3.4-1.5-4.2-.6-.7-1.4-5.1-1.7-9.7-.6-9-1.6-12.8-3.4-12.8-1.1 0-.7-19.2.7-28 .3-1.9.7-6.2.9-9.5.2-3.3 1.1-8.5 1.9-11.5.8-3 1.2-5.9.9-6.3-.3-.5-.1-1.9.5-3 1.6-3.6 3.9-9.9 5.3-14.7.7-2.5 2.6-6.9 4.1-9.8 1.6-3 2.7-5.9 2.6-6.5-.1-.7 1-2.5 2.5-4.1 1.5-1.6 2.7-3.7 2.7-4.7 0-1.1.4-1.9.9-1.9s1.1-1.1 1.5-2.3c.5-2.1 4.3-7.7 7.9-11.7 3.5-3.9 9.5-12.8 9-13.4-.4-.3-.1-.6.6-.6 1.7 0 4.4-2.8 3.7-3.8-.3-.5 1.1-2.3 2.9-4.1 1.9-1.8 3.5-4 3.5-4.9 0-.9 5.8-7.8 12.9-15.2 16.2-16.9 16.1-16.8 16.1-18 0-.6.7-1.3 1.5-1.6.8-.4 1.5-1.1 1.5-1.6 0-1.1 8-8.8 9.2-8.8.4 0 .8-.6.8-1.3.1-1.4 4.9-7.1 5.5-6.5.7.7 12.5-10.6 12.5-12 0-.7.5-1.2 1-1.2s1.9-.8 2.9-1.8c5.2-4.8 16.7-14.2 17.4-14.2.2 0 2.9-2.4 5.8-5.4 3-2.9 6.4-5.7 7.6-6 1.2-.4 3.5-2.2 5.2-4.1 1.7-1.9 7.4-6.4 12.8-10 5.4-3.5 10.5-7 11.3-7.7.8-.7 1.7-1.2 2.1-1.1.3.1 2.3-1.6 4.4-3.8 2.2-2.1 4.8-3.9 6-3.9 1.1 0 3.9-1.6 6.3-3.5s6.8-4.1 9.8-5c3.7-1.1 6.6-2.7 8.8-5.1 3.8-4 7.8-6.4 11-6.4 1.1 0 4.1-1.6 6.6-3.6s6.8-4.6 9.6-5.9c2.8-1.3 5.5-2.8 5.8-3.4.4-.6 1.8-1.1 3.2-1.1 1.3 0 3.2-.4 4.2-.9 3.3-1.7 8.7-3 15-3.7 3.5-.4 6.9-1.3 7.7-2 .7-.8 1.6-1.4 1.9-1.4.3 0 2.9-1.1 5.8-2.4 2.9-1.3 7.9-2.9 11-3.6 3.2-.6 8.2-2 11.3-3.1 3-1 11.7-2.6 19.3-3.4 7.5-.8 16.6-2.1 20.2-2.9 3.6-.8 10.1-2.2 14.5-3.2 4.4-.9 8.9-2.1 10-2.7 5.1-2.7 16.4-4.7 29.5-5.2 6.3-.3 13.1-1 15-1.6 4.6-1.4 55.8-2.3 93-1.6 11.9.2 15.1.5 17.9 2.1 2.4 1.3 4.7 1.7 7.7 1.3 5.4-.6 13.5 1.3 20.8 4.7 3 1.4 6.6 2.6 7.9 2.6 1.4 0 3 .7 3.7 1.5.7.8 2.3 1.5 3.6 1.5 1.3 0 2.4.4 2.4 1 0 .5.4 1 1 1 .5 0 3.3 1.1 6.2 2.4 2.9 1.3 6.4 2.7 7.8 3.1 1.4.4 3.1 1.6 3.8 2.6.7 1.1 2.2 1.9 3.2 1.9s2.5.7 3.4 1.5c.8.8 2.1 1.5 2.9 1.5.8 0 2 .7 2.7 1.5.7.8 1.8 1.5 2.5 1.5s1.8.7 2.6 1.6c.7.8 2.1 1.3 3.1 1.1 1.1-.3 1.8 0 1.8.9 0 1.3 10.1 8.8 13.7 10.1 1 .4 5.3 3.4 9.6 6.7 4.3 3.4 9.3 7.1 11 8.3 5.6 3.9 7.7 5.8 7.7 7 0 .7 1.7 2.5 3.7 4 4.4 3.4 13.3 12.4 13.3 13.5 0 .4.6.8 1.3.8 1.8 0 9.5 9.6 16.2 20.2 1.7 2.5 4.2 5.3 5.7 6.2 1.4.9 3.6 3.2 4.8 5.1 1.2 1.9 2.7 3.8 3.4 4.2 1.7 1.1 7.6 9.5 7.6 10.9 0 .6 1.8 3.1 4 5.5s4 4.9 4 5.5c0 .7.7 1.4 1.5 1.8.8.3 1.5 1.1 1.5 1.7 0 .7 1.1 2.6 2.4 4.3 1.2 1.7 3 4.4 3.9 6.1.8 1.6 2.9 4.5 4.6 6.4 1.7 1.9 3.4 4.3 3.7 5.5.4 1.1 2.6 5.2 5 9 2.4 3.9 4.4 7.6 4.4 8.2 0 1.6 3.1 7.7 4.6 8.9.6.5 2 3.2 3 6 .9 2.7 2.6 6.2 3.6 7.7 1.1 1.6 1.7 3.2 1.4 3.6-.3.5.8 3.4 2.5 6.7 1.6 3.2 2.9 6.4 2.9 7.1 0 .8.5 1.4 1 1.4.6 0 1 .9 1 2.1 0 1.8 5.8 15.2 9.6 22.1.8 1.5 1.7 4 1.9 5.5.6 4.3 3.4 16 5.1 20.9 2.7 7.9 4.4 44.6 2.3 48.5-.5 1-.9 5.6-.9 10.3 0 8.7-3.4 38.8-5 44.1-.5 1.6-1.2 5.2-1.6 8-.9 6.9-4.3 17.5-6.5 20.4-1.1 1.3-1.9 2.8-1.9 3.3s-.9 2.8-1.9 5.1c-1 2.3-2.6 5.9-3.4 7.9-.9 2.1-2.1 3.8-2.6 3.8-.6 0-1.1.7-1.1 1.5s-.4 1.5-.8 1.5c-.5 0-1.3.9-1.8 1.9-.8 1.6-8.6 10.6-16.9 19.6-1.1 1.2-4.2 3.8-7 5.8-2.7 2-6.6 5-8.5 6.7-6.2 5.5-18.7 15-19.7 15-.6 0-1.8.9-2.8 2-1 1.2-2.5 1.8-3.2 1.6-.7-.3-1.3-.2-1.3.3s-1.6 1.6-3.5 2.5c-1.9.9-3.5 2.2-3.5 2.9 0 .7-1.2 1.8-2.8 2.4-1.5.7-5.4 3.5-8.7 6.3-3.2 2.7-6.7 5.3-7.7 5.6-1 .3-1.8 1-1.8 1.5s-.8.9-1.7.9c-1.9.1-5.3 2.2-5.3 3.4 0 .3-1.3 1.8-2.9 3.3-2.3 2.3-2.8 3.6-2.7 7.1.1 3.8.7 4.9 5.3 9.3l5.2 4.9h8.3c8.4 0 11.5 1 14.4 4.9 1.3 1.7 8.2.9 11.7-1.3 1.2-.8 4.5-2 7.4-2.7 2.9-.7 6.3-2.3 7.7-3.6 1.4-1.3 3-2.3 3.5-2.3.9 0 11.1-7.6 15.4-11.4.9-.9 1.7-1.4 1.7-1 0 .3 1.5-.9 3.3-2.5 1.7-1.7 3.7-3.1 4.3-3.1.6 0 2.1-1.1 3.4-2.5 1.2-1.3 4.7-3.9 7.6-5.7 3-1.8 5.4-3.8 5.4-4.5 0-.7 2-3.1 4.5-5.4 2.5-2.3 4.5-4.8 4.5-5.6 0-.7 1-2.1 2.1-3.1 6.2-5 13.9-12.7 13.9-13.8 0-.8.9-1.9 2-2.6 1.1-.7 2-1.7 2-2.1 0-.5 1.1-1.8 2.5-2.9 1.4-1.1 3.5-3.9 4.7-6.1 1.1-2.3 2.4-4.4 2.7-4.7.4-.3 2.4-3.2 4.4-6.5 2-3.3 5.6-8.4 8-11.3 2.4-3 5-7.2 5.8-9.5.7-2.3 2.8-7 4.6-10.5 1.8-3.4 3.3-6.8 3.3-7.5 0-.6 1.4-3.9 3-7.1 1.7-3.2 3-7.3 3-8.9 0-3.1 3.4-17.5 5-21.2.5-1.1 1.3-8.7 1.9-16.8.5-8.1 1.4-15.3 1.9-16 2.9-3.7 3.5-9.7 3.4-33.1-.1-13.1-.6-26.2-1.1-29-.6-2.8-1-8.3-.9-12.1.2-10.4-.9-19.7-3.1-26.2-1-3.2-2.2-7.8-2.6-10.3-.4-2.5-1.1-5.2-1.6-6.1-.4-.8-1-3.3-1.3-5.5-.9-7.2-2.7-13.7-4.5-16.3-1-1.4-2.3-4.9-3-7.6-.7-2.8-2-6.8-3-9-3.1-7-4.1-9-5-10.5-.5-.8-1.4-2.9-2.1-4.5-.7-1.7-1.6-3.7-2.1-4.5-.5-.8-1.4-2.6-2-4-3.4-7.4-4.5-9.5-5.1-9.8-.5-.2-.8-.8-.8-1.4 0-1.2-5.3-12-8-16.3-1-1.7-1.9-3.8-1.9-4.8-.1-2.5-9.4-20.6-12.6-24.5-3.1-3.7-12.8-17.7-13.3-19.2-.7-2-6.6-9.4-12.4-15.4-2.7-2.7-4.8-5.6-4.8-6.5 0-.9-2.9-5.4-6.5-10.1-3.6-4.7-7.7-10.3-9.2-12.5-1.4-2.2-3-4.2-3.4-4.3-.5-.2-.9-1-.9-1.8s-.5-1.4-1.1-1.4c-.6 0-7.6-6.5-15.5-14.5S876.6 265 876 265c-.5 0-1-.4-1-.9 0-1.3-6.3-7.5-7.8-7.8-1.5-.2-4.6-2.7-9.9-8.2-1.8-1.9-3.3-3-3.3-2.5s-.4.4-.8-.1c-.4-.6-2.3-2.2-4.2-3.5-1.9-1.3-5.2-3.9-7.3-5.7-2-1.8-4.1-3.3-4.7-3.3-1.1 0-9.9-5.9-11.5-7.6-.5-.7-2.8-1.7-5-2.4s-5.4-2.4-7.1-3.7c-1.7-1.2-3.7-2.3-4.5-2.3-.8 0-3.8-1.6-6.7-3.5-2.9-2-8.3-4.5-12-5.6-3.7-1.2-7.6-2.7-8.8-3.4-1.2-.8-4.6-2.1-7.7-3-3.1-.9-5.9-2-6.2-2.5-.5-.8-7.3-2.5-8.8-2.2-.4.1-2.4-.7-4.4-1.8-2.1-1.1-4.5-2-5.3-2-.9 0-4-.6-7-1.4-3-.8-9.5-1.7-14.5-2.1-8-.6-53-1.1-69-.7-3.3.1-7.5-.1-9.5-.3-1.9-.3-4.1-.1-4.9.4z"/><path d="M599.7 305.9c-3.2 2.3-6 4.1-6.3 4.1-1.9 0-10.4 12.4-10.4 15.2 0 1.3-.7 3.4-1.6 4.6-1.3 1.9-1.5 4-1 10.5.3 4.5.5 11.2.5 14.9 0 7.9 2.1 13.4 7.3 18.9 4.9 5.2 14.5 9.1 17.1 7.1.7-.5 2.9-1.2 5-1.6 2-.4 3.7-1.1 3.7-1.6 0-.6 1-1 2.3-1 1.2 0 4-.6 6.2-1.4 4.3-1.5 4.6-2.2 7.4-14.1.6-2.8 2.1-5.8 3.3-6.8 1.5-1.3 2.2-3.1 2.4-7 .3-5.7 4.9-19.7 7.7-23.7 2.6-3.7 2.1-6.6-1.8-10.9-4.3-4.7-13.7-9.1-20.7-9.6-2.9-.2-7.5-.7-10.3-1-4.7-.6-5.4-.4-10.8 3.4zM439.2 349.2c-1.5 1.5-2.9 1.7-11.7 1.9-6.7.1-10.9 1.5-14.3 4.6-.7.7-1.7 1.3-2.2 1.3-1.6 0-4.2 5.3-6.1 12.5-3.2 12.2-1.8 23.2 4.6 37.2.8 1.7 1.5 3.4 1.5 3.8 0 .3 1.3 2.6 3 4.9 2.2 3.3 3.6 4.4 5.7 4.4 3.3.1 12.3-2.6 12.3-3.7 0-.4 2.7-.4 6-.1 3.3.3 6.6.2 7.3-.2.7-.4 2-.8 3-.8 4.1 0 6.6-6.4 8.2-20.5.8-7.2 2.7-14.7 4.2-17 .7-1.1 1.3-4 1.3-6.5s.4-5 .9-5.6c2.4-2.5 2.1-5.3-.9-8.7-5.7-6.6-19.3-11-22.8-7.5zM769.2 415c-1.2.5-5.3 1.2-9 1.6-3.7.3-11.1 1.7-16.4 3-5.3 1.3-11.4 2.4-13.5 2.4-2.1.1-7.8 1-12.8 2.1-4.9 1.1-10.5 2.1-12.4 2-1.9 0-4.6.6-6 1.3-1.4.7-5.6 1.6-9.3 1.9-3.7.4-7.8 1.3-9 2.1-1.3.8-5.3 2-9 2.7-3.8.7-6.8 1.6-6.8 2 0 .4-1.8 1.4-4.1 2.3-4.9 2-13.5 2.9-37.9 4.1-6.3.3-12.8.8-14.4 1.1-3.4.7-34.5.9-35.2.2-.2-.3-2.6-.1-5.2.4s-9.9 1.1-16.2 1.3c-20.2.8-24.4 1.3-30.6 3.4-3.4 1.1-7.8 2.1-10 2.2-2.1.1-5.9.7-8.4 1.4s-7.6 1.8-11.5 2.5c-3.8.7-7.7 1.7-8.5 2.1-2.9 1.4-15.7 5.1-17.1 4.8-.8-.2-5.7.7-10.9 2-9.9 2.4-26.4 4-41.5 4.1-5.9.1-9.9.6-11.5 1.5-1.4.8-4.1 1.4-6.1 1.5-2 0-4.2.7-4.9 1.5-.7.8-1.8 1.4-2.4 1.4-.6-.1-1.8.1-2.6.4-.8.3-5.3 1.3-10 2.2-9.9 2-21.5 6.3-28.4 10.7-4.1 2.7-6.1 3.2-14 3.9-10.1.8-14.6 1.7-14.6 3 0 .4-1.6 2.5-3.5 4.6-3.7 4.1-6.5 9.1-6.5 11.7 0 .9-.7 2.8-1.6 4.1-.8 1.3-1.4 3.2-1.3 4.2.1 1 0 2.5-.4 3.3-1.4 3.8-1.5 6.8-.2 10.5.8 2.2 2 7.5 2.7 11.7.6 4.3 1.5 7.8 1.9 7.8.3 0 1.2 1.5 1.9 3.2.7 1.8 1.9 4.6 2.6 6.3.7 1.6 1.5 4.7 1.9 6.7.3 2.1 1 3.8 1.5 3.8.6 0 1 1.1 1 2.4 0 1.3.7 3.7 1.5 5.3.8 1.5 2.6 5.4 4 8.5 1.3 3.2 2.8 5.8 3.3 5.8 1.4 0 4.4 6.1 3.9 8.1-1 3.9 29.2 32 40.5 37.8 5.9 3 12.6 8.3 16.8 13.3 2.3 2.6 5.6 5.6 7.3 6.4 1.8.9 3.5 2.1 3.8 2.6.3.5 1.4 1 2.3 1.2 1 .1 2.1.7 2.4 1.2 1.1 1.5 9.4 7 13.2 8.8 1.9.9 4.6 2.3 6 3.1 1.4.8 3.5 1.5 4.8 1.5 1.3 0 3.2.5 4.2 1 1.3.7 2.1.7 2.5 0 .4-.6 1.5-.8 2.5-.5 1.1.3 4.7.1 8.1-.5 4.6-.8 6.7-1.8 8.1-3.6 1.1-1.3 2.9-2.4 4.1-2.4 3.5 0 10.2 2.7 10.5 4.2.1.7 1.6 1.9 3.1 2.6 1.7.8 3.2 2.3 3.6 3.9.3 1.5 1.6 4.1 2.8 5.7 1.2 1.7 2 3.1 1.8 3.1-.3 0 .2 1.1 1.1 2.5 1.2 1.9 1.4 3.7.9 7.5-.4 2.8-.3 6.6.2 8.5.4 1.9.7 21.3.6 43-.1 21.7-.2 41.3-.2 43.5-.1 23.9 1.7 40.4 5.8 51.5.9 2.5 2.1 5.9 2.6 7.7.5 1.8 1.6 4.5 2.4 6 .8 1.5 1.5 3.4 1.5 4.1 0 2.2 3.2 8.5 5.2 10.3 1 .9 1.8 2 1.8 2.5s1.1 1.8 2.5 2.8c1.4 1 2.5 2.5 2.5 3.2 0 .8.4 1.4.8 1.4s1.6 1.3 2.5 3c1 1.7 2.5 3 3.3 3 .8 0 1.4.6 1.2 1.2-.4 2.1 2.2 6 6.4 10 2.2 2.1 4.3 3.8 4.6 3.8.3 0 2.3 1.5 4.6 3.3 5.1 4 7.1 5 16.6 7.8 4.1 1.2 7.8 2.7 8.2 3.3.4.6.8.7.8.3 0-.4 2.1.4 4.6 1.8 3.4 1.9 5.9 2.5 9.7 2.4 2.9-.1 6.8.6 8.8 1.5 2.7 1.1 7.5 1.6 18 1.7 7.9.1 16.7.2 19.4.3 5.7.1 19.3-2.3 20.1-3.6.3-.4 2-.8 3.7-.8 1.8 0 5.2-1.1 7.6-2.5 2.3-1.4 5.1-2.5 6.2-2.5 1 0 2.8-.4 4.1-1 1.3-.5 4.2-1.4 6.5-2 2.3-.6 4.8-1.6 5.5-2.3 1.8-1.7 6.5-3.7 8.8-3.7 1 0 3.2-1.1 4.8-2.5 1.7-1.4 3.4-2.5 4-2.5.5 0 1.2-.7 1.6-1.5.3-.8 1.1-1.5 1.9-1.5.7 0 2.4-1.2 3.8-2.6 1.3-1.4 6.5-5.7 11.4-9.4 8.3-6.3 25.5-22.9 25.5-24.6 0-.4 1.3-1.9 2.9-3.5 1.6-1.5 3.7-4.4 4.6-6.3 1-2 2.1-3.6 2.6-3.6.6 0 1.3-.8 1.7-1.8 2-5 7.9-13.1 11.5-15.7 3.2-2.4 4.6-4.4 6.4-9.4 1.3-3.6 3.1-7.4 4.1-8.5 2.4-2.9 4.2-6.3 4.2-8 0-.7.8-1.6 1.8-1.8 1.6-.5 4.2-4.8 7.2-12.3 3.4-8.4 5.1-13.2 7.4-21 1.6-5 3.2-9.8 3.7-10.7.5-1 .9-3.1.9-4.7 0-1.7.9-4.5 2-6.4 1.3-2.1 2.4-6.7 3-11.7.5-4.5 1.3-8.7 1.8-9.4 1.2-1.4 5.3-12.4 5.7-15.1.6-3.6 1.7-15.4 2.1-22.8.2-4 .7-10.1 1-13.7 1-10 .8-13.9-1-21.5-1-3.9-2-7.7-2.3-8.5-.3-.8-.7-2.4-.9-3.5-.2-1.1-1.2-6.1-2.4-11-1.2-5-2.4-10.1-2.7-11.5-.3-1.4-1.2-3.4-1.8-4.5-.7-1.1-2.3-4.9-3.6-8.5-1.3-3.6-3.1-7.4-4.1-8.4-.9-1-1.5-2.3-1.2-2.8.6-.9-3.6-7.8-4.7-7.8-.3 0-1.2-1.9-2-4.3-.7-2.3-2.1-5.1-3.1-6.1-2.3-2.6-2.3-4.1.2-6.6 1.1-1.1 3.1-4.5 4.5-7.6 1.3-3 4-7.4 5.9-9.7 1.9-2.3 3.5-4.5 3.5-5 0-.4.3-1.7.5-3 .2-1.2 1-6.5 1.6-11.7.7-5.2 1.6-10 2.2-10.7 2.1-2.6 4.7-15.3 6.8-33.3 1.6-12.9 1.7-13.6 2.8-20.5.5-3.3.7-7.5.5-9.3-.3-1.7.2-5.3 1-8 1.4-4.3 3.1-15.9 3-20.7-.1-6.6-1.2-9.1-5.8-13.2-2.6-2.4-5.5-4.3-6.4-4.3-.9 0-2.1-.4-2.6-.9-2.6-2.5-20.6-3.9-25.3-2.1zM653.9 583c4.1.6 8.2 1.7 9 2.4.9.8 3.1 1.7 5 2.1 2.1.4 5.1 2.5 8 5.4 5.3 5.3 13 11.1 14.8 11.1.7 0 1.3.6 1.3 1.4 0 .8.8 1.7 1.8 2.1.9.3 2.8 2.1 4.2 3.9 1.4 1.9 3.7 3.7 5.3 4 1.5.3 2.7 1.2 2.7 2s.6 1.9 1.3 2.3c3.1 1.9 26.4 29 28.6 33.2.7 1.4 1.9 3.3 2.6 4.1 2 2.4 6.6 14.9 8.6 23 1 4.1 2.3 9.3 2.9 11.5.6 2.2 1.1 5.5 1 7.4 0 1.8.4 3.8.9 4.5 1.4 1.7.8 19.6-.8 22.4-.7 1.3-1.4 4-1.6 6-.8 7-3.3 17.2-5.5 21.7-1.2 2.5-1.9 5.2-1.6 6 .3.8.2 1.5-.3 1.5-.4 0-1.4 1.9-2.1 4.2-1.5 5.1-2.7 8.3-4.6 12.1-.8 1.6-1.4 3.5-1.4 4.3 0 .8-.4 1.4-1 1.4-.5 0-1 .7-1 1.5 0 2.1-3.7 9.2-5.2 10.2-.7.4-3.4 3.9-5.9 7.8-6.4 9.6-16.9 20.8-24.3 25.7-3.3 2.3-7.8 5.6-9.8 7.4-2.1 1.9-4.9 3.6-6.3 4-1.4.3-2.5.9-2.5 1.4 0 1.4-7.8 4.2-9.9 3.5-1.2-.3-2.1-.2-2.1.3 0 1.3-11.3 4.4-17.4 4.8-2.7.2-7.6.8-10.8 1.4-3.2.6-6.8.8-7.8.5-1.1-.4-2-.3-2 .2 0 .9-14.2 1.2-15 .3-.3-.3-3.9-1.4-8-2.3-4.1-1-9.5-2.3-12-2.9-2.5-.6-5.6-1.2-7-1.3-1.4-.1-4.6-1.2-7.2-2.3-2.6-1.2-5-2.2-5.3-2.2-2.7 0-18.5-14.6-18.5-17.1 0-.6-1.2-2.6-2.7-4.4-4.3-5-5.8-7-6.1-8.4-.1-.6-1.9-5.3-3.9-10.4-3.8-9.7-4.6-14.8-5.9-39.4-.3-6.1-.9-12.4-1.3-13.8-.3-1.5-.3-6.4.2-10.8 1.1-11.6 1.7-21.6 2.1-33.2.2-5.5.6-11.2 1.1-12.8.4-1.5.3-3.3-.2-4-.6-.6-1.1-7-1.1-14.1-.2-11.9-1.5-20.6-3.2-20.6-.4 0-1-1.7-1.3-3.8-1.1-6.7-3.2-13-5-15-.9-1-1.7-2.3-1.7-2.9 0-.6-1.3-2.5-3-4.3-1.6-1.8-3-3.6-3-4 0-.5-1.2-1.9-2.7-3.2-4.2-3.6-5.5-6.4-4.7-10.2.5-2.9 1.1-3.5 4.7-4.5 2.3-.7 6-1.3 8.2-1.5 4.6-.4 16.5-3.4 18-4.6.6-.4 2.1-1 3.5-1.3 1.4-.3 5.9-1.8 10.1-3.5 6.6-2.5 11.6-3.2 16.1-2.3 1.2.2 3.6 6.3 5.4 13.5 1.1 4.4 3.2 9.2 5.8 13 6.9 10.2 7.9 13.1 8.2 23.5.2 5.2.8 9.9 1.4 10.5.5.5 1 2 1 3.2 0 3.6 1.1 5.4 4 6.9 5.3 2.7 12.1 4.6 14.3 3.9 2.7-.8 6.7-4.3 6.7-5.9 0-.6 2.5-3.4 5.5-6.2 3.6-3.4 5.5-6 5.5-7.5 0-1.3.7-3.5 1.5-5.1 1.6-3.2 3.5-12.5 3.5-17.6 0-2 1-5.4 2.2-7.6 1.9-3.6 2.1-5.3 1.9-17.3-.2-11.5 0-13.7 1.5-15.3 1-1.1 2.4-1.7 3.3-1.4.9.2 5 .9 9 1.5z"/></svg>