<svg xmlns="http://www.w3.org/2000/svg" viewBox="0 0 128 128"><path d="M64 6c-15.5 0-30.1 6-41 17C12 33.9 6 48.5 6 64s6 30.1 17 41c11 11 25.5 17 41 17s30.1-6 41-17c11-11 17-25.5 17-41s-6-30.1-17-41C94.1 12 79.5 6 64 6zm0 6c13.9 0 26.9 5.4 36.8 15.2C110.7 37 116 50.1 116 64c0 13.9-5.4 26.9-15.2 36.8C90.9 110.6 77.9 116 64 116c-13.9 0-26.9-5.4-36.8-15.2C17.3 91 12 77.9 12 64c0-13.9 5.4-26.9 15.2-36.8C37 17.3 50.1 12 64 12zM50.562 47.5c-.762 0-1.512.3-2.062.9-1.2 1.2-1.2 3.1 0 4.2L59.8 64 48.4 75.3c-1.2 1.2-1.2 3.1 0 4.2.6.6 1.4.9 2.1.9.7 0 1.5-.3 2.1-.9L64 68.2l11.3 11.3c.6.6 1.4.9 2.1.9.7 0 1.5-.3 2.1-.9 1.2-1.2 1.2-3.1 0-4.2L68.2 64l11.3-11.3c1.2-1.2 1.2-3.1.1-4.3-1.2-1.2-3.1-1.2-4.2 0L64 59.8 52.7 48.4c-.6-.6-1.375-.9-2.138-.9z"/></svg>