<svg xmlns="http://www.w3.org/2000/svg" width="41.149" height="28.152"><path fill="#fff" fill-rule="evenodd" d="M19.008 3.168V24.66q0 .828-.054 1.242-.054.414-.342.918a1.402 1.402 0 0 1-.584.543q-.796.429-2.458.429a5.3 5.3 0 0 1-.981-.083q-.507-.096-.875-.303a1.832 1.832 0 0 1-.934-1.378 4.944 4.944 0 0 1-2.974 1.627 7.24 7.24 0 0 1-1.238.101 7.418 7.418 0 0 1-.05 0q-2.283-.016-4.278-1.437a10.736 10.736 0 0 1-1.576-1.389Q0 22.104 0 18.342t2.682-6.606a10.538 10.538 0 0 1 1.951-1.648 7.152 7.152 0 0 1 3.935-1.196 6.323 6.323 0 0 1 1.762.232 4.695 4.695 0 0 1 2.378 1.568v-7.56q0-.828.054-1.242a2.135 2.135 0 0 1 .08-.354q.052-.17.135-.355a4.342 4.342 0 0 1 .109-.227q.27-.522.954-.738a3.903 3.903 0 0 1 .524-.123q.275-.046.599-.07A9.738 9.738 0 0 1 15.858 0q.738 0 1.286.092a3.919 3.919 0 0 1 .532.124q.684.216.954.756.27.54.324.954a4.762 4.762 0 0 1 .026.266q.028.381.028.976zm3.005 11.474a10.09 10.09 0 0 0-.665 3.718q0 2.88 1.53 5.166a12.027 12.027 0 0 0 .496.687 9.981 9.981 0 0 0 3.266 2.769 11.406 11.406 0 0 0 .175.09 9.763 9.763 0 0 0 4.433 1.08q2.376 0 4.59-1.098a8.911 8.911 0 0 0 1.944-1.311 10.729 10.729 0 0 0 1.818-2.109q1.548-2.322 1.548-5.31 0-4.32-2.988-7.11a12.508 12.508 0 0 0-.093-.086 9.757 9.757 0 0 0-6.783-2.704 9.669 9.669 0 0 0-3.618.68q-1.758.702-3.294 2.128a9.218 9.218 0 0 0-2.359 3.41zm6.859 6.292a4.802 4.802 0 0 0 .906.555 3.398 3.398 0 0 0 1.434.327 3.412 3.412 0 0 0 1.406-.315q.485-.218.97-.585a2.912 2.912 0 0 0 1.123-1.885 4.439 4.439 0 0 0 .065-.779 4.43 4.43 0 0 0-.109-1.015q-.18-.764-.656-1.289a2.722 2.722 0 0 0-.351-.324 4.204 4.204 0 0 0-1.198-.661 3.682 3.682 0 0 0-1.214-.203 3.658 3.658 0 0 0-2.059.641 4.727 4.727 0 0 0-.353.259 2.904 2.904 0 0 0-1.025 1.719 4.479 4.479 0 0 0-.091.927q0 1.746 1.152 2.628zM7.236 20.52a3.115 3.115 0 0 0 1.206.796 3.147 3.147 0 0 0 1.062.176q1.332 0 2.214-.972a3.599 3.599 0 0 0 .602-.886 2.919 2.919 0 0 0 .28-1.256 3.194 3.194 0 0 0-.557-1.792 4.224 4.224 0 0 0-.289-.386 2.768 2.768 0 0 0-1.999-.998 3.87 3.87 0 0 0-.287-.01 3.383 3.383 0 0 0-1.07.162 2.772 2.772 0 0 0-1.234.828 3.651 3.651 0 0 0-.613.955A3.06 3.06 0 0 0 6.3 18.36a2.911 2.911 0 0 0 .606 1.772 3.988 3.988 0 0 0 .33.388z"/></svg>