<!-- Fredoka One, 36 -->
<svg width="128.556" height="28.152" xmlns="http://www.w3.org/2000/svg"><path d="M90.108 15.804l-3.96 9.648a4.626 4.626 0 0 1-.519 1.076 3.377 3.377 0 0 1-1.281 1.156 2.451 2.451 0 0 1-.527.172q-.255.054-.551.072a4.951 4.951 0 0 1-.29.008 2.279 2.279 0 0 1-1.076-.278 3.214 3.214 0 0 1-.526-.352 4.727 4.727 0 0 1-.47-.435q-.226-.242-.376-.486a2.203 2.203 0 0 1-.18-.357l-.288-.612a37.348 37.348 0 0 1-.162-.417q-.47-1.221-1.962-5.199-.346.832-1.01 2.681a175.85 175.85 0 0 0-.052.145 307.112 307.112 0 0 1-.245.684q-.494 1.369-.655 1.764a39.327 39.327 0 0 0-.079.197q-.131.324-.173.451a1.028 1.028 0 0 1-.036.091q-.059.132-.186.357a11.876 11.876 0 0 1-.084.146 3.826 3.826 0 0 1-.409.576 3.381 3.381 0 0 1-.167.18 3.094 3.094 0 0 1-.804.591 2.598 2.598 0 0 1-1.176.273 3.272 3.272 0 0 1-.907-.121 2.621 2.621 0 0 1-.965-.509q-.553-.461-.837-.932a2.261 2.261 0 0 1-.171-.346L64.548 12.78a20.426 20.426 0 0 1-.122-.378q-.183-.587-.225-.878a1.059 1.059 0 0 1-.013-.148 1.906 1.906 0 0 1 .632-1.409q.506-.49 1.42-.859a9.221 9.221 0 0 1 .646-.237q.644-.207 1.117-.228a2.369 2.369 0 0 1 .109-.003q.576 0 .979.196a1.519 1.519 0 0 1 .191.11q.304.206.485.413a1.321 1.321 0 0 1 .145.199q.18.306.288.63a31.789 31.789 0 0 1 .277.677q.7 1.762 2.279 6.091l2.124-5.832q.216-.72.792-1.26.73-.73 1.478-.95a2.284 2.284 0 0 1 .646-.094 3.383 3.383 0 0 1 .975.135 2.813 2.813 0 0 1 .879.441 5.243 5.243 0 0 1 .456.378q.413.387.606.774l.288.612a707.269 707.269 0 0 0 .623 1.738q1.068 2.965 1.411 3.808a6.643 6.643 0 0 0 .09.214l2.196-5.976q.864-2.304 2.592-2.304a2.937 2.937 0 0 1 .793.114 4.038 4.038 0 0 1 .647.246 7.17 7.17 0 0 1 .926.481q1.042.651 1.296 1.462a1.797 1.797 0 0 1 .082.541q0 .612-.576 1.962a118.071 118.071 0 0 0-.406.964q-.318.764-.566 1.394zm-71.1-12.636V24.66q0 .828-.054 1.242-.054.414-.342.918a1.402 1.402 0 0 1-.584.543q-.796.429-2.458.429a5.3 5.3 0 0 1-.981-.083q-.507-.096-.875-.303a1.832 1.832 0 0 1-.934-1.378 4.944 4.944 0 0 1-2.974 1.627 7.24 7.24 0 0 1-1.238.101 7.418 7.418 0 0 1-.05 0q-2.283-.016-4.278-1.437a10.736 10.736 0 0 1-1.576-1.389Q0 22.104 0 18.342t2.682-6.606a10.538 10.538 0 0 1 1.951-1.648 7.152 7.152 0 0 1 3.935-1.196 6.323 6.323 0 0 1 1.762.232 4.695 4.695 0 0 1 2.378 1.568v-7.56q0-.828.054-1.242a2.135 2.135 0 0 1 .08-.354q.052-.17.135-.355a4.342 4.342 0 0 1 .109-.227q.27-.522.954-.738a3.903 3.903 0 0 1 .524-.123q.275-.046.599-.07A9.738 9.738 0 0 1 15.858 0q.738 0 1.286.092a3.919 3.919 0 0 1 .532.124q.684.216.954.756.27.54.324.954a4.762 4.762 0 0 1 .026.266q.028.381.028.976zm106.38 12.06l-2.34-.144v4.968a4.917 4.917 0 0 0 .022.478q.06.609.284.926a.894.894 0 0 0 .388.303q.16.068.365.1a2.581 2.581 0 0 0 .399.029q.698 0 1.126.037a5.06 5.06 0 0 1 .17.017q.419.05.884.303a3.71 3.71 0 0 1 .07.039q.828.468.828 2.412a7.841 7.841 0 0 1-.048.908q-.11.937-.47 1.437a1.341 1.341 0 0 1-.49.427q-.41.192-.748.269a2.207 2.207 0 0 1-.206.037 4.824 4.824 0 0 1-.263.026q-.286.021-.687.026a20.534 20.534 0 0 1-.256.002q-3.744 0-5.688-1.692-1.455-1.267-1.821-3.845a13.41 13.41 0 0 1-.123-1.879v-5.328a8.787 8.787 0 0 1-.897.093 10.759 10.759 0 0 1-.579.015 1.642 1.642 0 0 1-1.231-.52 2.061 2.061 0 0 1-.083-.092 1.747 1.747 0 0 1-.297-.523q-.189-.502-.219-1.268a7.612 7.612 0 0 1-.006-.297 19.542 19.542 0 0 1 .012-.687q.023-.671.097-1.118a3.469 3.469 0 0 1 .071-.337 3.212 3.212 0 0 1 .123-.371q.073-.179.162-.319a1.233 1.233 0 0 1 .219-.264 2.066 2.066 0 0 1 .995-.434 2.807 2.807 0 0 1 .445-.034l1.188.144V5.364q0-.656.034-1.041a3.893 3.893 0 0 1 .02-.183 1.732 1.732 0 0 1 .092-.36q.088-.241.25-.504a1.234 1.234 0 0 1 .522-.503q.72-.397 2.25-.397a6.853 6.853 0 0 1 .977.064q1.112.161 1.621.727a1.589 1.589 0 0 1 .318.541 2.882 2.882 0 0 1 .087.377q.07.412.087 1.021a15.138 15.138 0 0 1 .006.438v3.528q1.213-.11 1.972-.136a12.505 12.505 0 0 1 .422-.008q.662 0 1.059.036a4.242 4.242 0 0 1 .165.018 2.022 2.022 0 0 1 .343.078q.282.089.611.264a1.277 1.277 0 0 1 .543.556q.393.722.393 2.216a8.128 8.128 0 0 1-.046.908q-.166 1.47-.926 1.864-.41.192-.748.269a2.207 2.207 0 0 1-.206.037 4.762 4.762 0 0 1-.265.026q-.382.028-.977.028zm-13.896-3.204v12.6q0 .828-.054 1.242a2.413 2.413 0 0 1-.075.354q-.05.173-.128.364a5.028 5.028 0 0 1-.103.236 1.462 1.462 0 0 1-.658.61q-.536.269-1.417.316a7.317 7.317 0 0 1-.391.01q-1.953 0-2.622-.482a1.197 1.197 0 0 1-.006-.004 1.85 1.85 0 0 1-.71-1.074 2.614 2.614 0 0 1-.064-.348q-1.332 1.908-4.446 1.908a6.927 6.927 0 0 1-3.849-1.196q-.961-.628-1.87-1.586a13.263 13.263 0 0 1-.059-.062q-2.664-2.844-2.664-6.606t2.682-6.588a10.499 10.499 0 0 1 1.973-1.652 7.179 7.179 0 0 1 3.913-1.174 6.028 6.028 0 0 1 1.378.152 5.138 5.138 0 0 1 .854.28q1.008.432 1.404.81a5.961 5.961 0 0 1 .34.35q.174.197.308.388.195-1.82 2.357-1.997a5.99 5.99 0 0 1 .487-.019q1.404 0 2.088.216.684.216.954.756.27.54.324.954a4.762 4.762 0 0 1 .026.266q.028.381.028.976zm-89.479 2.618a10.09 10.09 0 0 0-.665 3.718q0 2.88 1.53 5.166a12.027 12.027 0 0 0 .496.687 9.981 9.981 0 0 0 3.266 2.769 11.406 11.406 0 0 0 .175.09 9.763 9.763 0 0 0 4.433 1.08q2.376 0 4.59-1.098a8.911 8.911 0 0 0 1.944-1.311 10.729 10.729 0 0 0 1.818-2.109q1.548-2.322 1.548-5.31 0-4.32-2.988-7.11a12.508 12.508 0 0 0-.093-.086 9.757 9.757 0 0 0-6.783-2.704 9.669 9.669 0 0 0-3.618.68q-1.758.702-3.294 2.128a9.218 9.218 0 0 0-2.359 3.41zm21.6 0a10.09 10.09 0 0 0-.665 3.718q0 2.88 1.53 5.166a12.027 12.027 0 0 0 .496.687 9.981 9.981 0 0 0 3.266 2.769 11.406 11.406 0 0 0 .175.09 9.763 9.763 0 0 0 4.433 1.08q2.376 0 4.59-1.098a8.911 8.911 0 0 0 1.944-1.311 10.729 10.729 0 0 0 1.818-2.109q1.548-2.322 1.548-5.31 0-4.32-2.988-7.11a12.508 12.508 0 0 0-.093-.086 9.757 9.757 0 0 0-6.783-2.704 9.669 9.669 0 0 0-3.618.68q-1.758.702-3.294 2.128a9.218 9.218 0 0 0-2.359 3.41zm-14.741 6.292a4.802 4.802 0 0 0 .906.555 3.398 3.398 0 0 0 1.434.327 3.412 3.412 0 0 0 1.406-.315q.485-.218.97-.585a2.912 2.912 0 0 0 1.123-1.885 4.439 4.439 0 0 0 .065-.779 4.43 4.43 0 0 0-.109-1.015q-.18-.764-.656-1.289a2.722 2.722 0 0 0-.351-.324 4.204 4.204 0 0 0-1.198-.661 3.682 3.682 0 0 0-1.214-.203 3.658 3.658 0 0 0-2.059.641 4.727 4.727 0 0 0-.353.259 2.904 2.904 0 0 0-1.025 1.719 4.479 4.479 0 0 0-.091.927q0 1.746 1.152 2.628zm21.6 0a4.802 4.802 0 0 0 .906.555 3.398 3.398 0 0 0 1.434.327 3.412 3.412 0 0 0 1.406-.315q.485-.218.97-.585a2.912 2.912 0 0 0 1.123-1.885 4.439 4.439 0 0 0 .065-.779 4.43 4.43 0 0 0-.109-1.015q-.18-.764-.656-1.289a2.722 2.722 0 0 0-.351-.324 4.204 4.204 0 0 0-1.198-.661 3.682 3.682 0 0 0-1.214-.203 3.658 3.658 0 0 0-2.059.641 4.727 4.727 0 0 0-.353.259 2.904 2.904 0 0 0-1.025 1.719 4.479 4.479 0 0 0-.091.927q0 1.746 1.152 2.628zM7.236 20.52a3.115 3.115 0 0 0 1.206.796 3.147 3.147 0 0 0 1.062.176q1.332 0 2.214-.972a3.599 3.599 0 0 0 .602-.886 2.919 2.919 0 0 0 .28-1.256 3.194 3.194 0 0 0-.557-1.792 4.224 4.224 0 0 0-.289-.386 2.768 2.768 0 0 0-1.999-.998 3.87 3.87 0 0 0-.287-.01 3.383 3.383 0 0 0-1.07.162 2.772 2.772 0 0 0-1.234.828 3.651 3.651 0 0 0-.613.955A3.06 3.06 0 0 0 6.3 18.36a2.911 2.911 0 0 0 .606 1.772 3.988 3.988 0 0 0 .33.388zm91.44-2.16a2.874 2.874 0 0 0 .642 1.807 3.922 3.922 0 0 0 .294.335 3.055 3.055 0 0 0 2.216.954 3.687 3.687 0 0 0 .052 0q1.332 0 2.214-.972a3.599 3.599 0 0 0 .602-.886 2.919 2.919 0 0 0 .28-1.256 3.194 3.194 0 0 0-.557-1.792 4.224 4.224 0 0 0-.289-.386q-.846-1.008-2.268-1.008a3.252 3.252 0 0 0-1.136.191 2.851 2.851 0 0 0-1.168.817 3.778 3.778 0 0 0-.603.916 3.047 3.047 0 0 0-.279 1.28z" fill-rule="evenodd" fill="#fff"/></svg>