<svg viewBox="0 0 48 47" xmlns="http://www.w3.org/2000/svg"><path d="M27.578 7.922c-.027.02-.21.035-.41.039a42.43 42.43 0 0 0-2.418.133 22.8 22.8 0 0 0-.535.058 4.71 4.71 0 0 0-.492.082c-.176.04-.407.09-.516.11-.105.015-.277.058-.383.082-.11.031-.3.062-.43.074-.128.012-.253.035-.277.059a.226.226 0 0 1-.125.035 1.1 1.1 0 0 0-.215.039 5.395 5.395 0 0 1-.445.094c-.172.027-.32.066-.332.085a.198.198 0 0 1-.117.036c-.051 0-.18.023-.285.058-.297.09-.817.196-.856.176-.02-.012-.133.023-.242.086-.191.102-.527.2-.86.254-.077.012-.144.035-.144.058 0 .02-.062.036-.14.036a.363.363 0 0 0-.188.047c-.047.046-.121.082-.813.363-.167.07-.398.18-.515.246-.11.066-.32.176-.461.238-.14.067-.274.149-.293.18a.109.109 0 0 1-.094.058c-.031 0-.062.012-.07.032-.008.02-.164.105-.344.195-.183.09-.336.176-.336.195 0 .016-.05.055-.113.078-.152.055-.246.114-.469.286a3.93 3.93 0 0 1-.355.23c-.293.16-.317.172-.59.379-.145.113-.277.2-.293.2-.047 0-.332.23-.43.343a2.926 2.926 0 0 1-.254.223c-.11.093-.226.191-.261.218a.215.215 0 0 1-.118.055c-.039 0-.07.023-.07.059 0 .027-.09.12-.195.195-.11.082-.27.21-.367.293-.094.086-.23.2-.309.254-.07.055-.41.367-.746.695-.34.332-.621.598-.637.598-.05 0-.676.66-.8.847a2.298 2.298 0 0 1-.278.348c-.07.07-.137.145-.137.16s-.043.074-.097.125c-.184.176-.543.61-.543.657 0 .023-.016.046-.032.046-.02 0-.082.07-.14.153-.063.086-.16.215-.223.281-.07.07-.12.152-.12.18s-.036.058-.075.074c-.07.023-.426.5-.492.66-.016.043-.047.078-.067.078-.015 0-.07.07-.11.156a1.36 1.36 0 0 1-.241.344c-.094.102-.172.203-.172.227 0 .027-.04.093-.086.152-.047.059-.086.137-.086.176 0 .043-.121.312-.273.61-.352.683-.54 1.073-.54 1.128a.647.647 0 0 1-.062.164c-.035.067-.055.16-.04.211.013.05.005.106-.023.121-.023.012-.039.047-.02.067.013.027-.003.078-.038.113-.098.113-.207.344-.18.387.012.023 0 .093-.035.156-.05.094-.152.61-.168.851 0 .032-.055.23-.121.434-.125.375-.125.379-.133 1.531-.008 1.246.004 1.473.086 1.567.027.035.05.082.047.097-.008.02 0 .067.012.102.062.172.125.43.101.45-.011.01 0 .062.028.112a.518.518 0 0 1 .058.2c.004.058.04.172.078.246.04.074.067.16.067.191s.129.305.293.613c.156.305.312.66.347.786.028.125.075.25.106.273.027.02.074.117.101.21.075.212.192.442.258.517.028.027.05.082.05.113s.028.074.063.09c.028.02.067.09.079.16.015.066.03.156.039.191.011.04.086.14.175.235.086.086.16.18.16.203.004.054.153.23.2.23.02 0 .12.098.222.215.106.117.25.238.325.27.16.066.332.238.316.316-.008.031.055.09.137.129a1.7 1.7 0 0 1 .281.191c.074.067.164.133.2.16.03.02.144.102.245.176.121.09.23.137.325.137.078 0 .152.023.16.05.015.04.027.04.027.005.004-.051.32.082.418.18.035.03.086.046.121.035.04-.02.063 0 .063.039s.03.07.066.07c.031 0 .098.035.14.086.048.047.11.082.141.074.086-.012.215.047.328.145.051.046.094.07.094.054s.074.02.16.078c.09.059.18.106.207.106.024 0 .133.094.239.207.168.18.394.293.52.262.015-.004.089.046.16.113.077.07.179.121.238.121.054-.004.16.055.238.129.219.195.457.293.875.34.21.023.445.054.516.062a.69.69 0 0 1 .23.067c.187.097 1.156.199 1.156.125 0-.02.067-.024.145-.016a.799.799 0 0 0 .328-.043 1.13 1.13 0 0 1 .25-.066c.027 0 .098-.04.148-.09.18-.172.278-.203.57-.223.22-.012.364-.047.56-.144.148-.07.273-.13.288-.13.012 0 .09-.074.176-.16.16-.171.188-.308.086-.496a.586.586 0 0 1-.066-.191.528.528 0 0 0-.024-.137c-.031-.078-.387-.25-.441-.215-.024.012-.063-.003-.09-.039a.236.236 0 0 0-.156-.062c-.051 0-.11-.02-.125-.043a.482.482 0 0 0-.168-.102c-.078-.03-.157-.093-.168-.14-.02-.047-.11-.114-.2-.153-.093-.035-.167-.082-.167-.105 0-.035-.043-.043-.239-.04-.422.009-.504 0-.574-.062-.043-.039-.105-.07-.144-.07s-.083-.016-.094-.039-.07-.043-.121-.043a.403.403 0 0 1-.192-.066c-.058-.043-.136-.059-.207-.043-.058.015-.101.007-.101-.016s-.032-.043-.063-.043c-.035 0-.066-.016-.066-.043 0-.02-.055-.066-.125-.105-.2-.098-.406-.305-.457-.45-.032-.093-.078-.14-.149-.148a.381.381 0 0 1-.148-.055.157.157 0 0 0-.094-.039.662.662 0 0 1-.207-.101c-.156-.106-.305-.106-.16 0 .043.027.062.07.043.086-.016.015-.031.007-.031-.02 0-.031-.04-.039-.102-.023a.279.279 0 0 1-.164-.008.598.598 0 0 0-.207-.047 1.317 1.317 0 0 1-.324-.094.757.757 0 0 0-.258-.086c-.059 0-.102-.023-.102-.058 0-.032-.062-.11-.14-.168-.07-.063-.156-.125-.18-.145a.847.847 0 0 0-.156-.074c-.063-.02-.219-.129-.352-.242-.203-.176-.242-.23-.242-.348 0-.101-.02-.137-.066-.137-.078 0-.332-.132-.352-.18-.008-.019-.035-.03-.055-.03-.023 0-.136-.098-.257-.211-.121-.118-.239-.208-.27-.208-.078 0-.324-.234-.324-.312 0-.035-.024-.066-.043-.066-.07 0-.3-.22-.3-.282 0-.027-.04-.074-.083-.105-.043-.024-.074-.074-.059-.102.012-.035-.015-.086-.058-.12-.047-.032-.063-.063-.047-.063.043 0-.176-.38-.238-.426-.028-.012-.07-.016-.102-.004s-.058 0-.058-.027c0-.024.023-.043.046-.043.067 0 .024-.207-.082-.414-.05-.094-.09-.2-.09-.23s-.066-.126-.148-.208c-.074-.086-.152-.203-.164-.27a1.427 1.427 0 0 0-.098-.32.372.372 0 0 1-.003-.175c.019-.06.007-.106-.012-.106s-.063-.105-.09-.242a2.74 2.74 0 0 0-.074-.3.84.84 0 0 1-.032-.18.36.36 0 0 0-.066-.176c-.023-.032-.059-.215-.074-.407-.024-.379-.067-.539-.145-.539-.047 0-.027-.804.032-1.172.011-.082.03-.261.039-.398.007-.14.047-.355.082-.484.03-.125.05-.246.035-.262-.012-.024-.004-.082.023-.129.067-.148.168-.414.227-.613a2.94 2.94 0 0 1 .176-.41c.07-.13.117-.25.109-.274-.004-.031.043-.105.11-.172.062-.066.113-.156.113-.199 0-.047.02-.078.039-.078.023 0 .047-.047.066-.098.02-.086.184-.32.336-.488.152-.164.41-.54.387-.563-.016-.011-.004-.027.027-.027.07 0 .188-.117.156-.156-.011-.024.047-.098.125-.172.082-.078.149-.168.149-.207 0-.04.25-.328.554-.637.692-.71.688-.703.688-.754 0-.027.031-.054.066-.07.032-.016.063-.043.063-.066 0-.047.344-.368.394-.368.016 0 .036-.027.036-.054.003-.059.207-.297.234-.274.031.032.535-.445.535-.504 0-.027.024-.05.043-.05.02 0 .082-.032.125-.075.223-.199.715-.593.746-.593.008 0 .121-.102.246-.227.13-.121.274-.238.324-.254a.61.61 0 0 0 .223-.172c.074-.078.32-.265.55-.418a9.2 9.2 0 0 0 .485-.324c.032-.027.07-.05.09-.043.012.004.098-.07.188-.16.093-.09.203-.164.257-.164.047 0 .165-.066.27-.149.102-.078.289-.171.418-.207a.82.82 0 0 0 .379-.214c.16-.168.332-.27.469-.27.046 0 .175-.066.28-.148.11-.086.294-.196.415-.25.117-.055.234-.118.246-.141.02-.027.078-.047.137-.047a.434.434 0 0 0 .18-.039c.144-.07.374-.125.644-.152.148-.02.293-.055.328-.086.031-.031.07-.059.082-.059.012 0 .125-.047.25-.101.121-.055.336-.121.469-.149.137-.027.351-.086.484-.133.13-.039.5-.105.828-.14.32-.035.711-.09.864-.121.156-.035.433-.094.62-.137.188-.035.384-.086.43-.113.22-.11.7-.196 1.262-.215.27-.016.563-.043.64-.067.2-.062 2.391-.097 3.985-.07.508.008.645.024.766.09.101.055.203.07.328.055.234-.028.578.054.89.195.13.059.286.11.34.11.059 0 .13.03.16.062.028.035.098.062.153.062.055 0 .101.02.101.043 0 .02.02.043.043.043s.145.047.266.102c.125.055.273.113.336.129a.319.319 0 0 1 .16.11c.031.046.098.077.14.077s.106.031.145.063c.035.035.09.062.125.062.032 0 .086.031.114.063.03.035.078.066.109.066.027 0 .074.027.11.067a.17.17 0 0 0 .132.046c.047-.015.078 0 .078.036 0 .054.434.37.586.425.043.016.227.141.41.282.184.14.399.296.473.347.238.16.328.242.328.293 0 .028.074.106.16.168.188.14.57.52.57.567 0 .015.024.03.055.03.078 0 .407.403.692.849.074.105.18.222.246.261a.81.81 0 0 1 .203.211.68.68 0 0 0 .148.176c.07.047.325.398.325.457 0 .027.078.133.171.23.094.102.172.207.172.23 0 .032.028.06.063.079.035.012.066.047.066.07 0 .028.047.11.102.18.05.07.129.184.168.258.031.066.12.187.195.265.074.082.145.18.16.23.016.048.11.22.211.38.106.164.192.32.192.344 0 .066.132.324.195.37a.9.9 0 0 1 .129.255c.039.113.113.257.152.324.05.066.074.133.063.148-.012.024.035.145.105.281.07.133.125.27.125.297 0 .036.024.059.043.059.027 0 .043.039.043.09 0 .074.25.637.41.926a.779.779 0 0 1 .082.23c.028.18.145.672.219.875.117.332.187 1.871.098 2.035-.02.043-.04.235-.04.434 0 .363-.144 1.625-.214 1.847-.02.067-.051.22-.067.336-.039.29-.183.735-.277.856a.363.363 0 0 0-.082.137c0 .02-.04.117-.082.214-.043.098-.11.247-.145.332-.039.086-.09.157-.113.157-.023 0-.047.031-.047.066 0 .031-.015.063-.035.063s-.055.035-.074.078c-.035.066-.371.445-.727.82-.047.05-.18.16-.297.246a3.957 3.957 0 0 0-.363.281c-.266.23-.8.63-.844.63-.027 0-.078.034-.12.081-.044.051-.11.075-.137.067-.032-.012-.055-.008-.055.011 0 .024-.07.07-.152.106-.083.039-.149.094-.149.121 0 .031-.05.078-.121.102a2.75 2.75 0 0 0-.371.265c-.137.113-.29.223-.332.235-.043.011-.074.043-.074.062 0 .02-.036.04-.075.04-.082.003-.226.089-.226.14a.643.643 0 0 1-.125.14c-.098.094-.121.149-.113.297.003.16.027.203.226.39l.223.204h.355c.36 0 .492.043.614.207.058.07.351.035.503-.055.051-.035.192-.086.317-.113a.886.886 0 0 0 .328-.152c.062-.055.129-.098.152-.098.035 0 .473-.316.657-.476.039-.04.074-.06.074-.043 0 .015.062-.036.14-.102.075-.074.16-.133.184-.133.027 0 .09-.047.148-.105.051-.051.2-.16.325-.239.129-.074.23-.16.23-.187 0-.031.086-.129.192-.227.109-.097.195-.203.195-.234s.043-.09.09-.129c.265-.21.593-.535.593-.578 0-.035.04-.082.086-.11.047-.03.086-.074.086-.09 0-.019.047-.073.106-.12a.943.943 0 0 0 .203-.258c.047-.094.101-.184.117-.195s.102-.133.188-.274c.086-.137.238-.351.34-.473.105-.125.214-.3.25-.398.03-.098.12-.293.195-.441.078-.141.144-.286.144-.313s.059-.164.125-.297c.075-.137.13-.308.13-.375 0-.129.148-.734.214-.887.023-.046.055-.367.082-.707.02-.34.059-.64.082-.671.125-.153.149-.407.145-1.387-.004-.547-.024-1.098-.047-1.215a2.507 2.507 0 0 1-.04-.508c.009-.437-.038-.824-.132-1.097a3.355 3.355 0 0 1-.11-.434.995.995 0 0 0-.07-.254 1.11 1.11 0 0 1-.054-.23c-.04-.301-.118-.575-.192-.684a1.134 1.134 0 0 1-.129-.32 2.624 2.624 0 0 0-.129-.375 4.156 4.156 0 0 0-.215-.442c-.02-.035-.058-.12-.09-.187a2.438 2.438 0 0 0-.09-.192c-.023-.03-.058-.109-.085-.168-.145-.308-.192-.398-.219-.41-.02-.008-.035-.031-.035-.058 0-.051-.227-.504-.34-.684a.548.548 0 0 1-.082-.2c-.004-.105-.402-.862-.539-1.027-.133-.156-.55-.742-.57-.804-.032-.086-.282-.395-.532-.649-.117-.113-.207-.234-.207-.27 0-.038-.12-.226-.277-.425-.152-.195-.328-.43-.394-.523a.705.705 0 0 0-.145-.18c-.02-.008-.04-.043-.04-.074 0-.035-.019-.059-.046-.059-.023 0-.324-.273-.664-.61-.336-.335-.633-.609-.66-.609-.02 0-.043-.015-.043-.035 0-.054-.27-.316-.332-.328-.067-.008-.195-.113-.426-.344-.074-.078-.14-.125-.14-.105s-.016.015-.036-.004a.947.947 0 0 0-.18-.148 4.457 4.457 0 0 1-.312-.239c-.086-.074-.176-.136-.2-.136-.046 0-.425-.247-.491-.32a.618.618 0 0 0-.215-.098 1.318 1.318 0 0 1-.305-.157.513.513 0 0 0-.191-.097c-.035 0-.164-.067-.29-.145a2.122 2.122 0 0 0-.511-.238 2.851 2.851 0 0 1-.379-.14 1.375 1.375 0 0 0-.328-.126c-.133-.039-.254-.086-.266-.105-.02-.035-.312-.106-.375-.094a.555.555 0 0 1-.191-.074.732.732 0 0 0-.227-.082c-.039 0-.172-.028-.297-.063a4.866 4.866 0 0 0-.62-.086 67.771 67.771 0 0 0-2.958-.03c-.14.007-.32-.005-.406-.013-.082-.011-.176-.004-.21.02zm0 0"/><path d="M25.68 12.824a1.946 1.946 0 0 1-.27.172c-.082 0-.445.52-.445.637a.384.384 0 0 1-.07.195c-.055.078-.063.168-.043.442.011.187.023.468.023.62 0 .333.09.563.312.794.208.218.622.382.731.3a.756.756 0 0 1 .215-.07c.086-.016.156-.043.156-.066 0-.024.043-.043.102-.043a.97.97 0 0 0 .265-.059c.184-.062.196-.09.317-.59a.589.589 0 0 1 .14-.285c.063-.055.094-.129.102-.293.015-.238.21-.824.332-.992.11-.156.09-.277-.078-.457-.184-.2-.586-.383-.887-.402l-.441-.043c-.2-.028-.23-.016-.461.14zm-6.875 1.817c-.063.062-.121.07-.5.078-.285.008-.465.066-.614.195-.027.027-.07.055-.093.055-.067 0-.18.222-.262.523-.137.512-.074.973.2 1.559a.71.71 0 0 1 .062.16c0 .012.054.11.129.207.093.137.156.184.246.184.14.003.523-.11.523-.157 0-.015.117-.015.258-.004.14.012.285.008.312-.007a.33.33 0 0 1 .13-.036c.175 0 .28-.265.35-.859.036-.3.118-.617.18-.71a.612.612 0 0 0 .055-.274c0-.106.02-.211.04-.235.1-.105.09-.222-.04-.363-.242-.277-.824-.465-.976-.316zm14.132 2.757c-.05.024-.226.051-.386.067-.16.015-.477.074-.703.129a3.56 3.56 0 0 1-.578.097c-.09.008-.332.043-.547.09-.211.047-.45.09-.532.082a.756.756 0 0 0-.257.055c-.059.031-.239.07-.399.082-.156.016-.332.055-.383.086a1.462 1.462 0 0 1-.386.113c-.164.031-.293.067-.293.086 0 .016-.075.059-.172.094-.211.086-.578.125-1.625.172-.27.015-.547.035-.617.047-.145.03-1.477.039-1.508.007-.008-.011-.11-.003-.223.02-.11.02-.422.047-.691.055-.867.03-1.047.054-1.313.14-.144.047-.332.09-.426.094-.09.004-.253.027-.359.059-.11.027-.328.074-.492.105-.164.027-.332.07-.367.086-.121.059-.672.215-.73.203-.036-.008-.243.028-.466.082-.425.102-1.132.168-1.777.172-.254.004-.426.027-.492.063a.679.679 0 0 1-.262.062c-.086 0-.18.031-.21.063-.032.035-.079.058-.102.058-.028-.004-.079.008-.114.02s-.226.054-.425.09c-.426.085-.922.265-1.22.449-.175.113-.26.136-.597.164-.433.035-.625.07-.625.125 0 .02-.07.105-.152.195-.156.172-.278.38-.278.488 0 .04-.03.118-.066.172a.358.358 0 0 0-.059.176.333.333 0 0 1-.015.14.585.585 0 0 0-.008.438c.035.094.086.317.113.492.028.18.067.329.082.329.012 0 .051.062.082.132l.114.266c.027.066.062.195.078.281.015.086.043.156.066.156.024 0 .043.047.043.102 0 .055.027.156.063.223.035.062.113.226.172.355.054.137.12.246.14.246.063 0 .188.254.168.34-.043.16 1.25 1.34 1.734 1.582.254.125.54.348.72.559.097.11.238.234.312.27a.5.5 0 0 1 .164.109c.012.02.058.039.097.047.043.007.09.03.102.05.047.063.402.293.566.371.082.036.196.094.258.13a.469.469 0 0 0 .203.062c.059 0 .137.023.18.043.059.027.09.027.11 0 .015-.028.062-.035.105-.02.047.012.203.004.348-.023.195-.031.285-.074.347-.149.047-.054.125-.101.176-.101.148 0 .438.113.45.176.003.027.066.078.132.109.07.031.137.094.152.164.016.063.07.172.121.238.051.07.086.13.079.13-.016 0 .007.046.046.105.051.078.06.156.04.312a.988.988 0 0 0 .007.36c.016.078.028.89.024 1.8l-.008 1.825c-.004 1.003.074 1.695.25 2.16.039.105.09.246.11.32a1.5 1.5 0 0 0 .105.254c.031.062.062.14.062.172 0 .09.137.355.223.43.043.039.078.085.078.105 0 .023.047.078.106.117.058.043.109.106.109.137s.016.058.031.058c.02 0 .07.055.11.125.043.07.105.125.14.125.035 0 .059.028.051.051-.016.09.094.25.273.418.094.09.184.16.2.16.011 0 .097.063.195.137.219.168.305.211.71.328.177.051.337.113.352.14.016.024.036.028.036.013s.09.015.195.074a.711.711 0 0 0 .414.101c.125-.004.293.024.379.063.113.047.32.066.77.07.34.004.714.008.831.016.243.004.825-.098.86-.153.012-.015.086-.035.16-.035s.223-.047.324-.105a.72.72 0 0 1 .266-.102c.043 0 .12-.02.176-.043.054-.02.18-.058.277-.086a.694.694 0 0 0 .234-.093.75.75 0 0 1 .38-.157c.042 0 .136-.047.206-.105s.145-.106.168-.106c.024 0 .055-.027.07-.062.012-.031.047-.063.083-.063.027 0 .101-.05.16-.109.058-.059.281-.238.488-.395.355-.261 1.094-.957 1.094-1.03 0-.016.054-.079.125-.145.066-.063.156-.184.195-.266.043-.082.09-.152.113-.152.024 0 .055-.032.07-.074.087-.211.34-.547.493-.657.137-.101.2-.187.273-.394.059-.153.133-.313.176-.356.106-.125.18-.265.18-.336 0-.03.035-.07.078-.078.07-.02.18-.199.308-.515.145-.352.22-.551.317-.88.07-.21.137-.41.16-.449a.558.558 0 0 0 .04-.195.62.62 0 0 1 .085-.27c.055-.09.102-.28.125-.492.023-.187.059-.363.078-.394.05-.059.227-.52.246-.633.024-.148.07-.644.09-.953.008-.168.027-.426.043-.574.043-.422.031-.586-.043-.903a4.135 4.135 0 0 0-.101-.355 1.191 1.191 0 0 1-.036-.149c-.011-.046-.054-.253-.105-.46-.05-.211-.102-.422-.113-.48a.935.935 0 0 0-.078-.192 2.39 2.39 0 0 1-.153-.356c-.058-.152-.133-.308-.176-.351-.039-.043-.066-.098-.054-.118.027-.039-.153-.328-.2-.328-.011 0-.05-.078-.085-.18a.788.788 0 0 0-.133-.257c-.098-.106-.098-.172.008-.274.046-.046.132-.191.195-.32.055-.125.168-.309.25-.406.082-.098.152-.188.152-.211 0-.016.012-.07.02-.125.008-.05.043-.274.07-.488.027-.22.066-.422.094-.45.09-.109.199-.644.289-1.398.07-.54.074-.57.12-.86.02-.136.032-.312.02-.39a.991.991 0 0 1 .043-.332c.063-.184.133-.668.13-.871-.005-.274-.051-.38-.247-.551-.113-.102-.238-.18-.273-.18-.04 0-.09-.02-.113-.039-.11-.105-.883-.164-1.082-.09zM28 24.441c.176.028.352.075.383.102.039.035.133.074.215.09.09.015.218.105.343.226.227.223.555.465.633.465.031 0 .055.024.055.059 0 .035.035.07.078.086.04.015.121.09.18.164.062.082.16.156.226.168.067.011.117.05.117.086 0 .031.024.078.055.093.133.082 1.133 1.22 1.227 1.395a.87.87 0 0 0 .11.172c.085.101.284.625.366.965.043.172.102.386.125.48.028.094.047.23.043.309 0 .078.02.16.04.191.058.07.034.82-.036.938a.857.857 0 0 0-.066.254c-.035.293-.14.718-.239.91-.05.101-.078.215-.066.25.012.035.008.062-.012.062s-.062.078-.09.176a2.869 2.869 0 0 1-.199.508.517.517 0 0 0-.058.18c0 .035-.02.058-.043.058-.024 0-.043.031-.043.063 0 .09-.16.386-.223.43-.031.015-.144.163-.254.324-.273.402-.722.875-1.039 1.078a5.42 5.42 0 0 0-.422.312.945.945 0 0 1-.27.168c-.058.012-.105.035-.105.059 0 .058-.336.175-.426.144-.05-.011-.09-.008-.09.012 0 .055-.48.187-.742.203a5.598 5.598 0 0 0-.464.059c-.137.023-.29.035-.332.02-.047-.016-.086-.013-.086.01 0 .036-.61.048-.645.013a1.926 1.926 0 0 0-.34-.098 24.174 24.174 0 0 0-.515-.121 2.057 2.057 0 0 0-.297-.055c-.063-.004-.2-.05-.309-.097a1.784 1.784 0 0 0-.226-.09c-.118 0-.793-.614-.793-.719 0-.023-.051-.11-.118-.184-.183-.21-.246-.293-.261-.351a6.974 6.974 0 0 0-.168-.438c-.16-.406-.196-.62-.25-1.652a4.732 4.732 0 0 0-.055-.578 1.784 1.784 0 0 1 .008-.453c.047-.485.07-.907.09-1.39.008-.231.023-.47.047-.54.015-.062.011-.137-.008-.164-.028-.027-.047-.297-.047-.594-.012-.5-.067-.863-.137-.863-.02 0-.043-.07-.058-.16-.047-.281-.137-.543-.215-.63-.035-.038-.07-.093-.07-.12 0-.024-.055-.106-.13-.18a.673.673 0 0 1-.128-.168c0-.02-.051-.078-.118-.133-.18-.152-.234-.27-.199-.43.02-.12.047-.144.2-.187a1.96 1.96 0 0 1 .351-.062c.2-.016.707-.145.773-.196a.534.534 0 0 1 .149-.05c.058-.016.254-.079.433-.149.282-.105.497-.133.688-.098.05.008.156.266.23.567.047.183.137.387.25.547.297.425.34.547.352.984.008.219.035.414.059.441.023.02.043.083.043.133 0 .153.046.227.171.29.227.113.52.19.614.163.113-.035.285-.18.285-.246 0-.027.11-.144.238-.261.153-.141.235-.25.235-.313a.55.55 0 0 1 .062-.215c.07-.136.152-.523.152-.738 0-.086.043-.227.094-.32.082-.149.09-.223.082-.723-.012-.484 0-.574.063-.645.043-.042.101-.07.14-.058.04.012.215.039.387.062zm0 0"/></svg>