<svg viewBox="0 0 96 95" xmlns="http://www.w3.org/2000/svg"><path d="M55.16 16.008c-.062.043-.43.078-.824.086-1.273.023-4.094.176-4.836.261-.402.043-.883.102-1.07.118-.192.02-.637.093-.989.172-.347.074-.812.175-1.027.218-.21.035-.555.121-.77.172a5.497 5.497 0 0 1-.855.145c-.258.023-.504.074-.559.117-.042.043-.152.074-.246.074s-.285.035-.43.078c-.144.051-.546.13-.89.188-.344.058-.64.133-.668.176-.023.035-.129.07-.23.07s-.36.05-.575.117c-.59.188-1.625.398-1.703.355-.043-.023-.265.051-.488.18-.387.203-1.055.399-1.723.508-.152.023-.28.074-.28.117 0 .043-.13.078-.282.078-.156 0-.328.043-.38.094-.093.09-.237.16-1.624.727-.336.144-.797.363-1.031.5-.223.136-.64.355-.922.484-.285.137-.551.297-.582.363a.242.242 0 0 1-.192.121c-.058 0-.129.024-.144.059-.008.043-.324.21-.684.398-.37.176-.668.356-.668.387 0 .035-.105.113-.234.164-.297.11-.484.227-.93.574a8.564 8.564 0 0 1-.71.47c-.594.32-.637.343-1.184.76-.293.227-.555.407-.582.407-.094 0-.668.465-.864.695a7.253 7.253 0 0 1-.507.45c-.223.187-.454.39-.524.441a.404.404 0 0 1-.238.11c-.078 0-.137.05-.137.117 0 .058-.18.246-.394.398-.215.16-.54.426-.727.594s-.465.398-.617.508c-.145.109-.824.746-1.5 1.406-.676.672-1.242 1.215-1.266 1.215-.101 0-1.355 1.328-1.601 1.71-.164.247-.41.56-.559.704-.144.136-.273.289-.273.32 0 .035-.086.152-.196.254-.367.36-1.09 1.23-1.09 1.324 0 .051-.023.094-.058.094-.043 0-.164.144-.281.312a6.21 6.21 0 0 1-.446.567c-.136.144-.242.305-.242.367 0 .05-.066.117-.144.14-.145.055-.856 1.02-.985 1.34-.035.086-.094.153-.136.153-.036 0-.137.144-.215.324-.078.176-.301.492-.489.695s-.343.407-.343.457c0 .051-.075.188-.172.305-.094.117-.168.281-.168.356 0 .086-.25.636-.551 1.23-.7 1.379-1.078 2.176-1.078 2.285 0 .051-.059.196-.129.332-.066.137-.102.32-.078.422.027.102.012.215-.04.246-.054.028-.077.094-.042.137.023.05-.012.152-.078.23-.2.227-.41.696-.36.778.024.05 0 .187-.07.316-.102.192-.309 1.234-.332 1.719 0 .066-.113.465-.25.883-.246.754-.246.761-.266 3.09-.007 2.52.008 2.976.172 3.171.059.067.102.16.094.196a.449.449 0 0 0 .027.203c.13.347.246.87.203.906-.023.024 0 .125.051.227a.988.988 0 0 1 .121.41c.008.117.078.347.157.5.074.144.136.32.136.379 0 .07.254.62.582 1.238.317.617.625 1.34.692 1.594.062.254.156.5.215.55.05.044.144.239.207.422.144.434.375.899.511 1.043a.47.47 0 0 1 .106.23c0 .067.05.153.117.188.062.032.137.176.164.32.027.137.059.313.078.391.016.075.172.278.352.465.168.18.316.363.316.414.008.113.309.469.402.469.036 0 .239.195.446.43.203.238.496.484.64.543.325.136.668.484.633.644-.015.059.114.18.278.262.16.086.418.254.562.383.148.136.328.27.395.32.07.043.293.215.496.36.242.183.465.277.652.277.152 0 .3.05.316.101.036.078.051.078.051.008.008-.102.645.172.84.367.07.059.172.09.238.067.078-.035.13 0 .13.086 0 .074.062.132.128.132.07 0 .2.079.285.18.094.094.223.16.282.152.171-.027.425.094.66.29.101.093.187.144.187.109s.145.043.317.16c.18.121.359.211.41.211s.265.187.48.418c.336.363.79.594 1.035.531.036-.008.18.094.329.23.152.137.359.247.468.247.114-.008.325.11.48.254.438.398.919.593 1.747.687.43.05.89.11 1.035.125.148.02.352.078.465.137.367.195 2.312.406 2.312.254 0-.043.13-.051.282-.035.144.027.445-.008.66-.082.215-.079.437-.137.496-.137s.2-.078.3-.18c.36-.347.555-.414 1.137-.449a2.58 2.58 0 0 0 1.125-.297c.29-.14.547-.262.57-.262.028 0 .184-.144.352-.32.328-.348.38-.621.172-1-.066-.137-.129-.316-.129-.39a.869.869 0 0 0-.05-.27c-.06-.164-.77-.512-.883-.442-.043.024-.118-.007-.18-.078a.464.464 0 0 0-.309-.125c-.101 0-.222-.043-.246-.086-.035-.05-.18-.144-.344-.203-.152-.066-.308-.195-.332-.289-.035-.094-.214-.226-.394-.304-.188-.075-.344-.168-.344-.211 0-.079-.086-.094-.472-.086-.848.015-1.008 0-1.145-.125-.086-.078-.215-.137-.293-.137s-.16-.035-.187-.086c-.028-.043-.137-.086-.239-.086a.767.767 0 0 1-.386-.133.504.504 0 0 0-.41-.086c-.122.035-.208.016-.208-.035 0-.039-.058-.082-.129-.082-.066 0-.128-.035-.128-.086 0-.043-.11-.136-.247-.21-.402-.204-.816-.622-.918-.919-.058-.183-.152-.277-.3-.293a.743.743 0 0 1-.29-.113.305.305 0 0 0-.187-.074c-.055 0-.25-.094-.422-.211-.308-.215-.605-.215-.316 0 .086.058.129.14.086.176-.035.035-.059.015-.059-.043 0-.059-.078-.075-.207-.043-.121.027-.265.02-.324-.016a1.207 1.207 0 0 0-.422-.094 2.311 2.311 0 0 1-.64-.195c-.18-.094-.422-.168-.524-.168-.11 0-.195-.05-.195-.117 0-.07-.13-.223-.285-.34-.145-.129-.317-.254-.36-.297a1.79 1.79 0 0 0-.316-.144c-.117-.043-.438-.262-.703-.493-.403-.355-.477-.464-.477-.703 0-.203-.043-.28-.137-.28-.156 0-.66-.263-.703-.364-.02-.035-.07-.059-.113-.059s-.274-.195-.512-.422c-.242-.238-.48-.425-.539-.425-.156 0-.652-.473-.652-.63 0-.074-.043-.132-.086-.132-.137 0-.598-.442-.598-.57 0-.06-.078-.153-.164-.211-.086-.051-.144-.153-.121-.211.027-.067-.023-.168-.11-.239-.093-.066-.128-.125-.093-.125.086 0-.352-.773-.48-.867a.308.308 0 0 0-.208-.008c-.058.028-.109 0-.109-.05 0-.051.043-.094.094-.094.129 0 .043-.414-.172-.828-.094-.196-.18-.407-.18-.469 0-.066-.129-.254-.289-.422-.156-.168-.308-.406-.336-.543a2.732 2.732 0 0 0-.187-.644c-.035-.075-.035-.239-.008-.356.031-.117.016-.21-.027-.21s-.13-.223-.18-.493a6.692 6.692 0 0 0-.145-.61 1.456 1.456 0 0 1-.07-.363.692.692 0 0 0-.129-.359c-.05-.059-.117-.43-.144-.82-.051-.762-.137-1.086-.293-1.086-.094 0-.059-1.625.062-2.371.024-.16.059-.528.078-.805.016-.281.094-.723.16-.977.07-.254.102-.5.079-.53-.028-.044-.008-.165.043-.259.136-.304.332-.836.453-1.242.058-.215.222-.586.351-.832.137-.254.23-.5.223-.55-.008-.06.086-.212.215-.348.129-.137.23-.313.23-.399 0-.094.035-.16.078-.16s.094-.094.13-.195c.042-.18.366-.653.675-.992.3-.332.812-1.086.77-1.137-.036-.024-.008-.05.05-.05.149 0 .38-.235.317-.321-.024-.043.093-.196.25-.348.164-.152.3-.34.3-.414 0-.078.497-.664 1.102-1.289 1.39-1.434 1.379-1.426 1.379-1.527 0-.051.062-.11.129-.133.07-.035.129-.094.129-.137 0-.094.687-.746.789-.746.035 0 .066-.05.066-.11.012-.12.422-.6.473-.55.058.058 1.07-.899 1.07-1.02 0-.058.043-.101.086-.101s.164-.067.25-.153c.445-.406 1.43-1.203 1.488-1.203.016 0 .25-.203.497-.457.257-.246.546-.484.652-.508.101-.035.3-.187.445-.347.145-.16.633-.543 1.094-.848.465-.297.902-.594.969-.652.07-.059.144-.102.18-.094.027.008.199-.137.378-.32.188-.18.41-.332.512-.332.094 0 .336-.137.539-.297.207-.16.582-.348.84-.422.316-.094.566-.23.754-.434.324-.34.668-.543.941-.543.094 0 .352-.136.567-.304.214-.168.582-.39.82-.5.242-.11.473-.239.5-.29.031-.05.152-.093.273-.093.11 0 .274-.031.36-.074.281-.145.746-.254 1.285-.313.297-.035.59-.113.656-.172.063-.066.14-.117.164-.117.028 0 .25-.094.496-.203.25-.11.676-.246.942-.305a7.56 7.56 0 0 0 .968-.265c.258-.082 1.004-.22 1.653-.286.644-.07 1.422-.18 1.73-.246.309-.07.867-.187 1.242-.273.375-.074.762-.176.856-.227.437-.23 1.406-.398 2.527-.441.54-.027 1.121-.086 1.285-.137.395-.117 4.778-.195 7.965-.133 1.02.016 1.293.04 1.532.176.207.11.402.145.66.11.46-.051 1.156.113 1.78.398.259.121.567.223.677.223.12 0 .258.058.316.125.063.07.2.129.309.129.113 0 .207.03.207.082 0 .043.035.086.086.086.043 0 .28.093.53.203.247.11.548.23.669.265a.667.667 0 0 1 .324.22.37.37 0 0 0 .274.16c.085 0 .214.058.293.128.066.067.18.125.246.125.07 0 .171.059.23.13.063.065.156.124.215.124.062 0 .156.059.223.137.062.066.18.11.265.094.094-.028.156 0 .156.074 0 .113.864.746 1.172.86.086.03.453.284.82.566.372.289.798.601.946.703.477.332.656.492.656.593 0 .059.149.211.32.34.376.285 1.137 1.051 1.137 1.14 0 .036.051.071.114.071.152 0 .812.813 1.386 1.711.145.211.36.45.489.527.117.075.308.27.41.43.101.16.23.324.289.356.148.093.652.804.652.925 0 .051.156.262.344.465s.34.414.34.465c0 .063.062.121.129.156.07.024.128.09.128.141 0 .062.094.223.208.367.101.145.257.371.332.516.07.136.25.383.394.543.145.16.293.363.316.465.036.093.223.441.43.761.207.332.375.645.375.696 0 .136.266.652.395.754.05.042.172.273.258.511.078.227.222.524.308.653.094.132.145.27.121.304-.027.043.067.29.211.567.14.273.25.543.25.601 0 .067.043.121.086.121.05 0 .086.075.086.176 0 .152.496 1.29.82 1.875.07.125.149.336.164.465.051.363.293 1.355.438 1.77.23.671.375 3.78.195 4.109-.043.086-.074.476-.074.875 0 .738-.293 3.289-.43 3.738a5.484 5.484 0 0 0-.136.676c-.079.586-.368 1.484-.559 1.73-.094.11-.16.239-.16.278 0 .043-.078.238-.164.433-.086.196-.223.5-.293.668-.074.18-.18.325-.223.325-.05 0-.094.058-.094.125 0 .07-.03.128-.066.128-.043 0-.113.075-.156.16-.067.137-.735.899-1.446 1.66-.093.102-.359.325-.601.493-.23.172-.563.426-.727.57-.531.465-1.601 1.27-1.687 1.27-.051 0-.153.078-.238.168-.086.101-.215.152-.274.136-.062-.023-.113-.015-.113.028 0 .039-.137.133-.301.21-.16.075-.297.188-.297.247s-.105.152-.242.203c-.129.059-.461.297-.742.535-.278.227-.574.45-.66.473-.086.027-.157.086-.157.129 0 .039-.066.074-.144.074-.164.008-.453.187-.453.289 0 .023-.114.152-.25.277-.196.196-.239.309-.23.602.007.324.058.418.452.789l.446.418h.71c.72 0 .985.082 1.235.414.11.144.703.074 1-.11.105-.07.387-.171.637-.23.246-.058.539-.195.656-.305.121-.109.258-.195.3-.195.079 0 .95-.644 1.321-.965.074-.078.145-.12.145-.086 0 .028.128-.074.28-.21.15-.145.317-.262.372-.262.05 0 .18-.094.289-.215.102-.11.402-.328.652-.48.258-.153.461-.325.461-.383 0-.059.172-.262.387-.457.215-.196.387-.407.387-.477 0-.059.082-.176.18-.262.527-.422 1.187-1.074 1.187-1.168 0-.07.078-.16.172-.222.094-.059.172-.145.172-.176 0-.043.093-.153.214-.246.118-.094.301-.332.403-.516a2.26 2.26 0 0 1 .23-.398c.035-.028.207-.274.375-.551.172-.281.48-.715.688-.961.203-.254.426-.61.496-.805a6.51 6.51 0 0 1 .394-.89c.153-.285.282-.575.282-.633 0-.05.12-.332.257-.602.145-.273.258-.62.258-.754 0-.265.29-1.484.426-1.797.043-.093.113-.738.164-1.425.043-.684.121-1.297.164-1.356.246-.312.297-.82.29-2.804-.009-1.11-.052-2.22-.094-2.457a5.442 5.442 0 0 1-.079-1.028c.02-.879-.074-1.668-.265-2.219a7.748 7.748 0 0 1-.223-.87c-.031-.215-.094-.442-.137-.52a2.087 2.087 0 0 1-.109-.465c-.078-.61-.23-1.16-.387-1.383-.086-.117-.195-.414-.258-.644a5.273 5.273 0 0 0-.253-.762c-.266-.594-.352-.762-.43-.89-.043-.067-.121-.247-.18-.38a3.074 3.074 0 0 0-.18-.382 2.704 2.704 0 0 1-.171-.34c-.29-.625-.387-.805-.438-.828-.043-.02-.066-.07-.066-.121 0-.102-.453-1.016-.688-1.38-.086-.144-.16-.324-.16-.406-.008-.215-.805-1.746-1.082-2.078-.262-.312-1.094-1.5-1.137-1.629-.058-.168-.566-.793-1.062-1.304-.23-.227-.41-.473-.41-.551 0-.074-.25-.457-.559-.856-.309-.398-.66-.87-.785-1.058-.121-.188-.258-.356-.293-.364-.043-.019-.078-.085-.078-.152 0-.07-.043-.12-.094-.12-.05 0-.648-.552-1.328-1.228-.676-.68-1.266-1.23-1.316-1.23-.043 0-.086-.035-.086-.074 0-.113-.54-.637-.668-.664-.13-.016-.395-.227-.848-.692-.156-.164-.285-.257-.285-.215s-.031.036-.067-.007a1.874 1.874 0 0 0-.359-.297 8.434 8.434 0 0 1-.625-.48c-.172-.157-.352-.282-.402-.282-.094 0-.848-.5-.985-.644-.043-.059-.242-.145-.43-.204a2.492 2.492 0 0 1-.609-.312c-.144-.102-.316-.195-.383-.195-.07 0-.328-.137-.574-.297a4.344 4.344 0 0 0-1.027-.477c-.317-.101-.652-.226-.754-.285-.102-.07-.395-.18-.66-.254-.266-.078-.504-.172-.531-.215-.043-.066-.625-.21-.754-.183-.035.007-.203-.063-.375-.153-.18-.093-.387-.172-.453-.172a3.85 3.85 0 0 1-.602-.117c-.258-.07-.813-.144-1.242-.18-.684-.05-4.54-.093-5.91-.058a7.04 7.04 0 0 1-.813-.027c-.16-.024-.351-.008-.418.035zm0 0"/><path d="M51.355 25.922c-.273.195-.511.348-.539.348-.16 0-.89 1.05-.89 1.289 0 .109-.059.289-.137.39-.11.16-.129.34-.086.89.027.38.043.95.043 1.263 0 .668.18 1.136.625 1.601.422.442 1.242.77 1.465.602.062-.043.25-.102.43-.137.172-.031.316-.09.316-.133 0-.05.086-.086.195-.086.106 0 .344-.05.532-.117.37-.129.394-.187.632-1.195.055-.239.184-.492.286-.578.128-.11.187-.262.203-.594.027-.48.422-1.668.66-2.008.222-.312.18-.559-.153-.922-.367-.398-1.175-.773-1.773-.816-.25-.016-.64-.059-.883-.082-.402-.051-.46-.035-.926.285zm-13.742 3.672c-.129.125-.25.144-1.004.16-.574.008-.933.129-1.222.39-.063.06-.149.11-.192.11-.136 0-.36.45-.52 1.058-.273 1.036-.155 1.97.395 3.153.067.144.125.289.125.324 0 .023.114.219.258.414.188.281.309.375.488.375.286.008 1.055-.223 1.055-.316 0-.032.23-.032.512-.008.285.027.566.016.625-.016a.6.6 0 0 1 .258-.07c.351 0 .566-.54.703-1.734.07-.614.23-1.246.36-1.442.058-.094.112-.34.112-.55 0-.212.032-.426.075-.477.207-.211.18-.45-.075-.735-.488-.562-1.656-.933-1.953-.636zm28.258 5.574c-.101.043-.453.102-.77.137-.316.027-.949.144-1.402.254-.457.109-.976.203-1.156.203-.18.008-.668.086-1.098.18-.418.093-.898.175-1.062.167-.164 0-.395.051-.512.11-.121.062-.48.136-.797.164-.316.031-.668.11-.773.176-.11.07-.453.171-.77.23-.324.059-.582.133-.582.168s-.152.121-.351.195c-.418.168-1.157.246-3.246.348-.54.027-1.094.066-1.23.094-.294.058-2.958.074-3.017.015-.02-.023-.222-.007-.445.036s-.847.093-1.387.109c-1.73.066-2.09.11-2.62.289a4.406 4.406 0 0 1-.856.187c-.18.008-.508.06-.723.118-.21.058-.648.152-.984.21-.324.06-.66.145-.727.18-.25.117-1.343.43-1.465.407-.066-.016-.488.058-.933.167-.848.204-2.262.34-3.555.348-.504.008-.847.05-.984.13a1.413 1.413 0 0 1-.524.124c-.168 0-.359.059-.418.129-.058.066-.152.117-.207.117a.537.537 0 0 0-.222.035c-.067.024-.453.11-.856.188-.847.168-1.84.531-2.43.906-.351.227-.523.27-1.199.328-.867.07-1.25.145-1.25.254 0 .035-.14.215-.3.39-.317.348-.56.774-.56.993a.76.76 0 0 1-.136.348c-.066.109-.117.27-.11.355.009.086 0 .211-.034.281-.121.32-.13.575-.016.89.066.185.168.634.23.99.051.366.13.663.16.663.028 0 .106.125.165.27.058.152.164.39.222.535.059.133.13.398.164.566.024.18.086.32.13.32.05 0 .085.094.085.208 0 .11.059.312.125.449.07.125.223.457.344.719.113.27.238.492.281.492.121 0 .38.515.336.687-.086.328 2.5 2.711 3.469 3.203a5.06 5.06 0 0 1 1.438 1.125c.199.223.48.477.624.543.157.075.301.18.329.22.023.042.117.085.195.1.086.012.18.063.207.102.094.13.805.594 1.129.746.164.079.394.196.512.266.12.066.3.125.414.125.109 0 .273.043.359.086.11.059.18.059.215 0 .031-.05.125-.07.21-.043.098.027.403.008.696-.043.395-.066.574-.152.695-.305.094-.109.247-.203.348-.203.3 0 .875.23.902.356.008.058.137.16.266.222.145.067.273.192.309.328.023.13.136.348.238.485.102.144.172.262.152.262-.023 0 .02.093.094.21.105.16.121.317.078.637a2.15 2.15 0 0 0 .02.719c.03.164.058 1.805.05 3.645-.007 1.84-.02 3.5-.02 3.687-.007 2.027.15 3.422.5 4.363.075.215.18.5.224.653.039.152.136.382.203.511.07.125.129.285.129.344 0 .188.273.723.445.875.086.074.152.168.152.211s.098.152.215.238c.121.086.215.211.215.27 0 .07.035.12.07.12.032 0 .137.11.211.255.086.144.215.254.285.254.067 0 .118.05.102.101-.035.176.187.508.547.848.191.176.37.32.394.32.028 0 .2.13.395.282.437.34.61.421 1.422.66.351.101.668.23.703.28.035.052.066.06.066.024 0-.03.18.036.395.153.293.16.508.21.832.203.246-.008.582.05.754.129.23.094.64.136 1.539.144.68.008 1.433.016 1.664.024.488.008 1.652-.196 1.719-.305.027-.035.172-.066.316-.066.156 0 .445-.094.652-.211.2-.121.438-.215.532-.215.086 0 .238-.031.351-.082.11-.043.36-.121.555-.172.2-.05.414-.133.473-.195.152-.145.554-.313.753-.313.086 0 .274-.094.41-.21.145-.122.294-.212.344-.212.043 0 .102-.062.137-.129.023-.066.094-.125.164-.125.059 0 .203-.105.324-.222.11-.118.555-.485.977-.797.71-.535 2.184-1.942 2.184-2.086 0-.031.109-.16.246-.293.136-.129.32-.375.394-.535.086-.172.18-.305.223-.305.05 0 .113-.07.148-.152.168-.426.676-1.11.985-1.332.273-.203.394-.371.546-.797.11-.305.266-.625.352-.719.203-.246.36-.535.36-.68 0-.058.066-.136.152-.152.136-.043.36-.406.617-1.043.293-.71.437-1.117.633-1.777.14-.426.277-.832.32-.907.043-.085.074-.265.074-.398 0-.144.078-.383.172-.543.113-.18.207-.57.258-.992.043-.383.11-.738.152-.797.106-.117.457-1.05.489-1.281.054-.305.148-1.305.18-1.93.019-.34.062-.855.085-1.16.086-.848.07-1.18-.086-1.824-.086-.332-.168-.653-.195-.72a2.32 2.32 0 0 1-.078-.296c-.016-.094-.102-.52-.203-.934a68.871 68.871 0 0 1-.235-.972 1.599 1.599 0 0 0-.152-.383c-.059-.094-.195-.414-.309-.719-.109-.308-.265-.629-.351-.715-.078-.082-.13-.195-.102-.234.051-.078-.308-.664-.402-.664-.027 0-.102-.16-.172-.363-.059-.196-.18-.434-.266-.516-.195-.223-.195-.348.016-.559.098-.093.266-.382.387-.644a4.42 4.42 0 0 1 .504-.824c.164-.196.3-.38.3-.422 0-.035.028-.145.043-.254.016-.102.086-.55.137-.992.063-.442.137-.848.188-.907.18-.222.402-1.296.582-2.824.14-1.093.148-1.152.242-1.734.043-.281.058-.637.043-.79-.028-.144.015-.448.086-.679.117-.363.265-1.347.258-1.754-.012-.558-.106-.77-.5-1.117-.223-.203-.47-.367-.547-.367s-.18-.031-.223-.074c-.223-.211-1.766-.332-2.168-.18zM56 49.406c.352.051.7.145.77.203.078.07.265.145.43.18.179.031.433.211.683.457.453.45 1.113.941 1.265.941.063 0 .114.051.114.118 0 .066.066.144.152.18.078.023.242.175.36.328.12.16.32.316.456.34.13.027.23.1.23.167 0 .07.052.164.11.196.266.164 2.262 2.457 2.45 2.816.062.117.164.277.222.348.172.203.567 1.261.738 1.949.086.344.196.785.247.973.054.187.097.464.085.628 0 .153.036.32.079.38.12.144.07 1.66-.067 1.898a1.53 1.53 0 0 0-.136.508c-.07.593-.286 1.457-.473 1.84-.102.21-.164.44-.137.507.024.07.016.13-.027.13-.035 0-.117.16-.18.355-.129.433-.23.703-.394 1.023a1.128 1.128 0 0 0-.118.367c0 .067-.035.117-.086.117-.043 0-.086.06-.086.13 0 .175-.316.777-.445.863-.062.035-.293.332-.508.66-.547.812-1.445 1.762-2.078 2.18-.285.195-.668.472-.84.624-.18.16-.421.305-.539.34-.12.028-.215.078-.215.118 0 .12-.667.359-.847.296-.102-.023-.18-.015-.18.028 0 .11-.969.37-1.492.406-.23.016-.648.066-.922.117-.273.051-.582.07-.668.043-.094-.031-.172-.023-.172.02 0 .074-1.215.101-1.285.023-.027-.023-.336-.117-.684-.195-.351-.086-.816-.195-1.027-.246a4.817 4.817 0 0 0-.601-.11c-.121-.007-.395-.101-.618-.195-.222-.102-.425-.187-.453-.187-.23 0-1.586-1.235-1.586-1.45 0-.05-.101-.218-.23-.37-.367-.423-.496-.595-.524-.712-.007-.05-.16-.449-.332-.883-.324-.82-.394-1.253-.504-3.34-.027-.515-.078-1.05-.113-1.167-.023-.13-.023-.543.02-.914.093-.985.144-1.832.18-2.817.015-.465.05-.949.093-1.082.031-.129.024-.281-.02-.34-.05-.05-.093-.593-.093-1.195-.016-1.008-.129-1.746-.274-1.746-.035 0-.085-.145-.109-.32-.098-.57-.277-1.102-.43-1.274-.078-.082-.144-.195-.144-.246 0-.05-.113-.21-.258-.363-.137-.153-.258-.305-.258-.34 0-.043-.101-.16-.23-.27-.36-.304-.473-.543-.403-.863.043-.246.094-.297.403-.383.195-.058.511-.11.703-.129.394-.03 1.41-.285 1.539-.386.05-.035.18-.086.3-.114.122-.023.505-.152.864-.296.566-.211.996-.27 1.379-.192.105.016.309.531.465 1.14.094.376.273.782.496 1.102.59.868.676 1.114.703 1.993.016.44.066.84.117.89a.46.46 0 0 1 .086.27c0 .308.094.46.344.586.453.23 1.035.39 1.226.332.23-.07.57-.364.57-.5 0-.051.216-.29.473-.528.309-.285.473-.508.473-.633 0-.113.059-.296.125-.433.14-.27.3-1.059.3-1.492 0-.168.087-.457.188-.645.164-.305.18-.45.164-1.465-.015-.976 0-1.16.13-1.297.085-.093.206-.144.28-.117.079.016.43.074.774.125zm0 0"/></svg>