<svg viewBox="0 0 168 168" xmlns="http://www.w3.org/2000/svg"><path d="m96.527 28.309c-.101.074-.746.136-1.437.152-2.235.043-7.164.312-8.469.465-.703.074-1.543.18-1.871.207-.332.031-1.11.168-1.723.3-.617.137-1.425.317-1.8.391-.375.059-.973.207-1.348.301a9.448 9.448 0 0 1 -1.5.254c-.45.043-.883.133-.973.207-.074.078-.27.137-.433.137-.168 0-.496.058-.75.136-.254.09-.961.223-1.559.328-.602.106-1.125.239-1.168.313-.047.063-.226.121-.406.121s-.63.09-1.004.211c-1.035.328-2.848.703-2.984.629-.075-.043-.461.09-.852.316-.676.36-1.844.703-3.012.899-.27.043-.496.133-.496.207 0 .078-.226.137-.496.137s-.566.074-.656.164c-.168.164-.422.285-2.848 1.289-.586.254-1.394.644-1.8.886-.391.239-1.122.63-1.618.852-.496.242-.96.523-1.02.644a.405.405 0 0 1 -.327.211c-.106 0-.227.043-.258.106-.012.074-.567.375-1.2.703-.644.316-1.167.629-1.167.691 0 .059-.18.192-.403.282-.527.195-.855.406-1.636 1.02a12.21 12.21 0 0 1 -1.243.823c-1.035.57-1.11.618-2.066 1.352-.512.402-.977.719-1.02.719-.168 0-1.172.824-1.515 1.226-.09.106-.48.465-.883.797-.39.328-.797.688-.914.778-.106.105-.3.195-.422.195-.133 0-.238.09-.238.21 0 .106-.317.434-.692.704-.37.285-.941.75-1.273 1.05-.328.298-.809.704-1.078.9-.254.194-1.438 1.32-2.621 2.487-1.184 1.184-2.176 2.141-2.22 2.141-.179 0-2.366 2.355-2.804 3.027-.281.438-.719.993-.972 1.246-.254.239-.48.508-.48.57 0 .06-.15.27-.345.45-.644.629-1.902 2.172-1.902 2.336 0 .09-.047.164-.105.164-.075 0-.286.258-.497.555-.207.3-.554.765-.777 1.004-.238.257-.422.543-.422.644 0 .09-.117.211-.254.258-.254.09-1.496 1.797-1.722 2.367-.059.149-.164.27-.239.27-.062 0-.242.254-.375.57-.136.312-.527.867-.855 1.227s-.598.718-.598.808-.136.332-.3.543c-.165.207-.301.492-.301.629 0 .148-.434 1.121-.957 2.172-1.23 2.441-1.891 3.851-1.891 4.047 0 .09-.105.343-.223.582-.12.242-.18.57-.136.75.047.18.015.375-.075.437-.09.043-.136.164-.074.239.043.09-.015.27-.137.406-.343.402-.718 1.226-.628 1.379.046.09 0 .328-.122.55-.18.348-.539 2.192-.582 3.043 0 .122-.195.825-.437 1.559-.434 1.336-.434 1.352-.461 5.473-.016 4.449.012 5.257.297 5.605.105.117.18.281.164.344a.84.84 0 0 0 .047.36c.226.613.433 1.542.36 1.6-.044.048 0 .227.09.407.105.164.194.496.21.719.016.21.133.613.27.883.132.257.238.57.238.675 0 .122.449 1.094 1.02 2.188.554 1.094 1.093 2.367 1.214 2.82.106.45.27.883.375.973.09.074.254.418.36.75.253.762.66 1.586.898 1.844.09.101.18.297.18.402 0 .121.09.27.21.332.106.059.239.313.286.566.043.243.105.555.133.692.03.133.3.492.617.824.297.313.554.645.554.734.012.196.54.825.704.825.058 0 .418.343.777.765.36.418.871.852 1.125.957.57.239 1.168.856 1.11 1.14-.032.106.195.313.48.466.285.148.734.449.988.672.254.242.57.48.688.57.12.074.511.375.87.629.419.332.81.496 1.141.496.27 0 .524.09.555.18.059.132.09.132.09.015.012-.18 1.12.297 1.469.645.117.101.296.164.418.117.132-.059.222 0 .222.152 0 .133.106.239.227.239s.343.136.496.316c.164.164.387.285.492.27.3-.047.75.164 1.156.507.18.164.328.254.328.196 0-.059.254.074.555.285.316.21.629.375.719.375s.465.328.84.734c.586.645 1.379 1.047 1.812.946.063-.016.317.164.57.402.27.242.63.433.825.433.195-.011.57.196.84.45.765.707 1.601 1.05 3.058 1.215.746.09 1.559.195 1.813.226.254.027.613.133.808.238.645.344 4.047.72 4.047.45 0-.075.223-.09.492-.059.258.043.782-.016 1.157-.148.375-.137.765-.243.867-.243.105 0 .347-.132.527-.312.629-.617.973-.734 1.992-.797.766-.043 1.274-.18 1.965-.523.508-.254.957-.465 1.004-.465.043 0 .313-.254.613-.57.57-.614.66-1.094.301-1.766-.121-.242-.226-.555-.226-.692 0-.132-.043-.359-.09-.48-.106-.285-1.348-.899-1.543-.777-.075.043-.211-.016-.317-.137a.82.82 0 0 0 -.539-.223c-.18 0-.39-.074-.433-.152-.059-.09-.317-.254-.602-.36-.27-.117-.539-.343-.582-.507-.062-.164-.375-.407-.691-.54-.328-.136-.598-.3-.598-.374 0-.137-.148-.164-.824-.153-1.485.031-1.77 0-2.008-.222-.152-.137-.375-.243-.512-.243-.133 0-.285-.058-.328-.148-.047-.074-.238-.148-.418-.148-.195 0-.496-.106-.676-.243-.21-.148-.48-.207-.718-.148-.211.058-.36.031-.36-.059 0-.078-.105-.152-.226-.152s-.223-.059-.223-.148c0-.075-.195-.239-.437-.375-.704-.36-1.422-1.094-1.602-1.618-.106-.332-.27-.496-.527-.527-.192-.027-.418-.117-.508-.191a.525.525 0 0 0 -.328-.137c-.09 0-.438-.164-.735-.375-.539-.375-1.066-.375-.554 0 .148.105.222.254.148.316-.059.059-.105.028-.105-.078 0-.101-.133-.133-.36-.074-.21.047-.465.031-.57-.027-.106-.063-.434-.153-.734-.168-.297-.028-.81-.192-1.122-.344-.316-.164-.734-.3-.914-.3-.195 0-.347-.09-.347-.208 0-.121-.223-.39-.492-.602-.258-.222-.555-.449-.63-.523a3.526 3.526 0 0 0 -.554-.254c-.211-.074-.766-.465-1.23-.87-.704-.63-.84-.825-.84-1.243 0-.36-.075-.496-.239-.496-.27 0-1.156-.465-1.23-.645-.027-.058-.121-.105-.195-.105-.075 0-.477-.344-.899-.746-.418-.422-.84-.75-.945-.75-.27 0-1.137-.84-1.137-1.11 0-.136-.074-.242-.152-.242-.239 0-1.047-.777-1.047-1.004 0-.101-.137-.27-.285-.375-.149-.09-.254-.27-.211-.37.047-.122-.043-.302-.196-.423-.164-.12-.222-.222-.164-.222.153 0-.613-1.368-.84-1.532a.51.51 0 0 0 -.359-.015c-.105.047-.195 0-.195-.09s.078-.164.168-.164c.222 0 .074-.735-.3-1.469-.165-.344-.317-.719-.317-.824 0-.121-.223-.45-.508-.75-.27-.297-.54-.719-.586-.957-.106-.524-.18-.797-.328-1.14-.063-.134-.063-.419-.016-.63.059-.21.031-.375-.047-.375-.074 0-.222-.39-.312-.867-.09-.465-.211-.96-.254-1.082a2.628 2.628 0 0 1 -.121-.644c-.016-.223-.121-.508-.227-.63-.09-.105-.207-.761-.254-1.453-.09-1.347-.238-1.917-.508-1.917-.164 0-.105-2.88.106-4.196.043-.285.105-.93.133-1.426a10.64 10.64 0 0 1 .285-1.722c.121-.45.18-.883.137-.946-.047-.074-.016-.28.074-.449.238-.539.582-1.48.793-2.203.105-.375.39-1.031.613-1.469.242-.449.406-.882.39-.972-.015-.106.153-.375.376-.614.226-.242.406-.554.406-.707 0-.164.059-.28.133-.28s.164-.169.226-.349c.075-.312.645-1.152 1.184-1.753.523-.582 1.422-1.918 1.348-2.008-.059-.043-.016-.09.09-.09.253 0 .66-.418.554-.57-.043-.075.164-.344.434-.614.285-.27.527-.597.527-.734 0-.133.867-1.168 1.934-2.277 2.425-2.532 2.41-2.52 2.41-2.7 0-.09.105-.191.226-.238.121-.058.223-.164.223-.238 0-.168 1.2-1.32 1.379-1.32.062 0 .121-.09.121-.196.016-.21.734-1.062.824-.972.106.105 1.875-1.59 1.875-1.801 0-.102.074-.18.149-.18s.285-.117.433-.27c.782-.718 2.504-2.124 2.61-2.124.027 0 .433-.364.867-.813.45-.434.96-.852 1.14-.898.18-.059.524-.328.778-.614.258-.285 1.11-.96 1.918-1.5.812-.523 1.574-1.047 1.695-1.152s.254-.18.317-.164c.042.012.343-.242.656-.57.332-.317.722-.586.902-.586.164 0 .582-.239.942-.524s1.02-.613 1.468-.75c.555-.164.989-.406 1.32-.765.57-.598 1.169-.957 1.649-.957.164 0 .613-.243.988-.54.375-.3 1.02-.69 1.438-.886.422-.196.824-.418.87-.508.06-.09.27-.164.481-.164.196 0 .477-.063.63-.137.491-.254 1.304-.449 2.245-.554.528-.06 1.036-.196 1.157-.297.105-.121.238-.211.285-.211.043 0 .433-.164.867-.36a10.165 10.165 0 0 1 1.648-.539c.48-.09 1.23-.3 1.696-.465.449-.152 1.754-.39 2.89-.511 1.125-.117 2.489-.313 3.028-.434s1.515-.328 2.172-.48c.66-.133 1.335-.313 1.5-.403.765-.406 2.457-.707 4.421-.78.946-.044 1.965-.15 2.247-.24.69-.21 8.363-.347 13.937-.241 1.785.03 2.266.078 2.684.316.359.195.707.254 1.156.195.808-.09 2.023.196 3.117.703.45.211.988.391 1.184.391.207 0 .449.106.554.223.106.12.344.226.54.226.195 0 .359.059.359.149 0 .074.058.152.148.152.074 0 .496.164.93.36.433.195.96.402 1.168.464.21.059.465.239.57.387.106.168.332.285.48.285.15 0 .376.106.508.227.122.12.317.222.438.222.117 0 .297.106.402.227.106.121.27.227.375.227.106 0 .27.101.39.238a.538.538 0 0 0 .466.164c.164-.043.27 0 .27.137 0 .195 1.511 1.316 2.05 1.511.152.059.797.512 1.441 1.004a46.883 46.883 0 0 0 1.649 1.246c.84.582 1.152.867 1.152 1.047 0 .106.254.375.555.602.66.508 1.992 1.855 1.992 2.023 0 .059.09.117.195.117.27 0 1.426 1.442 2.43 3.028.254.375.63.797.856.93.207.136.539.48.718.765s.403.57.508.629c.254.164 1.14 1.422 1.14 1.633 0 .09.27.465.598.824.332.36.602.734.602.824 0 .106.102.211.223.27.12.047.226.164.226.254 0 .105.164.39.36.644.18.258.449.66.582.914.12.242.437.676.691.961s.508.645.555.824c.058.164.39.778.75 1.348.36.586.656 1.14.656 1.23 0 .239.465 1.153.691 1.332.09.079.301.481.45.903.136.402.39.926.539 1.152.164.238.254.48.21.54-.046.073.122.507.376 1.003.238.48.433.961.433 1.067 0 .117.074.207.149.207.09 0 .152.136.152.316 0 .27.867 2.277 1.437 3.313.122.222.254.597.286.824.09.644.507 2.398.765 3.133.403 1.183.657 6.683.344 7.265-.074.153-.137.84-.137 1.543 0 1.305-.508 5.817-.746 6.61-.078.242-.18.78-.242 1.199-.133 1.035-.645 2.625-.973 3.058-.164.196-.285.418-.285.496 0 .075-.137.418-.285.762s-.39.887-.508 1.184c-.136.316-.316.57-.39.57-.09 0-.164.106-.164.227 0 .117-.063.222-.122.222-.074 0-.195.137-.27.285-.12.239-1.288 1.59-2.534 2.938-.164.18-.63.57-1.047.871-.406.297-.988.746-1.274 1.004-.93.824-2.804 2.246-2.953 2.246-.09 0-.27.137-.418.3-.152.18-.375.27-.48.24-.106-.044-.195-.028-.195.046s-.239.238-.524.375c-.285.133-.527.328-.527.434s-.18.27-.418.359c-.227.105-.809.523-1.305.945-.48.403-1.004.793-1.152.84-.153.043-.27.148-.27.223s-.12.136-.258.136c-.28.012-.793.329-.793.508 0 .047-.195.27-.433.496-.344.344-.422.54-.406 1.063.015.57.105.734.797 1.394l.777.735h1.246c1.258 0 1.723.148 2.156.734.196.254 1.23.133 1.754-.195.18-.121.676-.301 1.11-.406.433-.102.945-.344 1.152-.54.21-.195.45-.343.527-.343.133 0 1.66-1.14 2.305-1.707.137-.137.258-.211.258-.153 0 .047.222-.132.492-.375.254-.254.555-.464.644-.464s.317-.165.512-.372c.18-.195.703-.585 1.137-.855.45-.27.808-.57.808-.676 0-.105.301-.465.676-.808s.676-.72.676-.84c0-.106.148-.313.312-.465.93-.75 2.083-1.902 2.083-2.067 0-.12.136-.285.3-.39.164-.106.301-.254.301-.317 0-.074.164-.27.375-.433.211-.164.524-.582.703-.914.164-.344.36-.66.406-.703.06-.047.36-.48.66-.977.297-.492.837-1.258 1.196-1.691.363-.45.75-1.078.871-1.426.105-.344.418-1.047.691-1.57.27-.512.493-1.02.493-1.125 0-.09.21-.586.449-1.063.254-.48.45-1.098.45-1.336 0-.465.51-2.62.75-3.176.073-.168.194-1.304.284-2.52.074-1.214.211-2.292.285-2.398.434-.554.524-1.453.508-4.96-.012-1.961-.09-3.926-.164-4.344-.09-.422-.148-1.246-.133-1.813.028-1.558-.136-2.953-.465-3.93-.152-.476-.332-1.167-.39-1.542s-.164-.778-.238-.914c-.063-.122-.153-.493-.196-.825-.136-1.078-.406-2.05-.676-2.441-.148-.211-.343-.734-.449-1.14a9.723 9.723 0 0 0 -.449-1.348c-.465-1.051-.613-1.348-.75-1.575a7.935 7.935 0 0 1 -.316-.675 5.47 5.47 0 0 0 -.313-.672 5.705 5.705 0 0 1 -.3-.602c-.508-1.11-.673-1.422-.766-1.469-.075-.027-.117-.117-.117-.207 0-.18-.797-1.8-1.2-2.445-.148-.254-.285-.57-.285-.719-.015-.375-1.41-3.086-1.887-3.672-.464-.554-1.921-2.652-1.996-2.875-.105-.3-.988-1.41-1.855-2.308-.406-.406-.723-.84-.723-.977 0-.132-.433-.808-.972-1.511a55.243 55.243 0 0 1 -1.38-1.875c-.21-.329-.449-.63-.507-.645-.078-.027-.137-.148-.137-.27 0-.117-.074-.206-.164-.206s-1.14-.977-2.324-2.176-2.219-2.172-2.309-2.172c-.074 0-.148-.059-.148-.137 0-.191-.946-1.121-1.168-1.168-.227-.031-.692-.402-1.485-1.226-.27-.286-.496-.454-.496-.375 0 .074-.058.058-.117-.016-.062-.09-.347-.332-.629-.523a16.397 16.397 0 0 1 -1.097-.856c-.297-.27-.614-.496-.704-.496-.164 0-1.484-.883-1.722-1.137-.074-.105-.422-.258-.75-.36a4.352 4.352 0 0 1 -1.063-.554c-.257-.18-.554-.347-.675-.347-.122 0-.57-.239-1.004-.524-.434-.3-1.243-.676-1.797-.84-.555-.18-1.14-.402-1.32-.508-.18-.12-.688-.316-1.153-.449-.465-.137-.887-.3-.93-.375-.074-.12-1.093-.375-1.32-.332-.058.016-.36-.101-.66-.27-.313-.163-.672-.296-.793-.296-.137 0-.602-.09-1.05-.211s-1.423-.254-2.173-.317c-1.199-.09-7.941-.164-10.34-.105a12.737 12.737 0 0 1 -1.425-.043c-.285-.047-.614-.016-.735.059zm0 0"/><path d="m89.875 45.844c-.48.343-.898.613-.945.613-.285 0-1.559 1.86-1.559 2.281 0 .192-.105.508-.238.688-.195.285-.227.597-.153 1.574.047.676.079 1.68.079 2.234 0 1.184.312 2.008 1.093 2.832.735.778 2.172 1.364 2.563 1.063.105-.074.433-.18.75-.238.297-.063.555-.168.555-.243 0-.09.148-.148.343-.148.18 0 .598-.09.93-.21.644-.224.687-.33 1.11-2.114.09-.418.312-.867.492-1.02.226-.195.332-.465.359-1.047.047-.855.734-2.953 1.156-3.55.387-.555.313-.993-.27-1.637-.644-.703-2.054-1.363-3.105-1.438-.433-.03-1.12-.105-1.543-.148-.703-.09-.808-.063-1.617.508zm-24.055 6.488c-.222.227-.433.258-1.754.285-1.004.016-1.632.227-2.14.692-.106.105-.254.195-.332.195-.239 0-.63.793-.914 1.871-.477 1.828-.27 3.477.691 5.574.117.258.223.512.223.57 0 .047.195.391.449.735.332.496.543.66.855.66.497.016 1.844-.39 1.844-.555 0-.058.406-.058.899-.015.496.047.988.031 1.093-.032.106-.058.301-.117.45-.117.617 0 .992-.96 1.23-3.074.121-1.078.406-2.203.629-2.547.105-.164.195-.597.195-.972s.059-.75.137-.84c.36-.375.313-.793-.137-1.305-.855-.988-2.89-1.648-3.418-1.125zm49.457 9.863c-.18.075-.793.18-1.347.239-.555.046-1.664.254-2.461.449-.793.195-1.707.36-2.02.36-.316.015-1.172.152-1.922.316-.734.164-1.57.312-1.855.3-.285 0-.692.09-.902.196-.207.101-.836.238-1.391.28-.555.063-1.172.196-1.352.317-.191.121-.793.301-1.347.407-.57.101-1.02.238-1.02.296 0 .063-.27.211-.613.348-.734.297-2.024.434-5.68.613-.945.043-1.918.121-2.16.164-.508.106-5.168.137-5.273.032-.032-.047-.391-.016-.782.058-.386.075-1.48.164-2.425.196-3.028.12-3.657.195-4.586.507-.512.168-1.168.317-1.5.332a7.256 7.256 0 0 0 -1.258.207 21.5 21.5 0 0 1 -1.723.376c-.57.105-1.156.257-1.273.316-.438.21-2.356.766-2.563.719-.12-.032-.855.105-1.636.3-1.481.36-3.954.598-6.22.614-.882.015-1.484.09-1.722.226-.21.117-.613.207-.914.223-.3 0-.629.105-.734.227-.106.12-.27.21-.36.21a.915.915 0 0 0 -.39.059c-.121.043-.793.195-1.496.328-1.485.3-3.223.945-4.258 1.606-.614.402-.914.48-2.098.582-1.516.12-2.187.257-2.187.453 0 .058-.243.37-.528.687-.554.614-.972 1.364-.972 1.754 0 .133-.106.418-.239.613-.12.196-.21.48-.195.63.016.152 0 .374-.063.495-.207.57-.222 1.02-.027 1.575.117.328.297 1.125.403 1.754.09.644.226 1.168.285 1.168.047 0 .18.222.285.48.105.27.285.688.39.941.106.243.223.707.286 1.004.043.317.148.57.222.57.09 0 .153.165.153.36s.105.555.222.797c.121.223.39.808.602 1.273.195.48.418.868.492.868.21 0 .66.914.586 1.214-.148.586 4.375 4.797 6.07 5.664.883.45 1.887 1.247 2.516 1.997.348.386.84.835 1.094.957.27.136.527.316.57.39.047.074.21.149.344.18.152.016.316.105.36.18.167.222 1.41 1.046 1.98 1.316.285.137.687.348.898.465.21.12.523.226.719.226.195 0 .48.075.629.149.195.105.316.105.375 0 .062-.09.226-.117.375-.074.164.046.707.015 1.214-.075.688-.12 1.004-.27 1.215-.539.164-.195.434-.36.614-.36.523 0 1.527.403 1.574.63.015.105.238.285.465.39.254.118.48.344.539.582.043.227.238.618.418.856.18.254.3.465.27.465-.044 0 .03.164.167.375.18.285.207.555.133 1.125-.059.418-.043.988.031 1.273.059.285.106 3.192.09 6.442-.016 3.254-.031 6.191-.031 6.52-.016 3.581.254 6.054.87 7.718.134.375.313.887.388 1.156.078.27.242.672.359.899.121.222.227.507.227.613 0 .328.48 1.273.78 1.543.15.137.27.3.27.375s.164.27.375.422c.207.148.371.37.371.476 0 .121.063.211.122.211.058 0 .242.196.375.45.148.253.375.449.496.449.117 0 .207.09.18.18-.063.316.327.898.956 1.5.332.316.645.57.692.57.043 0 .344.222.687.492.766.601 1.067.75 2.489 1.172.613.18 1.168.402 1.23.492.059.09.117.105.117.047 0-.063.317.058.692.27.507.285.882.374 1.453.359.433-.016 1.02.09 1.32.222.402.168 1.121.243 2.695.258a174.8 174.8 0 0 1 2.907.043c.855.016 2.894-.344 3.015-.539.043-.059.297-.121.555-.121.27 0 .777-.164 1.137-.375.343-.207.765-.375.93-.375.148 0 .417-.059.613-.148.195-.075.629-.211.976-.301.344-.09.719-.238.824-.344.27-.254.973-.555 1.317-.555.152 0 .48-.164.719-.375.257-.207.511-.375.601-.375.074 0 .18-.101.238-.222.047-.121.168-.227.286-.227.105 0 .359-.18.57-.387.195-.21.973-.855 1.707-1.41 1.246-.945 3.824-3.433 3.824-3.687 0-.059.195-.285.434-.524.238-.226.554-.66.687-.945.153-.3.317-.54.39-.54.09 0 .196-.12.255-.269.3-.75 1.187-1.964 1.726-2.351.477-.36.688-.66.957-1.41.196-.54.465-1.11.614-1.274.363-.433.632-.945.632-1.199 0-.105.118-.238.27-.27.238-.074.629-.718 1.078-1.843.508-1.258.766-1.977 1.11-3.149.238-.75.48-1.468.554-1.601.074-.153.133-.465.133-.707 0-.254.137-.672.3-.957.196-.317.36-1.004.45-1.754.074-.676.195-1.305.27-1.41.18-.207.796-1.856.855-2.262.09-.54.254-2.309.312-3.418.032-.598.106-1.512.153-2.05.148-1.5.12-2.087-.153-3.224-.148-.585-.296-1.156-.343-1.273a3.699 3.699 0 0 1 -.133-.527c-.031-.164-.18-.914-.36-1.649-.18-.746-.359-1.511-.406-1.722a3.135 3.135 0 0 0 -.27-.672c-.105-.168-.343-.735-.538-1.278-.196-.539-.465-1.105-.614-1.257-.136-.149-.226-.344-.183-.418.094-.137-.54-1.168-.703-1.168-.043 0-.18-.285-.301-.645-.102-.348-.313-.766-.461-.914-.348-.39-.348-.617.027-.992.164-.164.465-.672.676-1.137.195-.45.598-1.11.883-1.453.285-.348.523-.676.523-.75 0-.062.047-.254.078-.45.028-.179.149-.976.239-1.753.105-.781.238-1.5.328-1.606.316-.386.707-2.293 1.02-4.988.242-1.933.257-2.039.421-3.074.075-.492.106-1.125.075-1.395-.047-.254.03-.793.148-1.199.21-.644.465-2.383.45-3.101-.013-.989-.18-1.364-.868-1.977-.39-.36-.824-.644-.961-.644-.133 0-.312-.06-.387-.137-.39-.375-3.09-.582-3.793-.313zm-17.28 25.176c.616.09 1.23.254 1.35.36.133.12.466.257.747.316.316.058.765.375 1.199.808.797.793 1.95 1.665 2.219 1.665.105 0 .195.09.195.21 0 .118.121.254.27.313.136.047.421.316.628.586.211.285.555.555.797.598.223.046.403.18.403.3s.09.285.195.344c.465.285 3.957 4.348 4.285 4.977.106.21.285.496.39.613.302.36.99 2.234 1.29 3.45.148.612.344 1.394.433 1.722.09.328.168.824.153 1.11 0 .269.058.57.133.671.21.258.12 2.938-.118 3.36-.105.195-.21.597-.242.898-.12 1.05-.492 2.578-.824 3.254-.18.375-.285.777-.238.898.043.117.027.223-.047.223-.059 0-.207.285-.313.629-.226.765-.406 1.246-.691 1.816-.121.238-.211.524-.211.645 0 .117-.059.207-.148.207-.075 0-.149.105-.149.226 0 .313-.555 1.38-.781 1.528-.106.062-.508.586-.883 1.172-.96 1.437-2.535 3.117-3.64 3.851-.497.344-1.172.836-1.47 1.106-.316.285-.734.543-.945.601-.21.043-.375.133-.375.211 0 .207-1.168.629-1.484.523-.18-.046-.313-.03-.313.043 0 .196-1.695.66-2.609.723-.406.027-1.14.117-1.617.207-.48.09-1.02.121-1.172.074-.164-.058-.297-.043-.297.032 0 .136-2.129.18-2.25.046-.043-.046-.582-.21-1.199-.347l-1.797-.434c-.375-.09-.84-.18-1.05-.195-.208-.016-.688-.18-1.079-.344-.39-.18-.75-.328-.793-.328-.406 0-2.773-2.191-2.773-2.562 0-.09-.18-.391-.406-.66-.645-.75-.868-1.051-.915-1.262-.011-.09-.285-.793-.582-1.559-.57-1.453-.691-2.215-.886-5.902-.043-.914-.133-1.86-.192-2.07-.047-.223-.047-.958.028-1.618.164-1.738.254-3.238.316-4.976.027-.825.09-1.676.164-1.918.059-.223.043-.492-.031-.598-.09-.09-.164-1.05-.164-2.113-.031-1.785-.223-3.09-.48-3.09-.06 0-.15-.254-.196-.566-.164-1.004-.477-1.95-.746-2.25-.137-.149-.258-.344-.258-.434s-.191-.375-.45-.645c-.237-.27-.448-.539-.448-.601 0-.074-.18-.281-.403-.477-.632-.539-.824-.96-.707-1.531.075-.434.164-.523.707-.672a7.404 7.404 0 0 1 1.227-.226c.691-.059 2.473-.508 2.7-.688.089-.062.312-.152.523-.195.21-.047.882-.27 1.515-.524.988-.375 1.738-.48 2.41-.347.18.03.54.945.809 2.023.168.66.48 1.379.871 1.95 1.035 1.527 1.184 1.964 1.23 3.523.028.777.118 1.48.208 1.57.074.078.152.3.152.48 0 .54.164.81.598 1.036.793.406 1.812.687 2.144.586.402-.121 1.004-.645 1.004-.887 0-.09.375-.508.824-.93.54-.508.824-.898.824-1.12 0-.196.106-.528.223-.766.242-.48.527-1.875.527-2.637 0-.301.149-.809.329-1.14.285-.54.316-.794.285-2.595-.032-1.722 0-2.05.222-2.293.153-.164.364-.253.496-.207.137.028.75.133 1.348.223zm0 0"/></svg>